%TF.GenerationSoftware,KiCad,Pcbnew,9.0.5*%
%TF.CreationDate,2025-11-27T10:56:10-06:00*%
%TF.ProjectId,devboard,64657662-6f61-4726-942e-6b696361645f,rev?*%
%TF.SameCoordinates,Original*%
%TF.FileFunction,Copper,L1,Top*%
%TF.FilePolarity,Positive*%
%FSLAX46Y46*%
G04 Gerber Fmt 4.6, Leading zero omitted, Abs format (unit mm)*
G04 Created by KiCad (PCBNEW 9.0.5) date 2025-11-27 10:56:10*
%MOMM*%
%LPD*%
G01*
G04 APERTURE LIST*
G04 Aperture macros list*
%AMRoundRect*
0 Rectangle with rounded corners*
0 $1 Rounding radius*
0 $2 $3 $4 $5 $6 $7 $8 $9 X,Y pos of 4 corners*
0 Add a 4 corners polygon primitive as box body*
4,1,4,$2,$3,$4,$5,$6,$7,$8,$9,$2,$3,0*
0 Add four circle primitives for the rounded corners*
1,1,$1+$1,$2,$3*
1,1,$1+$1,$4,$5*
1,1,$1+$1,$6,$7*
1,1,$1+$1,$8,$9*
0 Add four rect primitives between the rounded corners*
20,1,$1+$1,$2,$3,$4,$5,0*
20,1,$1+$1,$4,$5,$6,$7,0*
20,1,$1+$1,$6,$7,$8,$9,0*
20,1,$1+$1,$8,$9,$2,$3,0*%
G04 Aperture macros list end*
%TA.AperFunction,SMDPad,CuDef*%
%ADD10RoundRect,0.140000X-0.170000X0.140000X-0.170000X-0.140000X0.170000X-0.140000X0.170000X0.140000X0*%
%TD*%
%TA.AperFunction,SMDPad,CuDef*%
%ADD11RoundRect,0.050000X-0.387500X-0.050000X0.387500X-0.050000X0.387500X0.050000X-0.387500X0.050000X0*%
%TD*%
%TA.AperFunction,SMDPad,CuDef*%
%ADD12RoundRect,0.050000X-0.050000X-0.387500X0.050000X-0.387500X0.050000X0.387500X-0.050000X0.387500X0*%
%TD*%
%TA.AperFunction,HeatsinkPad*%
%ADD13R,3.200000X3.200000*%
%TD*%
%TA.AperFunction,SMDPad,CuDef*%
%ADD14RoundRect,0.200000X-0.200000X-0.800000X0.200000X-0.800000X0.200000X0.800000X-0.200000X0.800000X0*%
%TD*%
%TA.AperFunction,SMDPad,CuDef*%
%ADD15RoundRect,0.140000X-0.140000X-0.170000X0.140000X-0.170000X0.140000X0.170000X-0.140000X0.170000X0*%
%TD*%
%TA.AperFunction,SMDPad,CuDef*%
%ADD16RoundRect,0.062500X-0.387500X-0.062500X0.387500X-0.062500X0.387500X0.062500X-0.387500X0.062500X0*%
%TD*%
%TA.AperFunction,HeatsinkPad*%
%ADD17R,0.200000X1.600000*%
%TD*%
%TA.AperFunction,ComponentPad*%
%ADD18R,1.700000X1.700000*%
%TD*%
%TA.AperFunction,ComponentPad*%
%ADD19C,1.700000*%
%TD*%
%TA.AperFunction,SMDPad,CuDef*%
%ADD20RoundRect,0.135000X0.135000X0.185000X-0.135000X0.185000X-0.135000X-0.185000X0.135000X-0.185000X0*%
%TD*%
%TA.AperFunction,SMDPad,CuDef*%
%ADD21RoundRect,0.160000X-0.160000X0.222500X-0.160000X-0.222500X0.160000X-0.222500X0.160000X0.222500X0*%
%TD*%
%TA.AperFunction,SMDPad,CuDef*%
%ADD22RoundRect,0.135000X-0.135000X-0.185000X0.135000X-0.185000X0.135000X0.185000X-0.135000X0.185000X0*%
%TD*%
%TA.AperFunction,SMDPad,CuDef*%
%ADD23RoundRect,0.140000X0.170000X-0.140000X0.170000X0.140000X-0.170000X0.140000X-0.170000X-0.140000X0*%
%TD*%
%TA.AperFunction,SMDPad,CuDef*%
%ADD24RoundRect,0.135000X0.185000X-0.135000X0.185000X0.135000X-0.185000X0.135000X-0.185000X-0.135000X0*%
%TD*%
%TA.AperFunction,SMDPad,CuDef*%
%ADD25RoundRect,0.150000X0.150000X-0.587500X0.150000X0.587500X-0.150000X0.587500X-0.150000X-0.587500X0*%
%TD*%
%TA.AperFunction,SMDPad,CuDef*%
%ADD26RoundRect,0.250000X0.450000X0.350000X-0.450000X0.350000X-0.450000X-0.350000X0.450000X-0.350000X0*%
%TD*%
%TA.AperFunction,SMDPad,CuDef*%
%ADD27R,0.600000X1.450000*%
%TD*%
%TA.AperFunction,SMDPad,CuDef*%
%ADD28R,0.300000X1.450000*%
%TD*%
%TA.AperFunction,HeatsinkPad*%
%ADD29O,1.000000X2.100000*%
%TD*%
%TA.AperFunction,HeatsinkPad*%
%ADD30O,1.000000X1.600000*%
%TD*%
%TA.AperFunction,SMDPad,CuDef*%
%ADD31RoundRect,0.140000X0.140000X0.170000X-0.140000X0.170000X-0.140000X-0.170000X0.140000X-0.170000X0*%
%TD*%
%TA.AperFunction,ViaPad*%
%ADD32C,0.600000*%
%TD*%
%TA.AperFunction,ViaPad*%
%ADD33C,0.300000*%
%TD*%
%TA.AperFunction,Conductor*%
%ADD34C,0.152400*%
%TD*%
%TA.AperFunction,Conductor*%
%ADD35C,0.200000*%
%TD*%
G04 APERTURE END LIST*
D10*
%TO.P,C15,1*%
%TO.N,GND*%
X119766202Y-110995069D03*
%TO.P,C15,2*%
%TO.N,XIN*%
X119766202Y-111955069D03*
%TD*%
D11*
%TO.P,U1,1,IOVDD*%
%TO.N,+3V3*%
X119196875Y-100221875D03*
%TO.P,U1,2,GPIO0*%
%TO.N,GPI00*%
X119196875Y-100621875D03*
%TO.P,U1,3,GPIO1*%
%TO.N,GPI01*%
X119196875Y-101021875D03*
%TO.P,U1,4,GPIO2*%
%TO.N,GPI02*%
X119196875Y-101421875D03*
%TO.P,U1,5,GPIO3*%
%TO.N,GPI03*%
X119196875Y-101821875D03*
%TO.P,U1,6,GPIO4*%
%TO.N,GPI04*%
X119196875Y-102221875D03*
%TO.P,U1,7,GPIO5*%
%TO.N,GPI05*%
X119196875Y-102621875D03*
%TO.P,U1,8,GPIO6*%
%TO.N,GPI06*%
X119196875Y-103021875D03*
%TO.P,U1,9,GPIO7*%
%TO.N,GPI07*%
X119196875Y-103421875D03*
%TO.P,U1,10,IOVDD*%
%TO.N,+3V3*%
X119196875Y-103821875D03*
%TO.P,U1,11,GPIO8*%
%TO.N,GPI08*%
X119196875Y-104221875D03*
%TO.P,U1,12,GPIO9*%
%TO.N,GPI09*%
X119196875Y-104621875D03*
%TO.P,U1,13,GPIO10*%
%TO.N,GPI010*%
X119196875Y-105021875D03*
%TO.P,U1,14,GPIO11*%
%TO.N,GPI011*%
X119196875Y-105421875D03*
D12*
%TO.P,U1,15,GPIO12*%
%TO.N,GPI012*%
X120034375Y-106259375D03*
%TO.P,U1,16,GPIO13*%
%TO.N,GPI013*%
X120434375Y-106259375D03*
%TO.P,U1,17,GPIO14*%
%TO.N,GPI014*%
X120834375Y-106259375D03*
%TO.P,U1,18,GPIO15*%
%TO.N,GPI015*%
X121234375Y-106259375D03*
%TO.P,U1,19,TESTEN*%
%TO.N,GND*%
X121634375Y-106259375D03*
%TO.P,U1,20,XIN*%
%TO.N,XIN*%
X122034375Y-106259375D03*
%TO.P,U1,21,XOUT*%
%TO.N,XOUT*%
X122434375Y-106259375D03*
%TO.P,U1,22,IOVDD*%
%TO.N,+3V3*%
X122834375Y-106259375D03*
%TO.P,U1,23,DVDD*%
%TO.N,+1V1*%
X123234375Y-106259375D03*
%TO.P,U1,24,SWCLK*%
%TO.N,SWLCK*%
X123634375Y-106259375D03*
%TO.P,U1,25,SWD*%
%TO.N,SWD*%
X124034375Y-106259375D03*
%TO.P,U1,26,RUN*%
%TO.N,RUN*%
X124434375Y-106259375D03*
%TO.P,U1,27,GPIO16*%
%TO.N,GPI016*%
X124834375Y-106259375D03*
%TO.P,U1,28,GPIO17*%
%TO.N,GPI017*%
X125234375Y-106259375D03*
D11*
%TO.P,U1,29,GPIO18*%
%TO.N,GPI018*%
X126071875Y-105421875D03*
%TO.P,U1,30,GPIO19*%
%TO.N,GPI019*%
X126071875Y-105021875D03*
%TO.P,U1,31,GPIO20*%
%TO.N,GPI020*%
X126071875Y-104621875D03*
%TO.P,U1,32,GPIO21*%
%TO.N,GPI021*%
X126071875Y-104221875D03*
%TO.P,U1,33,IOVDD*%
%TO.N,+3V3*%
X126071875Y-103821875D03*
%TO.P,U1,34,GPIO22*%
%TO.N,GPI022*%
X126071875Y-103421875D03*
%TO.P,U1,35,GPIO23*%
%TO.N,GPI023*%
X126071875Y-103021875D03*
%TO.P,U1,36,GPIO24*%
%TO.N,GPI024*%
X126071875Y-102621875D03*
%TO.P,U1,37,GPIO25*%
%TO.N,unconnected-(U1-GPIO25-Pad37)*%
X126071875Y-102221875D03*
%TO.P,U1,38,GPIO26_ADC0*%
%TO.N,GPIO26_ADC0*%
X126071875Y-101821875D03*
%TO.P,U1,39,GPIO27_ADC1*%
%TO.N,GPIO27_ADC1*%
X126071875Y-101421875D03*
%TO.P,U1,40,GPIO28_ADC2*%
%TO.N,GPIO28_ADC2*%
X126071875Y-101021875D03*
%TO.P,U1,41,GPIO29_ADC3*%
%TO.N,GPIO29_ADC3*%
X126071875Y-100621875D03*
%TO.P,U1,42,IOVDD*%
%TO.N,+3V3*%
X126071875Y-100221875D03*
D12*
%TO.P,U1,43,ADC_AVDD*%
X125234375Y-99384375D03*
%TO.P,U1,44,VREG_IN*%
X124834375Y-99384375D03*
%TO.P,U1,45,VREG_VOUT*%
%TO.N,+1V1*%
X124434375Y-99384375D03*
%TO.P,U1,46,USB_DM*%
%TO.N,Net-(U1-USB_DM)*%
X124034375Y-99384375D03*
%TO.P,U1,47,USB_DP*%
%TO.N,Net-(U1-USB_DP)*%
X123634375Y-99384375D03*
%TO.P,U1,48,USB_VDD*%
%TO.N,+3V3*%
X123234375Y-99384375D03*
%TO.P,U1,49,IOVDD*%
X122834375Y-99384375D03*
%TO.P,U1,50,DVDD*%
%TO.N,+1V1*%
X122434375Y-99384375D03*
%TO.P,U1,51,QSPI_SD3*%
%TO.N,QSPI_SD3*%
X122034375Y-99384375D03*
%TO.P,U1,52,QSPI_SCLK*%
%TO.N,QSPI_SCLK*%
X121634375Y-99384375D03*
%TO.P,U1,53,QSPI_SD0*%
%TO.N,QSPI_SD0*%
X121234375Y-99384375D03*
%TO.P,U1,54,QSPI_SD2*%
%TO.N,QSPI_SD2*%
X120834375Y-99384375D03*
%TO.P,U1,55,QSPI_SD1*%
%TO.N,QSPI_SD1*%
X120434375Y-99384375D03*
%TO.P,U1,56,QSPI_SS*%
%TO.N,QSPI_SS*%
X120034375Y-99384375D03*
D13*
%TO.P,U1,57,GND*%
%TO.N,GND*%
X122634375Y-102821875D03*
%TD*%
D10*
%TO.P,C7,1*%
%TO.N,+3V3*%
X127333924Y-100700217D03*
%TO.P,C7,2*%
%TO.N,GND*%
X127333924Y-101660217D03*
%TD*%
D14*
%TO.P,SW1,1,1*%
%TO.N,GND*%
X118022608Y-90774111D03*
%TO.P,SW1,2,2*%
%TO.N,Net-(R7-Pad1)*%
X122222608Y-90774111D03*
%TD*%
D15*
%TO.P,C14,1*%
%TO.N,VBUS*%
X125035937Y-81701227D03*
%TO.P,C14,2*%
%TO.N,GND*%
X125995937Y-81701227D03*
%TD*%
D16*
%TO.P,U2,1,~{CS}*%
%TO.N,QSPI_SS*%
X118277078Y-96193214D03*
%TO.P,U2,2,DO/IO_{1}*%
%TO.N,QSPI_SD1*%
X118277078Y-96693214D03*
%TO.P,U2,3,~{WP}/IO_{2}*%
%TO.N,QSPI_SD2*%
X118277078Y-97193214D03*
%TO.P,U2,4,GND*%
%TO.N,GND*%
X118277078Y-97693214D03*
%TO.P,U2,5,DI/IO_{0}*%
%TO.N,QSPI_SD0*%
X121127078Y-97693214D03*
%TO.P,U2,6,CLK*%
%TO.N,QSPI_SCLK*%
X121127078Y-97193214D03*
%TO.P,U2,7,~{HOLD}/~{RESET}/IO_{3}*%
%TO.N,QSPI_SD3*%
X121127078Y-96693214D03*
%TO.P,U2,8,VCC*%
%TO.N,+3V3*%
X121127078Y-96193214D03*
D17*
%TO.P,U2,9*%
%TO.N,N/C*%
X119702078Y-96943214D03*
%TD*%
D18*
%TO.P,J2,1,Pin_1*%
%TO.N,GPI00*%
X113744375Y-74691875D03*
D19*
%TO.P,J2,2,Pin_2*%
%TO.N,GPI01*%
X113744375Y-77231875D03*
%TO.P,J2,3,Pin_3*%
%TO.N,GND*%
X113744375Y-79771875D03*
%TO.P,J2,4,Pin_4*%
%TO.N,GPI02*%
X113744375Y-82311875D03*
%TO.P,J2,5,Pin_5*%
%TO.N,GPI03*%
X113744375Y-84851875D03*
%TO.P,J2,6,Pin_6*%
%TO.N,GPI04*%
X113744375Y-87391875D03*
%TO.P,J2,7,Pin_7*%
%TO.N,GPI05*%
X113744375Y-89931875D03*
%TO.P,J2,8,Pin_8*%
%TO.N,GND*%
X113744375Y-92471875D03*
%TO.P,J2,9,Pin_9*%
%TO.N,GPI06*%
X113744375Y-95011875D03*
%TO.P,J2,10,Pin_10*%
%TO.N,GPI07*%
X113744375Y-97551875D03*
%TO.P,J2,11,Pin_11*%
%TO.N,GPI08*%
X113744375Y-100091875D03*
%TO.P,J2,12,Pin_12*%
%TO.N,GPI09*%
X113744375Y-102631875D03*
%TO.P,J2,13,Pin_13*%
%TO.N,unconnected-(J2-Pin_13-Pad13)*%
X113744375Y-105171875D03*
%TO.P,J2,14,Pin_14*%
%TO.N,GPI010*%
X113744375Y-107711875D03*
%TO.P,J2,15,Pin_15*%
%TO.N,GPI011*%
X113744375Y-110251875D03*
%TO.P,J2,16,Pin_16*%
%TO.N,GPI012*%
X113744375Y-112791875D03*
%TO.P,J2,17,Pin_17*%
%TO.N,GPI013*%
X113744375Y-115331875D03*
%TO.P,J2,18,Pin_18*%
%TO.N,GND*%
X113744375Y-117871875D03*
%TO.P,J2,19,Pin_19*%
%TO.N,GPI014*%
X113744375Y-120411875D03*
%TO.P,J2,20,Pin_20*%
%TO.N,GPI015*%
X113744375Y-122951875D03*
%TD*%
D20*
%TO.P,R6,1*%
%TO.N,+3V3*%
X121385119Y-94890104D03*
%TO.P,R6,2*%
%TO.N,QSPI_SS*%
X120365119Y-94890104D03*
%TD*%
D18*
%TO.P,J4,1,Pin_1*%
%TO.N,SWCLK*%
X120094375Y-122711875D03*
D19*
%TO.P,J4,2,Pin_2*%
%TO.N,GND*%
X122634375Y-122711875D03*
%TO.P,J4,3,Pin_3*%
%TO.N,SWD*%
X125174375Y-122711875D03*
%TD*%
D21*
%TO.P,D3,1,K*%
%TO.N,+3V3*%
X117365218Y-85916278D03*
%TO.P,D3,2,A*%
%TO.N,GND*%
X117365218Y-87061278D03*
%TD*%
D22*
%TO.P,R2,1*%
%TO.N,Net-(J1-CC2)*%
X120747343Y-81693889D03*
%TO.P,R2,2*%
%TO.N,GND*%
X121767343Y-81693889D03*
%TD*%
D10*
%TO.P,C12,1*%
%TO.N,+1V1*%
X126150978Y-108053582D03*
%TO.P,C12,2*%
%TO.N,GND*%
X126150978Y-109013582D03*
%TD*%
D23*
%TO.P,C11,1*%
%TO.N,+1V1*%
X122369567Y-95951788D03*
%TO.P,C11,2*%
%TO.N,GND*%
X122369567Y-94991788D03*
%TD*%
D10*
%TO.P,C6,1*%
%TO.N,+3V3*%
X122074874Y-84350888D03*
%TO.P,C6,2*%
%TO.N,GND*%
X122074874Y-85310888D03*
%TD*%
D24*
%TO.P,R4,1*%
%TO.N,Net-(U1-USB_DM)*%
X124055967Y-97194913D03*
%TO.P,R4,2*%
%TO.N,USB_D-*%
X124055967Y-96174913D03*
%TD*%
D18*
%TO.P,J3,1,Pin_1*%
%TO.N,VBUS*%
X131524375Y-74691875D03*
D19*
%TO.P,J3,2,Pin_2*%
%TO.N,GPIO29_ADC3*%
X131524375Y-77231875D03*
%TO.P,J3,3,Pin_3*%
%TO.N,GND*%
X131524375Y-79771875D03*
%TO.P,J3,4,Pin_4*%
%TO.N,GPIO28_ADC2*%
X131524375Y-82311875D03*
%TO.P,J3,5,Pin_5*%
%TO.N,+3V3*%
X131524375Y-84851875D03*
%TO.P,J3,6,Pin_6*%
%TO.N,GPIO27_ADC1*%
X131524375Y-87391875D03*
%TO.P,J3,7,Pin_7*%
%TO.N,GPIO26_ADC0*%
X131524375Y-89931875D03*
%TO.P,J3,8,Pin_8*%
%TO.N,GND*%
X131524375Y-92471875D03*
%TO.P,J3,9,Pin_9*%
%TO.N,GPI024*%
X131524375Y-95011875D03*
%TO.P,J3,10,Pin_10*%
%TO.N,GPI023*%
X131524375Y-97551875D03*
%TO.P,J3,11,Pin_11*%
%TO.N,RUN*%
X131524375Y-100091875D03*
%TO.P,J3,12,Pin_12*%
%TO.N,GPI022*%
X131524375Y-102631875D03*
%TO.P,J3,13,Pin_13*%
%TO.N,GND*%
X131524375Y-105171875D03*
%TO.P,J3,14,Pin_14*%
%TO.N,GPI021*%
X131524375Y-107711875D03*
%TO.P,J3,15,Pin_15*%
%TO.N,GPI020*%
X131524375Y-110251875D03*
%TO.P,J3,16,Pin_16*%
%TO.N,GPI019*%
X131524375Y-112791875D03*
%TO.P,J3,17,Pin_17*%
%TO.N,GPI018*%
X131524375Y-115331875D03*
%TO.P,J3,18,Pin_18*%
%TO.N,GND*%
X131524375Y-117871875D03*
%TO.P,J3,19,Pin_19*%
%TO.N,GPI017*%
X131524375Y-120411875D03*
%TO.P,J3,20,Pin_20*%
%TO.N,GPI016*%
X131524375Y-122951875D03*
%TD*%
D21*
%TO.P,D2,1,K*%
%TO.N,+3V3*%
X118373753Y-85823339D03*
%TO.P,D2,2,A*%
%TO.N,GND*%
X118373753Y-86968339D03*
%TD*%
D25*
%TO.P,U4,1,GND*%
%TO.N,GND*%
X118598573Y-84076977D03*
%TO.P,U4,2,VO*%
%TO.N,+3V3*%
X120498573Y-84076977D03*
%TO.P,U4,3,VI*%
%TO.N,VBUS*%
X119548573Y-82201977D03*
%TD*%
D24*
%TO.P,R3,1*%
%TO.N,Net-(U1-USB_DP)*%
X123025820Y-97963214D03*
%TO.P,R3,2*%
%TO.N,USB_D+*%
X123025820Y-96943214D03*
%TD*%
D21*
%TO.P,D1,1,K*%
%TO.N,+3V3*%
X119447277Y-85795224D03*
%TO.P,D1,2,A*%
%TO.N,GND*%
X119447277Y-86940224D03*
%TD*%
D23*
%TO.P,C2,1*%
%TO.N,+3V3*%
X125116904Y-95874595D03*
%TO.P,C2,2*%
%TO.N,GND*%
X125116904Y-94914595D03*
%TD*%
D10*
%TO.P,C9,1*%
%TO.N,+3V3*%
X124048653Y-108042190D03*
%TO.P,C9,2*%
%TO.N,GND*%
X124048653Y-109002190D03*
%TD*%
%TO.P,C10,1*%
%TO.N,+1V1*%
X125091290Y-108052506D03*
%TO.P,C10,2*%
%TO.N,GND*%
X125091290Y-109012506D03*
%TD*%
D21*
%TO.P,D4,1,K*%
%TO.N,+3V3*%
X120504982Y-85783218D03*
%TO.P,D4,2,A*%
%TO.N,GND*%
X120504982Y-86928218D03*
%TD*%
D10*
%TO.P,C8,1*%
%TO.N,+3V3*%
X128358481Y-100694190D03*
%TO.P,C8,2*%
%TO.N,GND*%
X128358481Y-101654190D03*
%TD*%
D23*
%TO.P,C13,1*%
%TO.N,+3V3*%
X126202721Y-98478341D03*
%TO.P,C13,2*%
%TO.N,GND*%
X126202721Y-97518341D03*
%TD*%
D22*
%TO.P,R5,1*%
%TO.N,XOUT*%
X122056712Y-109018289D03*
%TO.P,R5,2*%
%TO.N,Net-(C16-Pad2)*%
X123076712Y-109018289D03*
%TD*%
D26*
%TO.P,Y1,1,1*%
%TO.N,Net-(C16-Pad2)*%
X123597696Y-110569176D03*
%TO.P,Y1,2,2*%
%TO.N,GND*%
X121397696Y-110569176D03*
%TO.P,Y1,3,3*%
%TO.N,XIN*%
X121397696Y-112269176D03*
%TO.P,Y1,4,4*%
%TO.N,GND*%
X123597696Y-112269176D03*
%TD*%
D22*
%TO.P,R1,1*%
%TO.N,Net-(J1-CC1)*%
X124114502Y-82771738D03*
%TO.P,R1,2*%
%TO.N,GND*%
X125134502Y-82771738D03*
%TD*%
D27*
%TO.P,J1,A1,GND*%
%TO.N,GND*%
X125884375Y-79866875D03*
%TO.P,J1,A4,VBUS*%
%TO.N,VBUS*%
X125084375Y-79866875D03*
D28*
%TO.P,J1,A5,CC1*%
%TO.N,Net-(J1-CC1)*%
X123884375Y-79866875D03*
%TO.P,J1,A6,D+*%
%TO.N,USB_D+*%
X122884375Y-79866875D03*
%TO.P,J1,A7,D-*%
%TO.N,USB_D-*%
X122384375Y-79866875D03*
%TO.P,J1,A8*%
%TO.N,N/C*%
X121384375Y-79866875D03*
D27*
%TO.P,J1,A9,VBUS*%
%TO.N,VBUS*%
X120184375Y-79866875D03*
%TO.P,J1,A12,GND*%
%TO.N,GND*%
X119384375Y-79866875D03*
%TO.P,J1,B1,GND*%
X119384375Y-79866875D03*
%TO.P,J1,B4,VBUS*%
%TO.N,VBUS*%
X120184375Y-79866875D03*
D28*
%TO.P,J1,B5,CC2*%
%TO.N,Net-(J1-CC2)*%
X120884375Y-79866875D03*
%TO.P,J1,B6,D+*%
%TO.N,USB_D+*%
X121884375Y-79866875D03*
%TO.P,J1,B7,D-*%
%TO.N,USB_D-*%
X123384375Y-79866875D03*
%TO.P,J1,B8*%
%TO.N,N/C*%
X124384375Y-79866875D03*
D27*
%TO.P,J1,B9,VBUS*%
%TO.N,VBUS*%
X125084375Y-79866875D03*
%TO.P,J1,B12,GND*%
%TO.N,GND*%
X125884375Y-79866875D03*
D29*
%TO.P,J1,S1,SHIELD*%
X126954375Y-78951875D03*
D30*
X126954375Y-74771875D03*
D29*
X118314375Y-78951875D03*
D30*
X118314375Y-74771875D03*
%TD*%
D31*
%TO.P,C1,1*%
%TO.N,+3V3*%
X117986715Y-104887157D03*
%TO.P,C1,2*%
%TO.N,GND*%
X117026715Y-104887157D03*
%TD*%
D23*
%TO.P,C4,1*%
%TO.N,+3V3*%
X127250394Y-98479914D03*
%TO.P,C4,2*%
%TO.N,GND*%
X127250394Y-97519914D03*
%TD*%
%TO.P,C16,1*%
%TO.N,GND*%
X125291658Y-111812169D03*
%TO.P,C16,2*%
%TO.N,Net-(C16-Pad2)*%
X125291658Y-110852169D03*
%TD*%
D20*
%TO.P,R7,1*%
%TO.N,Net-(R7-Pad1)*%
X121321639Y-93829353D03*
%TO.P,R7,2*%
%TO.N,QSPI_SS*%
X120301639Y-93829353D03*
%TD*%
D23*
%TO.P,C3,1*%
%TO.N,+3V3*%
X126310212Y-95838434D03*
%TO.P,C3,2*%
%TO.N,GND*%
X126310212Y-94878434D03*
%TD*%
D31*
%TO.P,C17,1*%
%TO.N,+3V3*%
X117978543Y-103834818D03*
%TO.P,C17,2*%
%TO.N,GND*%
X117018543Y-103834818D03*
%TD*%
D10*
%TO.P,C5,1*%
%TO.N,+3V3*%
X122086396Y-86404100D03*
%TO.P,C5,2*%
%TO.N,GND*%
X122086396Y-87364100D03*
%TD*%
D32*
%TO.N,GND*%
X116166260Y-104396608D03*
D33*
X124554905Y-102759376D03*
D32*
X121443750Y-85725000D03*
X121764425Y-88106250D03*
X123024933Y-107923407D03*
X127727675Y-104049112D03*
X120465854Y-87839819D03*
X118463837Y-97889614D03*
X119422417Y-84359928D03*
X121668141Y-105148767D03*
X128662212Y-104849711D03*
X122369567Y-94991788D03*
D33*
X127100887Y-102243275D03*
%TO.N,+3V3*%
X123829220Y-94224781D03*
D32*
X124353600Y-107455075D03*
X127283757Y-100650050D03*
X122835196Y-105509307D03*
X122433975Y-94043291D03*
X125188610Y-104489751D03*
%TO.N,+1V1*%
X122368686Y-104874275D03*
X124193596Y-97917311D03*
D33*
X122160260Y-100195064D03*
%TO.N,GPI09*%
X120257157Y-104166981D03*
D32*
X116265192Y-106335942D03*
%TO.N,GPI00*%
X118331319Y-100493275D03*
X117352595Y-95213047D03*
D33*
%TO.N,GPI08*%
X120648210Y-104627622D03*
D32*
X116781885Y-105759787D03*
%TO.N,GPI024*%
X127951712Y-102437254D03*
%TO.N,GPIO26_ADC0*%
X125191679Y-103170144D03*
%TO.N,GPIO29_ADC3*%
X124064222Y-100580075D03*
X125635618Y-84332346D03*
%TO.N,GPIO27_ADC1*%
X124960118Y-101711072D03*
%TO.N,GPIO28_ADC2*%
X124691517Y-101008247D03*
%TO.N,RUN*%
X124563580Y-105017834D03*
%TO.N,SWD*%
X124078125Y-119206849D03*
X123825000Y-104874277D03*
%TO.N,Net-(R7-Pad1)*%
X120606208Y-93080149D03*
X122275663Y-92274526D03*
%TD*%
D34*
%TO.N,GND*%
X121668141Y-105148767D02*
X121668141Y-106225609D01*
X121397696Y-110569176D02*
X120192095Y-110569176D01*
X127861612Y-104049112D02*
X127727675Y-104049112D01*
X117026715Y-103842990D02*
X117018543Y-103834818D01*
X124492406Y-102821875D02*
X124554905Y-102759376D01*
X127333924Y-101660217D02*
X128229028Y-101660217D01*
X122634375Y-102821875D02*
X124492406Y-102821875D01*
X128662212Y-104849711D02*
X127861612Y-104049112D01*
X126186160Y-110917667D02*
X126186160Y-110428119D01*
X120504982Y-87800691D02*
X120465854Y-87839819D01*
X124048653Y-109002190D02*
X123024933Y-107978470D01*
X124278253Y-109002190D02*
X125831258Y-110555195D01*
X122614474Y-84771288D02*
X122074874Y-85310888D01*
X122086396Y-87364100D02*
X122625996Y-86824500D01*
X121668141Y-106225609D02*
X121634375Y-106259375D01*
X125831258Y-110555195D02*
X125831258Y-111149143D01*
X127250394Y-97519914D02*
X126204294Y-97519914D01*
X125831258Y-111149143D02*
X125581625Y-111398776D01*
X126799375Y-78951875D02*
X125884375Y-79866875D01*
X119422417Y-84359928D02*
X118881524Y-84359928D01*
X127339951Y-101654190D02*
X127333924Y-101660217D01*
X120504982Y-86928218D02*
X120504982Y-87800691D01*
X126186160Y-110428119D02*
X126150978Y-110392937D01*
X127100887Y-101893254D02*
X127333924Y-101660217D01*
X118881524Y-84359928D02*
X118598573Y-84076977D01*
X122086396Y-87364100D02*
X122086396Y-87784279D01*
X125134502Y-82771738D02*
X125134502Y-82562662D01*
X118277078Y-97702855D02*
X118463837Y-97889614D01*
X125291658Y-111812169D02*
X126186160Y-110917667D01*
X117026715Y-104887157D02*
X117026715Y-103842990D01*
X121668141Y-103788109D02*
X122634375Y-102821875D01*
X126954375Y-78951875D02*
X126799375Y-78951875D01*
X121668141Y-105148767D02*
X121668141Y-103788109D01*
X116166260Y-104396608D02*
X116536166Y-104396608D01*
X122227296Y-111398776D02*
X121397696Y-110569176D01*
X121857862Y-85310888D02*
X121443750Y-85725000D01*
X116536166Y-104396608D02*
X117026715Y-104887157D01*
X128229028Y-101660217D02*
X128898081Y-100991164D01*
X125134502Y-82562662D02*
X125995937Y-81701227D01*
X128898081Y-100991164D02*
X128898081Y-99167601D01*
X124048653Y-109002190D02*
X124278253Y-109002190D01*
X123024933Y-107978470D02*
X123024933Y-107923407D01*
X120192095Y-110569176D02*
X119766202Y-110995069D01*
X128358481Y-101654190D02*
X127339951Y-101654190D01*
X128898081Y-99167601D02*
X127250394Y-97519914D01*
X126204294Y-97519914D02*
X126202721Y-97518341D01*
X125581625Y-111398776D02*
X122227296Y-111398776D01*
X122086396Y-87784279D02*
X121764425Y-88106250D01*
X121767343Y-81693889D02*
X122614474Y-82541020D01*
X118277078Y-97693214D02*
X118277078Y-97702855D01*
X122614474Y-82541020D02*
X122614474Y-84771288D01*
X127100887Y-102243275D02*
X127100887Y-101893254D01*
X122625996Y-85862010D02*
X122074874Y-85310888D01*
X122074874Y-85310888D02*
X121857862Y-85310888D01*
X126150978Y-110392937D02*
X126150978Y-109013582D01*
X122625996Y-86824500D02*
X122625996Y-85862010D01*
%TO.N,+3V3*%
X120498573Y-85776809D02*
X120504982Y-85783218D01*
X121127078Y-96193214D02*
X121127078Y-95148145D01*
X123829220Y-94586911D02*
X125116904Y-95874595D01*
X124834375Y-99384375D02*
X125252622Y-98966128D01*
X121821239Y-94453984D02*
X121821239Y-93048447D01*
X119634375Y-103821875D02*
X119196875Y-103821875D01*
X119447277Y-85795224D02*
X118401868Y-85795224D01*
X126204294Y-98479914D02*
X126202721Y-98478341D01*
X122835196Y-105509307D02*
X122835196Y-106258554D01*
X118373753Y-85823339D02*
X117458157Y-85823339D01*
X122834375Y-99384375D02*
X122834375Y-100312502D01*
X121385119Y-94890104D02*
X121821239Y-94453984D01*
X126071875Y-100221875D02*
X126855582Y-100221875D01*
X123807275Y-107232275D02*
X123337309Y-107232275D01*
X121403325Y-92630533D02*
X121235825Y-92630533D01*
X122904775Y-106764075D02*
X122904775Y-106329775D01*
X122834375Y-99384375D02*
X123234375Y-99384375D01*
X120504982Y-85783218D02*
X119459283Y-85783218D01*
X121127078Y-95148145D02*
X121385119Y-94890104D01*
X124048653Y-108042190D02*
X124048653Y-107473653D01*
X119459283Y-85783218D02*
X119447277Y-85795224D01*
X127333924Y-98563444D02*
X127250394Y-98479914D01*
X127333924Y-100700217D02*
X128352454Y-100700217D01*
X125032978Y-97950811D02*
X125116904Y-97866885D01*
X122573213Y-100573664D02*
X120351331Y-100573664D01*
X122928575Y-106787875D02*
X122904775Y-106764075D01*
X123463975Y-100051475D02*
X124604775Y-100051475D01*
X126274051Y-95874595D02*
X126310212Y-95838434D01*
X126001475Y-103892275D02*
X125567175Y-103892275D01*
X123234375Y-99384375D02*
X123234375Y-99821875D01*
X126202721Y-98478341D02*
X125099994Y-98478341D01*
X121821239Y-94453984D02*
X122023282Y-94453984D01*
X127250394Y-98479914D02*
X126204294Y-98479914D01*
X123337309Y-107232275D02*
X122928575Y-106823541D01*
X124604775Y-100051475D02*
X124834375Y-99821875D01*
X119967398Y-100221875D02*
X119196875Y-100221875D01*
X125032978Y-98360521D02*
X125032978Y-97950811D01*
X121235825Y-86514061D02*
X120504982Y-85783218D01*
X126855582Y-100221875D02*
X127333924Y-100700217D01*
X126071875Y-103821875D02*
X126001475Y-103892275D01*
X120498573Y-84076977D02*
X121145713Y-84076977D01*
X125234375Y-99384375D02*
X124834375Y-99384375D01*
X117458157Y-85823339D02*
X120338015Y-85823339D01*
X117458157Y-85823339D02*
X117365218Y-85916278D01*
X122834375Y-100312502D02*
X122573213Y-100573664D01*
X122023282Y-94453984D02*
X122433975Y-94043291D01*
X122835196Y-106258554D02*
X122834375Y-106259375D01*
X124834375Y-99821875D02*
X124834375Y-99384375D01*
X125099994Y-98478341D02*
X125007576Y-98385923D01*
X124353600Y-107737243D02*
X124048653Y-108042190D01*
X120351331Y-100573664D02*
X120335259Y-100589736D01*
X125404775Y-104054675D02*
X125404775Y-104273586D01*
X120918776Y-86404100D02*
X122086396Y-86404100D01*
X125252622Y-98966128D02*
X125252622Y-98630969D01*
X123234375Y-99821875D02*
X123463975Y-100051475D01*
X118401868Y-85795224D02*
X118373753Y-85823339D01*
X125567175Y-103892275D02*
X125404775Y-104054675D01*
X127333924Y-100700217D02*
X127333924Y-98563444D01*
X124048653Y-107473653D02*
X123807275Y-107232275D01*
X121235825Y-92630533D02*
X121235825Y-86514061D01*
X119183932Y-103834818D02*
X119196875Y-103821875D01*
X127333924Y-100700217D02*
X127283757Y-100650050D01*
X117986715Y-103842990D02*
X117978543Y-103834818D01*
X120335259Y-100589736D02*
X120335259Y-103120991D01*
X124353600Y-107455075D02*
X124353600Y-107737243D01*
X125116904Y-97866885D02*
X125116904Y-95874595D01*
X128352454Y-100700217D02*
X128358481Y-100694190D01*
X120335259Y-100589736D02*
X119967398Y-100221875D01*
X122904775Y-106329775D02*
X122834375Y-106259375D01*
X120498573Y-84076977D02*
X120498573Y-85776809D01*
X121145713Y-84076977D02*
X121419624Y-84350888D01*
X123829220Y-94224781D02*
X123829220Y-94586911D01*
X126071875Y-100221875D02*
X125234375Y-99384375D01*
X120338015Y-85823339D02*
X120918776Y-86404100D01*
X125252622Y-98630969D02*
X125007576Y-98385923D01*
X117978543Y-103834818D02*
X119183932Y-103834818D01*
X120335259Y-103120991D02*
X119634375Y-103821875D01*
X121419624Y-84350888D02*
X122074874Y-84350888D01*
X122928575Y-106823541D02*
X122928575Y-106787875D01*
X117986715Y-104887157D02*
X117986715Y-103842990D01*
X121821239Y-93048447D02*
X121403325Y-92630533D01*
X125404775Y-104273586D02*
X125188610Y-104489751D01*
X125007576Y-98385923D02*
X125032978Y-98360521D01*
X125116904Y-95874595D02*
X126274051Y-95874595D01*
%TO.N,+1V1*%
X123304775Y-105754675D02*
X123369639Y-105689811D01*
X123091655Y-104651475D02*
X122429457Y-104651475D01*
X122429457Y-104813504D02*
X122368686Y-104874275D01*
X123463975Y-106926475D02*
X123234375Y-106696875D01*
X126150978Y-108053582D02*
X125092366Y-108053582D01*
X123234375Y-106259375D02*
X123304775Y-106188975D01*
X123184817Y-104744637D02*
X123091655Y-104651475D01*
X122369567Y-95951788D02*
X122434375Y-96016596D01*
X124193596Y-97917311D02*
X124434375Y-98158090D01*
X122434375Y-99920949D02*
X122434375Y-99384375D01*
X123369639Y-105689811D02*
X123369639Y-105167884D01*
X123369639Y-105167884D02*
X123184817Y-104983062D01*
X125091290Y-108052506D02*
X125300897Y-107842899D01*
X125300897Y-107595863D02*
X124631509Y-106926475D01*
X124631509Y-106926475D02*
X123463975Y-106926475D01*
X123304775Y-106188975D02*
X123304775Y-105754675D01*
X124434375Y-98158090D02*
X124434375Y-99384375D01*
X125300897Y-107842899D02*
X125300897Y-107595863D01*
X122429457Y-104651475D02*
X122429457Y-104813504D01*
X123234375Y-106696875D02*
X123234375Y-106259375D01*
X125092366Y-108053582D02*
X125091290Y-108052506D01*
X122160260Y-100195064D02*
X122434375Y-99920949D01*
X122434375Y-96016596D02*
X122434375Y-99384375D01*
X123184817Y-104983062D02*
X123184817Y-104744637D01*
D35*
%TO.N,VBUS*%
X119548573Y-82201977D02*
X119548573Y-81464478D01*
X125084375Y-79185075D02*
X124254737Y-78355437D01*
X128587500Y-78934218D02*
X128587500Y-77628750D01*
X120770813Y-78355437D02*
X120184375Y-78941875D01*
X125035937Y-79915313D02*
X125084375Y-79866875D01*
X125084375Y-79866875D02*
X125084375Y-80598675D01*
X126559218Y-80962500D02*
X128587500Y-78934218D01*
X125084375Y-79866875D02*
X125084375Y-79185075D01*
X125448200Y-80962500D02*
X126559218Y-80962500D01*
X125035937Y-81701227D02*
X125035937Y-79915313D01*
X128587500Y-77628750D02*
X131524375Y-74691875D01*
X120184375Y-78941875D02*
X120184375Y-79866875D01*
X120184375Y-80828676D02*
X120184375Y-79866875D01*
X119548573Y-81464478D02*
X120184375Y-80828676D01*
X124254737Y-78355437D02*
X120770813Y-78355437D01*
X120289554Y-79972054D02*
X120184375Y-79866875D01*
X125084375Y-80598675D02*
X125448200Y-80962500D01*
%TO.N,XIN*%
X121083589Y-111955069D02*
X121397696Y-112269176D01*
X121533312Y-108668667D02*
X122034375Y-108167604D01*
X121279458Y-109622333D02*
X121533312Y-109368479D01*
X122034375Y-108167604D02*
X122034375Y-106259375D01*
X119766202Y-111955069D02*
X121083589Y-111955069D01*
X119202802Y-110688235D02*
X120268704Y-109622333D01*
X119202802Y-111391669D02*
X119202802Y-110688235D01*
X119766202Y-111955069D02*
X119202802Y-111391669D01*
X121533312Y-109368479D02*
X121533312Y-108668667D01*
X120268704Y-109622333D02*
X121279458Y-109622333D01*
%TO.N,Net-(C16-Pad2)*%
X123597696Y-110569176D02*
X123597696Y-109539273D01*
X125008665Y-110569176D02*
X125291658Y-110852169D01*
X123597696Y-110569176D02*
X125008665Y-110569176D01*
X123597696Y-109539273D02*
X123076712Y-109018289D01*
%TO.N,Net-(J1-CC1)*%
X123884375Y-82541611D02*
X123884375Y-79866875D01*
X124114502Y-82771738D02*
X123884375Y-82541611D01*
%TO.N,USB_D-*%
X123433375Y-79915875D02*
X123384375Y-79866875D01*
X123433375Y-90642833D02*
X123433375Y-79915875D01*
X123384375Y-78941875D02*
X123330975Y-78888475D01*
X123426820Y-96078377D02*
X123426820Y-90649388D01*
X122437775Y-78888475D02*
X122384375Y-78941875D01*
X123384375Y-79866875D02*
X123384375Y-78941875D01*
X122384375Y-78941875D02*
X122384375Y-79866875D01*
X123426820Y-90649388D02*
X123433375Y-90642833D01*
X123523356Y-96174913D02*
X124055967Y-96174913D01*
X123426820Y-96078377D02*
X123523356Y-96174913D01*
X123330975Y-78888475D02*
X122437775Y-78888475D01*
%TO.N,Net-(J1-CC2)*%
X120884375Y-81556857D02*
X120884375Y-79866875D01*
X120747343Y-81693889D02*
X120884375Y-81556857D01*
%TO.N,USB_D+*%
X122835375Y-80892875D02*
X121933375Y-80892875D01*
X121933375Y-80892875D02*
X121884375Y-80843875D01*
X123025820Y-80985320D02*
X123025820Y-96943214D01*
X122884375Y-80843875D02*
X122835375Y-80892875D01*
X121884375Y-80843875D02*
X121884375Y-79866875D01*
X122884375Y-80843875D02*
X123025820Y-80985320D01*
X122884375Y-79866875D02*
X122884375Y-80843875D01*
D34*
%TO.N,GPI012*%
X116220199Y-112255222D02*
X116220199Y-111753269D01*
X120034303Y-107939165D02*
X120034303Y-107770558D01*
X120034375Y-107770486D02*
X120034375Y-106259375D01*
X113744375Y-112791875D02*
X115683546Y-112791875D01*
X115683546Y-112791875D02*
X116220199Y-112255222D01*
X116220199Y-111753269D02*
X120034303Y-107939165D01*
X120034303Y-107770558D02*
X120034375Y-107770486D01*
%TO.N,GPI09*%
X116265192Y-106165907D02*
X116265192Y-106335942D01*
X120257157Y-104166981D02*
X119802263Y-104621875D01*
X113744375Y-102631875D02*
X113744375Y-103645090D01*
X113744375Y-103645090D02*
X116265192Y-106165907D01*
X119802263Y-104621875D02*
X119196875Y-104621875D01*
%TO.N,GPI013*%
X113744375Y-115331875D02*
X118222482Y-110853768D01*
X120434375Y-107939960D02*
X120434375Y-106259375D01*
X118222482Y-110183453D02*
X120450175Y-107955760D01*
X120450175Y-107955760D02*
X120434375Y-107939960D01*
X118222482Y-110853768D02*
X118222482Y-110183453D01*
%TO.N,GPI010*%
X118762575Y-105021875D02*
X119196875Y-105021875D01*
X116072575Y-107711875D02*
X118762575Y-105021875D01*
X113744375Y-107711875D02*
X116072575Y-107711875D01*
%TO.N,GPI02*%
X117006461Y-101421875D02*
X119196875Y-101421875D01*
X116488392Y-89156991D02*
X116488392Y-90944464D01*
X116910268Y-99410435D02*
X116910268Y-101325682D01*
X116488392Y-90944464D02*
X116486825Y-90946031D01*
X116566501Y-95560475D02*
X116566499Y-96104137D01*
X116566499Y-96104137D02*
X116566499Y-99066665D01*
X116486825Y-95480799D02*
X116566501Y-95560475D01*
X115745588Y-88414187D02*
X116488392Y-89156991D01*
X116566499Y-99066665D02*
X116910268Y-99410435D01*
X113744375Y-82311875D02*
X115745588Y-84313088D01*
X116910268Y-101325682D02*
X117006461Y-101421875D01*
X116486825Y-90946031D02*
X116486825Y-95480799D01*
X115745588Y-84313088D02*
X115745588Y-88414187D01*
%TO.N,GPI07*%
X117315517Y-103295218D02*
X117315837Y-103295538D01*
X118402174Y-103421875D02*
X119196875Y-103421875D01*
X117681569Y-103295218D02*
X118275517Y-103295218D01*
X117681249Y-103295538D02*
X117681569Y-103295218D01*
X113744375Y-98406875D02*
X115362040Y-100024540D01*
X118275517Y-103295218D02*
X118402174Y-103421875D01*
X116211819Y-103297770D02*
X116719017Y-103297770D01*
X115362040Y-100024540D02*
X115362040Y-102447991D01*
X115362040Y-102447991D02*
X116211819Y-103297770D01*
X113744375Y-97551875D02*
X113744375Y-98406875D01*
X116719017Y-103297770D02*
X116721569Y-103295218D01*
X117315837Y-103295538D02*
X117681249Y-103295538D01*
X116721569Y-103295218D02*
X117315517Y-103295218D01*
%TO.N,GPI04*%
X116775756Y-102221875D02*
X119196875Y-102221875D01*
X115855577Y-89503077D02*
X115855577Y-96258144D01*
X115855577Y-96258144D02*
X115954898Y-96357466D01*
X115954898Y-96357466D02*
X115954898Y-99319998D01*
X116279440Y-101725559D02*
X116775756Y-102221875D01*
X115954898Y-99319998D02*
X116279441Y-99644542D01*
X116279441Y-99644542D02*
X116279440Y-101725559D01*
X113744375Y-87391875D02*
X115855577Y-89503077D01*
%TO.N,GPI00*%
X119196875Y-100621875D02*
X118459919Y-100621875D01*
X116376142Y-88179809D02*
X116616081Y-88419748D01*
X116616081Y-88419748D02*
X117149080Y-88952746D01*
X117149080Y-95009532D02*
X117352595Y-95213047D01*
X117149080Y-94548449D02*
X117149080Y-95009532D01*
X117149080Y-93399017D02*
X117149080Y-94548449D01*
X115899532Y-83400285D02*
X116376142Y-83876895D01*
X113744375Y-74691875D02*
X115691212Y-76638712D01*
X115691212Y-76638712D02*
X115691212Y-82069374D01*
X116376142Y-83876895D02*
X116376142Y-87642663D01*
X118459919Y-100621875D02*
X118331319Y-100493275D01*
X116376142Y-87642663D02*
X116376142Y-88179809D01*
X115691212Y-82069374D02*
X115691212Y-83191965D01*
X117149080Y-88952746D02*
X117149080Y-93399017D01*
X115691212Y-83191965D02*
X115899532Y-83400285D01*
%TO.N,GPI06*%
X116533839Y-102951475D02*
X119126475Y-102951475D01*
X113744375Y-95011875D02*
X115343298Y-96610798D01*
X115343298Y-96610798D02*
X115343298Y-99573332D01*
X115667840Y-102321325D02*
X116299435Y-102952920D01*
X115343298Y-99573332D02*
X115667840Y-99897874D01*
X116532394Y-102952920D02*
X116533839Y-102951475D01*
X115667840Y-99897874D02*
X115667840Y-102321325D01*
X119126475Y-102951475D02*
X119196875Y-103021875D01*
X116299435Y-102952920D02*
X116532394Y-102952920D01*
%TO.N,GPI015*%
X118873202Y-110551711D02*
X120132180Y-109292733D01*
X120132180Y-109292733D02*
X120132180Y-109291482D01*
X121115472Y-106815778D02*
X121234375Y-106696875D01*
X121115472Y-108308190D02*
X121115472Y-106815778D01*
X121234375Y-106696875D02*
X121234375Y-106259375D01*
X116331117Y-122951875D02*
X118873202Y-120409790D01*
X120132180Y-109291482D02*
X121115472Y-108308190D01*
X118873202Y-120409790D02*
X118873202Y-110551711D01*
X113744375Y-122951875D02*
X116331117Y-122951875D01*
%TO.N,GPI08*%
X115056240Y-104034142D02*
X116781885Y-105759787D01*
X120804775Y-104471057D02*
X120804775Y-103119710D01*
X120641059Y-102991763D02*
X120641059Y-103247657D01*
X119196875Y-104151475D02*
X119196875Y-104221875D01*
X119725375Y-104127675D02*
X119701575Y-104151475D01*
X113744375Y-100091875D02*
X115056240Y-101403740D01*
X120641059Y-103247657D02*
X119761041Y-104127675D01*
X115056240Y-101403740D02*
X115056240Y-104034142D01*
X120648210Y-104627622D02*
X120804775Y-104471057D01*
X119701575Y-104151475D02*
X119196875Y-104151475D01*
X119761041Y-104127675D02*
X119725375Y-104127675D01*
X120769006Y-103119710D02*
X120641059Y-102991763D01*
X120804775Y-103119710D02*
X120769006Y-103119710D01*
%TO.N,GPI05*%
X115973640Y-101901843D02*
X116693672Y-102621875D01*
X116693672Y-102621875D02*
X119196875Y-102621875D01*
X115649098Y-96484132D02*
X115649098Y-99446665D01*
X115289057Y-96124091D02*
X115649098Y-96484132D01*
X115649098Y-99446665D02*
X115973640Y-99771208D01*
X115289057Y-91476557D02*
X115289057Y-96124091D01*
X115973640Y-99771208D02*
X115973640Y-101901843D01*
X113744375Y-89931875D02*
X115289057Y-91476557D01*
%TO.N,GPI011*%
X119252344Y-108051230D02*
X119252344Y-105477344D01*
X119252344Y-105477344D02*
X119196875Y-105421875D01*
X117051699Y-110251875D02*
X119252344Y-108051230D01*
X113744375Y-110251875D02*
X117051699Y-110251875D01*
%TO.N,GPI03*%
X117086552Y-101819880D02*
X117088547Y-101821875D01*
X116585242Y-99517876D02*
X116585241Y-101598894D01*
X116260698Y-99193331D02*
X116585242Y-99517876D01*
X115399800Y-88614834D02*
X116181025Y-89396059D01*
X116585241Y-101598894D02*
X116806227Y-101819880D01*
X116806227Y-101819880D02*
X117086552Y-101819880D01*
X113744375Y-84851875D02*
X115399800Y-86507300D01*
X116260699Y-96230802D02*
X116260698Y-99193331D01*
X115399800Y-86507300D02*
X115399800Y-88614834D01*
X116181025Y-96151126D02*
X116260699Y-96230802D01*
X116181025Y-89396059D02*
X116181025Y-96151126D01*
X117088547Y-101821875D02*
X119196875Y-101821875D01*
%TO.N,GPI01*%
X116794192Y-89030325D02*
X116794192Y-94056833D01*
X117480748Y-101021875D02*
X119196875Y-101021875D01*
X116794192Y-94056833D02*
X116792625Y-94058400D01*
X116051388Y-88287521D02*
X116794192Y-89030325D01*
X116872301Y-95433809D02*
X116872299Y-98939999D01*
X115385412Y-78872912D02*
X115385412Y-83318631D01*
X116792625Y-95354133D02*
X116872301Y-95433809D01*
X117216068Y-100757195D02*
X117480748Y-101021875D01*
X117216069Y-99283769D02*
X117216068Y-100757195D01*
X113744375Y-77231875D02*
X115385412Y-78872912D01*
X116051388Y-83984607D02*
X116051388Y-88287521D01*
X116872299Y-98939999D02*
X117216069Y-99283769D01*
X115385412Y-83318631D02*
X116051388Y-83984607D01*
X116792625Y-94058400D02*
X116792625Y-95354133D01*
%TO.N,GPI014*%
X118726346Y-110112055D02*
X118724998Y-110112055D01*
X120834375Y-106259375D02*
X120809672Y-106284078D01*
X118528282Y-110308771D02*
X118528282Y-118224296D01*
X114657285Y-119498965D02*
X113744375Y-120411875D01*
X118724998Y-110112055D02*
X118528282Y-110308771D01*
X120809672Y-106284078D02*
X120809672Y-108028729D01*
X118528282Y-118224296D02*
X117253613Y-119498965D01*
X120809672Y-108028729D02*
X118726346Y-110112055D01*
X117253613Y-119498965D02*
X114657285Y-119498965D01*
%TO.N,GPI021*%
X131524375Y-107711875D02*
X129770275Y-107711875D01*
X128929834Y-106871434D02*
X128929834Y-106510145D01*
X126641564Y-104221875D02*
X126071875Y-104221875D01*
X129770275Y-107711875D02*
X128929834Y-106871434D01*
X128929834Y-106510145D02*
X126641564Y-104221875D01*
%TO.N,GPI024*%
X127951712Y-102437254D02*
X127767091Y-102621875D01*
X127767091Y-102621875D02*
X126071875Y-102621875D01*
%TO.N,GPIO26_ADC0*%
X125596870Y-101821875D02*
X126071875Y-101821875D01*
X125191679Y-103170144D02*
X125078567Y-103057032D01*
X125078567Y-103057032D02*
X125078567Y-102340178D01*
X125078567Y-102340178D02*
X125596870Y-101821875D01*
%TO.N,GPIO29_ADC3*%
X124064222Y-100580075D02*
X124287022Y-100357275D01*
X124777201Y-100357275D02*
X124777954Y-100358028D01*
X126774685Y-82115234D02*
X125635618Y-83254301D01*
X128971456Y-77823395D02*
X128971456Y-79084504D01*
X125263169Y-100621875D02*
X126071875Y-100621875D01*
X129562976Y-77231875D02*
X128971456Y-77823395D01*
X124287022Y-100357275D02*
X124777201Y-100357275D01*
X131524375Y-77231875D02*
X129562976Y-77231875D01*
X128971456Y-79084504D02*
X126774685Y-81281275D01*
X124777954Y-100358028D02*
X124999322Y-100358028D01*
X125635618Y-83254301D02*
X125635618Y-84332346D01*
X124999322Y-100358028D02*
X125263169Y-100621875D01*
X126774685Y-81281275D02*
X126774685Y-82115234D01*
%TO.N,GPI022*%
X130734375Y-103421875D02*
X126071875Y-103421875D01*
X131524375Y-102631875D02*
X130734375Y-103421875D01*
%TO.N,GPIO27_ADC1*%
X126056021Y-101437729D02*
X126071875Y-101421875D01*
X125233461Y-101437729D02*
X126056021Y-101437729D01*
X124960118Y-101711072D02*
X125233461Y-101437729D01*
%TO.N,GPI017*%
X127175660Y-118153665D02*
X127175660Y-107494309D01*
X127175660Y-107494309D02*
X125940726Y-106259375D01*
X125940726Y-106259375D02*
X125234375Y-106259375D01*
X131524375Y-120411875D02*
X129433870Y-120411875D01*
X129433870Y-120411875D02*
X127175660Y-118153665D01*
%TO.N,GPI020*%
X128112888Y-106840388D02*
X128112888Y-106125666D01*
X131524375Y-110251875D02*
X128112888Y-106840388D01*
X126609097Y-104621875D02*
X126071875Y-104621875D01*
X128112888Y-106125666D02*
X126609097Y-104621875D01*
%TO.N,GPI016*%
X125625901Y-107488401D02*
X124834375Y-106696875D01*
X126737286Y-107488401D02*
X125625901Y-107488401D01*
X126869860Y-118297360D02*
X126869860Y-107620975D01*
X131524375Y-122951875D02*
X126869860Y-118297360D01*
X126869860Y-107620975D02*
X126737286Y-107488401D01*
X124834375Y-106696875D02*
X124834375Y-106259375D01*
%TO.N,GPI023*%
X131524375Y-97551875D02*
X130054022Y-99022228D01*
X129381700Y-103021875D02*
X126071875Y-103021875D01*
X130054022Y-102349553D02*
X129381700Y-103021875D01*
X130054022Y-99022228D02*
X130054022Y-102349553D01*
%TO.N,GPIO28_ADC2*%
X124691517Y-101008247D02*
X126058247Y-101008247D01*
X126058247Y-101008247D02*
X126071875Y-101021875D01*
%TO.N,GPI018*%
X128226033Y-115331875D02*
X127481460Y-114587302D01*
X127481460Y-114587302D02*
X127481460Y-106831460D01*
X131524375Y-115331875D02*
X128226033Y-115331875D01*
X127481460Y-106831460D02*
X126071875Y-105421875D01*
%TO.N,RUN*%
X124434375Y-105147039D02*
X124434375Y-106259375D01*
X124563580Y-105017834D02*
X124434375Y-105147039D01*
%TO.N,GPI019*%
X131524375Y-112791875D02*
X127801001Y-109068501D01*
X126509375Y-105021875D02*
X126071875Y-105021875D01*
X127801001Y-106313501D02*
X126509375Y-105021875D01*
X127801001Y-109068501D02*
X127801001Y-106313501D01*
%TO.N,SWD*%
X124078125Y-121615625D02*
X124078125Y-119206849D01*
X124034375Y-105083652D02*
X124034375Y-106259375D01*
X125174375Y-122711875D02*
X124078125Y-121615625D01*
X123825000Y-104874277D02*
X124034375Y-105083652D01*
D35*
%TO.N,Net-(U1-USB_DP)*%
X123025820Y-97963214D02*
X123634375Y-98571769D01*
X123634375Y-98571769D02*
X123634375Y-99384375D01*
D34*
%TO.N,Net-(U1-USB_DM)*%
X123963975Y-99313975D02*
X123963975Y-98435244D01*
X123589223Y-98060493D02*
X123589223Y-97661657D01*
X123589223Y-97661657D02*
X124055967Y-97194913D01*
X124034375Y-99384375D02*
X123963975Y-99313975D01*
X123963975Y-98435244D02*
X123589223Y-98060493D01*
D35*
%TO.N,XOUT*%
X122056712Y-109018289D02*
X122285396Y-109018289D01*
X122285396Y-109018289D02*
X122434375Y-108869310D01*
X122434375Y-108869310D02*
X122434375Y-106259375D01*
D34*
%TO.N,QSPI_SS*%
X119062009Y-96193214D02*
X120365119Y-94890104D01*
X118670949Y-99384375D02*
X120034375Y-99384375D01*
D35*
X120301639Y-93829353D02*
X120301639Y-94826624D01*
D34*
X117291678Y-98005104D02*
X118670949Y-99384375D01*
D35*
X120365119Y-94890104D02*
X120365119Y-95117126D01*
X120301639Y-94826624D02*
X120365119Y-94890104D01*
D34*
X118277078Y-96193214D02*
X117894613Y-96193214D01*
X118277078Y-96193214D02*
X119062009Y-96193214D01*
X117291678Y-96796149D02*
X117291678Y-98005104D01*
X117894613Y-96193214D02*
X117291678Y-96796149D01*
D35*
X120394994Y-94860229D02*
X120365119Y-94890104D01*
D34*
%TO.N,Net-(R7-Pad1)*%
X121321639Y-93829353D02*
X121321639Y-93825045D01*
X120598631Y-93102037D02*
X120606208Y-93094460D01*
X122275663Y-92274526D02*
X122275663Y-90827166D01*
X120606208Y-93094460D02*
X120606208Y-93080149D01*
X122275663Y-90827166D02*
X122222608Y-90774111D01*
X121321639Y-93825045D02*
X120598631Y-93102037D01*
%TO.N,QSPI_SD3*%
X121577077Y-96693214D02*
X122112478Y-97228615D01*
X121127078Y-96693214D02*
X121577077Y-96693214D01*
X122034375Y-98982541D02*
X122034375Y-99384375D01*
X122112478Y-98904438D02*
X122034375Y-98982541D01*
X122112478Y-97228615D02*
X122112478Y-98904438D01*
%TO.N,QSPI_SCLK*%
X121127078Y-97193214D02*
X121577077Y-97193214D01*
X121806678Y-98777772D02*
X121634375Y-98950075D01*
X121806678Y-97422815D02*
X121806678Y-98777772D01*
X121577077Y-97193214D02*
X121806678Y-97422815D01*
X121634375Y-98950075D02*
X121634375Y-99384375D01*
%TO.N,QSPI_SD2*%
X120188240Y-98112414D02*
X120192258Y-98108396D01*
X118277078Y-97193214D02*
X118706538Y-97193214D01*
X120192258Y-98108396D02*
X120373062Y-98108396D01*
X118706538Y-97193214D02*
X119625738Y-98112414D01*
X120834375Y-98569709D02*
X120834375Y-99384375D01*
X120373062Y-98108396D02*
X120834375Y-98569709D01*
X119625738Y-98112414D02*
X120188240Y-98112414D01*
%TO.N,QSPI_SD1*%
X118277078Y-96693214D02*
X117827079Y-96693214D01*
X120099110Y-98418214D02*
X120434375Y-98753479D01*
X118137254Y-98418214D02*
X120099110Y-98418214D01*
X117827079Y-96693214D02*
X117597478Y-96922815D01*
X117597478Y-97878438D02*
X118137254Y-98418214D01*
X120434375Y-98753479D02*
X120434375Y-99384375D01*
X117597478Y-96922815D02*
X117597478Y-97878438D01*
%TO.N,QSPI_SD0*%
X121234375Y-97800511D02*
X121234375Y-99384375D01*
X121127078Y-97693214D02*
X121234375Y-97800511D01*
%TD*%
%TA.AperFunction,Conductor*%
%TO.N,GND*%
G36*
X127680674Y-115369476D02*
G01*
X127694007Y-115367560D01*
X127714150Y-115376759D01*
X127735787Y-115381466D01*
X127753512Y-115394734D01*
X127757563Y-115396585D01*
X127764041Y-115402617D01*
X127920257Y-115558833D01*
X127920267Y-115558844D01*
X127924597Y-115563174D01*
X127924598Y-115563175D01*
X127994733Y-115633310D01*
X128080632Y-115682904D01*
X128176439Y-115708575D01*
X128176440Y-115708575D01*
X128275626Y-115708575D01*
X130349088Y-115708575D01*
X130416127Y-115728260D01*
X130459573Y-115776280D01*
X130540381Y-115934872D01*
X130646816Y-116081369D01*
X130646820Y-116081374D01*
X130774875Y-116209429D01*
X130774880Y-116209433D01*
X130902662Y-116302271D01*
X130921381Y-116315871D01*
X131026859Y-116369615D01*
X131082735Y-116398086D01*
X131082738Y-116398087D01*
X131168851Y-116426066D01*
X131254966Y-116454046D01*
X131374413Y-116472964D01*
X131416654Y-116479655D01*
X131479789Y-116509584D01*
X131516720Y-116568896D01*
X131515722Y-116638758D01*
X131477112Y-116696991D01*
X131416654Y-116724601D01*
X131255081Y-116750192D01*
X131082930Y-116806126D01*
X131082922Y-116806129D01*
X130921644Y-116888307D01*
X130905841Y-116899787D01*
X130905841Y-116899788D01*
X131394966Y-117388912D01*
X131331382Y-117405950D01*
X131217368Y-117471776D01*
X131124276Y-117564868D01*
X131058450Y-117678882D01*
X131041412Y-117742465D01*
X130552287Y-117253341D01*
X130540807Y-117269144D01*
X130458629Y-117430422D01*
X130458626Y-117430430D01*
X130402692Y-117602581D01*
X130374375Y-117781368D01*
X130374375Y-117962381D01*
X130402692Y-118141168D01*
X130458626Y-118313319D01*
X130458627Y-118313322D01*
X130540806Y-118474605D01*
X130552288Y-118490407D01*
X130552288Y-118490408D01*
X131041412Y-118001284D01*
X131058450Y-118064868D01*
X131124276Y-118178882D01*
X131217368Y-118271974D01*
X131331382Y-118337800D01*
X131394965Y-118354837D01*
X130905841Y-118843960D01*
X130905841Y-118843961D01*
X130921642Y-118855441D01*
X130921650Y-118855446D01*
X131082927Y-118937622D01*
X131082930Y-118937623D01*
X131255081Y-118993557D01*
X131416654Y-119019148D01*
X131479788Y-119049077D01*
X131516720Y-119108388D01*
X131515722Y-119178251D01*
X131477113Y-119236484D01*
X131416655Y-119264094D01*
X131254964Y-119289704D01*
X131082738Y-119345662D01*
X131082735Y-119345663D01*
X130921377Y-119427881D01*
X130774880Y-119534316D01*
X130774875Y-119534320D01*
X130646820Y-119662375D01*
X130646816Y-119662380D01*
X130540381Y-119808877D01*
X130459573Y-119967470D01*
X130411598Y-120018266D01*
X130349088Y-120035175D01*
X129641266Y-120035175D01*
X129574227Y-120015490D01*
X129553585Y-119998856D01*
X127588679Y-118033950D01*
X127573975Y-118007022D01*
X127557383Y-117981204D01*
X127556491Y-117975003D01*
X127555194Y-117972627D01*
X127552360Y-117946269D01*
X127552360Y-115490298D01*
X127558598Y-115469052D01*
X127560178Y-115446964D01*
X127568250Y-115436180D01*
X127572045Y-115423259D01*
X127588778Y-115408759D01*
X127602050Y-115391031D01*
X127614670Y-115386323D01*
X127624849Y-115377504D01*
X127646766Y-115374352D01*
X127667514Y-115366614D01*
X127680674Y-115369476D01*
G37*
%TD.AperFunction*%
%TA.AperFunction,Conductor*%
G36*
X118070916Y-111640581D02*
G01*
X118126849Y-111682453D01*
X118151266Y-111747917D01*
X118151582Y-111756763D01*
X118151582Y-118016900D01*
X118131897Y-118083939D01*
X118115263Y-118104581D01*
X117133898Y-119085946D01*
X117072575Y-119119431D01*
X117046217Y-119122265D01*
X114714490Y-119122265D01*
X114714474Y-119122264D01*
X114706878Y-119122264D01*
X114607692Y-119122264D01*
X114550207Y-119137667D01*
X114511882Y-119147936D01*
X114511881Y-119147937D01*
X114425989Y-119197526D01*
X114425986Y-119197529D01*
X114309058Y-119314455D01*
X114247737Y-119347939D01*
X114183062Y-119344704D01*
X114013786Y-119289704D01*
X114013787Y-119289704D01*
X113852095Y-119264094D01*
X113788960Y-119234164D01*
X113752029Y-119174853D01*
X113753027Y-119104990D01*
X113791637Y-119046758D01*
X113852096Y-119019148D01*
X114013667Y-118993558D01*
X114185819Y-118937623D01*
X114185827Y-118937620D01*
X114347105Y-118855443D01*
X114362907Y-118843960D01*
X114362908Y-118843960D01*
X113873785Y-118354837D01*
X113937368Y-118337800D01*
X114051382Y-118271974D01*
X114144474Y-118178882D01*
X114210300Y-118064868D01*
X114227337Y-118001285D01*
X114716460Y-118490408D01*
X114716460Y-118490407D01*
X114727943Y-118474605D01*
X114810120Y-118313327D01*
X114810123Y-118313319D01*
X114866057Y-118141168D01*
X114894375Y-117962381D01*
X114894375Y-117781368D01*
X114866057Y-117602581D01*
X114810123Y-117430430D01*
X114810122Y-117430427D01*
X114727946Y-117269150D01*
X114727941Y-117269142D01*
X114716460Y-117253341D01*
X114227337Y-117742464D01*
X114210300Y-117678882D01*
X114144474Y-117564868D01*
X114051382Y-117471776D01*
X113937368Y-117405950D01*
X113873784Y-117388912D01*
X114362908Y-116899788D01*
X114347105Y-116888306D01*
X114185822Y-116806127D01*
X114185819Y-116806126D01*
X114013668Y-116750192D01*
X113852095Y-116724601D01*
X113788960Y-116694672D01*
X113752029Y-116635360D01*
X113753027Y-116565498D01*
X113791637Y-116507265D01*
X113852095Y-116479655D01*
X113866645Y-116477350D01*
X114013784Y-116454046D01*
X114186014Y-116398086D01*
X114347369Y-116315871D01*
X114493876Y-116209428D01*
X114621928Y-116081376D01*
X114728371Y-115934869D01*
X114810586Y-115773514D01*
X114866546Y-115601284D01*
X114881140Y-115509134D01*
X114894875Y-115422426D01*
X114894875Y-115241323D01*
X114866545Y-115062462D01*
X114811545Y-114893185D01*
X114809550Y-114823344D01*
X114841793Y-114767189D01*
X117939903Y-111669080D01*
X118001224Y-111635597D01*
X118070916Y-111640581D01*
G37*
%TD.AperFunction*%
%TA.AperFunction,Conductor*%
G36*
X122558870Y-111001106D02*
G01*
X122607347Y-111051423D01*
X122612775Y-111063308D01*
X122638850Y-111129428D01*
X122663335Y-111191519D01*
X122751035Y-111307168D01*
X122754774Y-111312098D01*
X122766097Y-111320684D01*
X122807620Y-111376874D01*
X122812174Y-111446596D01*
X122778311Y-111507711D01*
X122766102Y-111518290D01*
X122755133Y-111526608D01*
X122663774Y-111647082D01*
X122613318Y-111775029D01*
X122570412Y-111830172D01*
X122504504Y-111853365D01*
X122436520Y-111837244D01*
X122388044Y-111786927D01*
X122382616Y-111775044D01*
X122332057Y-111646834D01*
X122332057Y-111646833D01*
X122240617Y-111526252D01*
X122229295Y-111517667D01*
X122187770Y-111461476D01*
X122183217Y-111391754D01*
X122217081Y-111330640D01*
X122229296Y-111320056D01*
X122240259Y-111311742D01*
X122331616Y-111191271D01*
X122382072Y-111063323D01*
X122424978Y-111008179D01*
X122490886Y-110984986D01*
X122558870Y-111001106D01*
G37*
%TD.AperFunction*%
%TA.AperFunction,Conductor*%
G36*
X118633294Y-105777566D02*
G01*
X118642423Y-105780398D01*
X118707982Y-105812448D01*
X118776115Y-105822375D01*
X118777712Y-105822375D01*
X118788390Y-105825688D01*
X118846585Y-105864354D01*
X118874637Y-105928345D01*
X118875644Y-105944118D01*
X118875644Y-107843834D01*
X118855959Y-107910873D01*
X118839325Y-107931515D01*
X116931984Y-109838856D01*
X116870661Y-109872341D01*
X116844303Y-109875175D01*
X114919662Y-109875175D01*
X114852623Y-109855490D01*
X114809177Y-109807470D01*
X114786806Y-109763565D01*
X114728371Y-109648881D01*
X114685387Y-109589718D01*
X114621933Y-109502380D01*
X114621929Y-109502375D01*
X114493874Y-109374320D01*
X114493869Y-109374316D01*
X114347372Y-109267881D01*
X114347371Y-109267880D01*
X114347369Y-109267879D01*
X114273858Y-109230423D01*
X114186014Y-109185663D01*
X114186011Y-109185662D01*
X114013785Y-109129704D01*
X113853696Y-109104348D01*
X113790561Y-109074419D01*
X113753630Y-109015107D01*
X113754628Y-108945245D01*
X113793238Y-108887012D01*
X113853696Y-108859402D01*
X113923800Y-108848297D01*
X114013784Y-108834046D01*
X114186014Y-108778086D01*
X114347369Y-108695871D01*
X114493876Y-108589428D01*
X114621928Y-108461376D01*
X114728371Y-108314869D01*
X114809177Y-108156280D01*
X114857152Y-108105484D01*
X114919662Y-108088575D01*
X116015370Y-108088575D01*
X116015386Y-108088576D01*
X116022982Y-108088576D01*
X116122165Y-108088576D01*
X116122168Y-108088576D01*
X116217976Y-108062904D01*
X116230670Y-108055575D01*
X116303875Y-108013310D01*
X116374010Y-107943175D01*
X116374010Y-107943173D01*
X116384214Y-107932970D01*
X116384218Y-107932965D01*
X118508869Y-105808313D01*
X118521509Y-105801411D01*
X118531108Y-105790670D01*
X118551562Y-105785001D01*
X118570190Y-105774830D01*
X118584557Y-105775857D01*
X118598440Y-105772010D01*
X118633294Y-105777566D01*
G37*
%TD.AperFunction*%
%TA.AperFunction,Conductor*%
G36*
X115011307Y-105454130D02*
G01*
X115044277Y-105477726D01*
X115351551Y-105785001D01*
X115647615Y-106081065D01*
X115681100Y-106142388D01*
X115679709Y-106200838D01*
X115664692Y-106256883D01*
X115664692Y-106256885D01*
X115664692Y-106414999D01*
X115703914Y-106561375D01*
X115705615Y-106567725D01*
X115705618Y-106567732D01*
X115784667Y-106704651D01*
X115784671Y-106704656D01*
X115784672Y-106704658D01*
X115896476Y-106816462D01*
X115896478Y-106816463D01*
X115896482Y-106816466D01*
X116020743Y-106888207D01*
X116033408Y-106895519D01*
X116080528Y-106908144D01*
X116140188Y-106944509D01*
X116170717Y-107007356D01*
X116162422Y-107076731D01*
X116136115Y-107115600D01*
X115952860Y-107298856D01*
X115891537Y-107332341D01*
X115865179Y-107335175D01*
X114919662Y-107335175D01*
X114852623Y-107315490D01*
X114809177Y-107267470D01*
X114787333Y-107224600D01*
X114728371Y-107108881D01*
X114699326Y-107068904D01*
X114621933Y-106962380D01*
X114621929Y-106962375D01*
X114493874Y-106834320D01*
X114493869Y-106834316D01*
X114347372Y-106727881D01*
X114347371Y-106727880D01*
X114347369Y-106727879D01*
X114273805Y-106690396D01*
X114186014Y-106645663D01*
X114186011Y-106645662D01*
X114013785Y-106589704D01*
X113853696Y-106564348D01*
X113790561Y-106534419D01*
X113753630Y-106475107D01*
X113754628Y-106405245D01*
X113793238Y-106347012D01*
X113853696Y-106319402D01*
X113923800Y-106308297D01*
X114013784Y-106294046D01*
X114186014Y-106238086D01*
X114347369Y-106155871D01*
X114493876Y-106049428D01*
X114621928Y-105921376D01*
X114728371Y-105774869D01*
X114810586Y-105613514D01*
X114838666Y-105527090D01*
X114878102Y-105469415D01*
X114942461Y-105442216D01*
X115011307Y-105454130D01*
G37*
%TD.AperFunction*%
%TA.AperFunction,Conductor*%
G36*
X123322837Y-100403646D02*
G01*
X123371818Y-100416770D01*
X123431476Y-100453134D01*
X123462005Y-100515981D01*
X123463722Y-100536544D01*
X123463722Y-100659132D01*
X123504597Y-100811677D01*
X123504645Y-100811858D01*
X123504648Y-100811865D01*
X123583697Y-100948784D01*
X123583701Y-100948789D01*
X123583702Y-100948791D01*
X123695506Y-101060595D01*
X123695508Y-101060596D01*
X123695512Y-101060599D01*
X123810673Y-101127086D01*
X123832438Y-101139652D01*
X123985165Y-101180575D01*
X124026022Y-101180575D01*
X124093061Y-101200260D01*
X124133408Y-101242574D01*
X124155430Y-101280717D01*
X124210996Y-101376961D01*
X124210998Y-101376964D01*
X124328548Y-101494514D01*
X124326798Y-101496263D01*
X124360646Y-101542617D01*
X124364801Y-101612363D01*
X124363733Y-101616655D01*
X124359618Y-101632012D01*
X124359618Y-101632015D01*
X124359618Y-101790129D01*
X124393884Y-101918009D01*
X124400541Y-101942855D01*
X124400544Y-101942862D01*
X124479593Y-102079781D01*
X124479597Y-102079786D01*
X124479598Y-102079788D01*
X124591402Y-102191592D01*
X124591403Y-102191593D01*
X124591405Y-102191594D01*
X124612988Y-102204054D01*
X124639864Y-102219571D01*
X124648148Y-102228258D01*
X124659067Y-102233245D01*
X124671811Y-102253074D01*
X124688081Y-102270137D01*
X124691297Y-102283394D01*
X124696843Y-102292023D01*
X124701865Y-102326954D01*
X124701866Y-102326957D01*
X124701866Y-102389771D01*
X124701866Y-102389773D01*
X124701867Y-102399767D01*
X124701867Y-102784297D01*
X124685254Y-102846297D01*
X124632103Y-102938357D01*
X124632102Y-102938360D01*
X124591179Y-103091087D01*
X124591179Y-103249201D01*
X124626594Y-103381369D01*
X124632102Y-103401927D01*
X124632105Y-103401934D01*
X124711154Y-103538853D01*
X124711158Y-103538858D01*
X124711159Y-103538860D01*
X124822963Y-103650664D01*
X124945956Y-103721673D01*
X124994172Y-103772240D01*
X125007396Y-103840847D01*
X124981428Y-103905712D01*
X124945957Y-103936448D01*
X124819897Y-104009228D01*
X124819892Y-104009232D01*
X124708091Y-104121033D01*
X124708085Y-104121041D01*
X124629036Y-104257960D01*
X124629033Y-104257966D01*
X124629033Y-104257967D01*
X124610956Y-104325429D01*
X124574593Y-104385087D01*
X124519413Y-104414078D01*
X124505487Y-104417334D01*
X124484523Y-104417334D01*
X124341000Y-104455790D01*
X124339053Y-104456246D01*
X124306086Y-104454400D01*
X124273066Y-104453614D01*
X124271146Y-104452443D01*
X124269292Y-104452340D01*
X124260379Y-104445881D01*
X124223142Y-104423183D01*
X124193717Y-104393758D01*
X124193709Y-104393752D01*
X124056790Y-104314703D01*
X124056786Y-104314701D01*
X124056784Y-104314700D01*
X123904057Y-104273777D01*
X123745943Y-104273777D01*
X123593216Y-104314700D01*
X123593209Y-104314703D01*
X123481872Y-104378983D01*
X123413972Y-104395456D01*
X123347945Y-104372603D01*
X123332192Y-104359277D01*
X123322957Y-104350042D01*
X123322955Y-104350040D01*
X123237056Y-104300446D01*
X123141248Y-104274774D01*
X123042062Y-104274774D01*
X123034466Y-104274774D01*
X123034450Y-104274775D01*
X122463465Y-104274775D01*
X122448209Y-104273775D01*
X122447743Y-104273775D01*
X122289629Y-104273775D01*
X122136902Y-104314698D01*
X122136895Y-104314701D01*
X121999976Y-104393750D01*
X121999968Y-104393756D01*
X121888167Y-104505557D01*
X121888161Y-104505565D01*
X121809112Y-104642484D01*
X121809109Y-104642491D01*
X121768186Y-104795218D01*
X121768186Y-104953332D01*
X121809107Y-105106049D01*
X121809109Y-105106058D01*
X121809112Y-105106065D01*
X121888161Y-105242984D01*
X121888167Y-105242992D01*
X121964399Y-105319224D01*
X121968023Y-105325861D01*
X121974185Y-105330249D01*
X121984537Y-105356104D01*
X121997884Y-105380547D01*
X121997344Y-105388091D01*
X122000156Y-105395113D01*
X121994886Y-105422458D01*
X121992900Y-105450239D01*
X121988366Y-105456294D01*
X121986936Y-105463720D01*
X121967717Y-105483878D01*
X121951028Y-105506172D01*
X121942739Y-105510077D01*
X121938723Y-105514290D01*
X121920009Y-105520787D01*
X121905957Y-105527408D01*
X121900319Y-105528775D01*
X121882982Y-105531302D01*
X121876156Y-105534638D01*
X121863046Y-105537820D01*
X121841062Y-105536773D01*
X121819364Y-105540473D01*
X121800135Y-105534826D01*
X121794841Y-105534574D01*
X121794824Y-105534630D01*
X121794608Y-105534563D01*
X121793255Y-105534499D01*
X121792377Y-105533873D01*
X121785625Y-105531787D01*
X121717589Y-105521875D01*
X121551161Y-105521875D01*
X121483122Y-105531788D01*
X121473925Y-105534630D01*
X121472967Y-105531530D01*
X121420486Y-105540471D01*
X121395301Y-105533072D01*
X121394970Y-105534145D01*
X121385767Y-105531301D01*
X121317636Y-105521375D01*
X121317635Y-105521375D01*
X121151115Y-105521375D01*
X121151114Y-105521375D01*
X121082986Y-105531300D01*
X121073783Y-105534145D01*
X121072863Y-105531169D01*
X121019950Y-105540198D01*
X120995330Y-105532969D01*
X120994967Y-105534145D01*
X120985763Y-105531300D01*
X120917636Y-105521375D01*
X120917635Y-105521375D01*
X120751115Y-105521375D01*
X120751114Y-105521375D01*
X120682986Y-105531300D01*
X120673783Y-105534145D01*
X120672863Y-105531169D01*
X120619950Y-105540198D01*
X120595330Y-105532969D01*
X120594967Y-105534145D01*
X120585763Y-105531300D01*
X120517636Y-105521375D01*
X120517635Y-105521375D01*
X120351115Y-105521375D01*
X120351114Y-105521375D01*
X120282986Y-105531300D01*
X120273783Y-105534145D01*
X120272875Y-105531208D01*
X120220567Y-105540269D01*
X120199217Y-105537876D01*
X120185768Y-105531302D01*
X120117635Y-105521375D01*
X120051948Y-105521375D01*
X120045067Y-105520604D01*
X120018973Y-105509658D01*
X119991836Y-105501690D01*
X119987187Y-105496325D01*
X119980636Y-105493577D01*
X119964600Y-105470259D01*
X119946081Y-105448886D01*
X119944312Y-105440755D01*
X119941046Y-105436006D01*
X119940671Y-105424021D01*
X119934875Y-105397375D01*
X119934875Y-105338620D01*
X119934875Y-105338615D01*
X119924948Y-105270482D01*
X119924946Y-105270479D01*
X119924946Y-105270475D01*
X119922105Y-105261279D01*
X119925075Y-105260361D01*
X119916031Y-105207626D01*
X119918473Y-105186511D01*
X119924948Y-105173268D01*
X119934875Y-105105135D01*
X119934875Y-105044726D01*
X119935696Y-105037629D01*
X119946651Y-105011772D01*
X119954560Y-104984839D01*
X119960437Y-104979234D01*
X119962954Y-104973296D01*
X119976011Y-104964385D01*
X119996875Y-104944491D01*
X120033563Y-104923310D01*
X120087409Y-104869463D01*
X120148728Y-104835981D01*
X120218420Y-104840965D01*
X120274353Y-104882836D01*
X120282473Y-104895146D01*
X120287721Y-104904235D01*
X120371597Y-104988111D01*
X120474324Y-105047421D01*
X120588901Y-105078122D01*
X120588904Y-105078122D01*
X120707516Y-105078122D01*
X120707519Y-105078122D01*
X120822096Y-105047421D01*
X120924823Y-104988111D01*
X121008699Y-104904235D01*
X121068009Y-104801508D01*
X121081950Y-104749477D01*
X121103355Y-104706077D01*
X121106205Y-104702361D01*
X121106210Y-104702357D01*
X121155804Y-104616458D01*
X121181475Y-104520651D01*
X121181475Y-103070116D01*
X121155804Y-102974309D01*
X121106210Y-102888410D01*
X121036075Y-102818275D01*
X121033484Y-102816779D01*
X120965578Y-102777572D01*
X120953361Y-102769522D01*
X120946206Y-102764176D01*
X120942495Y-102760465D01*
X120942494Y-102760463D01*
X120872359Y-102690328D01*
X120786460Y-102640734D01*
X120777923Y-102638446D01*
X120761741Y-102626356D01*
X120749712Y-102610318D01*
X120734101Y-102597738D01*
X120729175Y-102582937D01*
X120719818Y-102570462D01*
X120718368Y-102550466D01*
X120712038Y-102531443D01*
X120711959Y-102527020D01*
X120711959Y-101074364D01*
X120731644Y-101007325D01*
X120784448Y-100961570D01*
X120835959Y-100950364D01*
X122516008Y-100950364D01*
X122516024Y-100950365D01*
X122523620Y-100950365D01*
X122622803Y-100950365D01*
X122622806Y-100950365D01*
X122718614Y-100924693D01*
X122731923Y-100917009D01*
X122804513Y-100875099D01*
X122874648Y-100804964D01*
X122874649Y-100804961D01*
X123055465Y-100624145D01*
X123055470Y-100624141D01*
X123065673Y-100613937D01*
X123065675Y-100613937D01*
X123135810Y-100543802D01*
X123183371Y-100461423D01*
X123233938Y-100413208D01*
X123302545Y-100399985D01*
X123322837Y-100403646D01*
G37*
%TD.AperFunction*%
%TA.AperFunction,Conductor*%
G36*
X115638143Y-103257274D02*
G01*
X115644621Y-103263306D01*
X115910382Y-103529067D01*
X115910384Y-103529070D01*
X115980519Y-103599205D01*
X116061998Y-103646247D01*
X116066418Y-103648799D01*
X116162226Y-103674471D01*
X116162228Y-103674471D01*
X116269008Y-103674471D01*
X116269024Y-103674470D01*
X116669420Y-103674470D01*
X116669424Y-103674471D01*
X116768610Y-103674471D01*
X116776967Y-103672231D01*
X116792077Y-103671941D01*
X116792796Y-103672137D01*
X116794462Y-103671918D01*
X116894543Y-103671918D01*
X116961582Y-103691603D01*
X117007337Y-103744407D01*
X117018543Y-103795918D01*
X117018543Y-103834818D01*
X117144543Y-103834818D01*
X117151251Y-103836787D01*
X117158136Y-103835565D01*
X117184343Y-103846504D01*
X117211582Y-103854503D01*
X117216159Y-103859785D01*
X117222614Y-103862480D01*
X117238746Y-103885852D01*
X117257337Y-103907307D01*
X117259287Y-103915611D01*
X117262304Y-103919982D01*
X117266610Y-103946791D01*
X117268476Y-103954732D01*
X117276648Y-104202605D01*
X117276385Y-104203623D01*
X117276715Y-104206691D01*
X117276715Y-104763157D01*
X117257030Y-104830196D01*
X117204226Y-104875951D01*
X117152715Y-104887157D01*
X116900715Y-104887157D01*
X116833676Y-104867472D01*
X116787921Y-104814668D01*
X116776715Y-104763157D01*
X116776715Y-104551417D01*
X116771377Y-104541642D01*
X116768543Y-104515284D01*
X116768543Y-104084818D01*
X116441075Y-104084818D01*
X116441330Y-104087547D01*
X116485137Y-104212737D01*
X116544292Y-104292889D01*
X116568263Y-104358518D01*
X116552948Y-104426688D01*
X116544293Y-104440156D01*
X116493309Y-104509237D01*
X116447223Y-104640942D01*
X116406501Y-104697718D01*
X116341548Y-104723465D01*
X116272987Y-104710008D01*
X116242501Y-104687668D01*
X115469259Y-103914426D01*
X115435774Y-103853103D01*
X115432940Y-103826745D01*
X115432940Y-103350987D01*
X115452625Y-103283948D01*
X115505429Y-103238193D01*
X115574587Y-103228249D01*
X115638143Y-103257274D01*
G37*
%TD.AperFunction*%
%TA.AperFunction,Conductor*%
G36*
X130416127Y-77628260D02*
G01*
X130459573Y-77676280D01*
X130520859Y-77796560D01*
X130540381Y-77834872D01*
X130646816Y-77981369D01*
X130646820Y-77981374D01*
X130774875Y-78109429D01*
X130774880Y-78109433D01*
X130857328Y-78169334D01*
X130921381Y-78215871D01*
X131026196Y-78269277D01*
X131082735Y-78298086D01*
X131082738Y-78298087D01*
X131159652Y-78323077D01*
X131254966Y-78354046D01*
X131374413Y-78372964D01*
X131416654Y-78379655D01*
X131479789Y-78409584D01*
X131516720Y-78468896D01*
X131515722Y-78538758D01*
X131477112Y-78596991D01*
X131416654Y-78624601D01*
X131255081Y-78650192D01*
X131082930Y-78706126D01*
X131082922Y-78706129D01*
X130921644Y-78788307D01*
X130905841Y-78799787D01*
X130905841Y-78799788D01*
X131394966Y-79288912D01*
X131331382Y-79305950D01*
X131217368Y-79371776D01*
X131124276Y-79464868D01*
X131058450Y-79578882D01*
X131041412Y-79642465D01*
X130552287Y-79153341D01*
X130540807Y-79169144D01*
X130458629Y-79330422D01*
X130458626Y-79330430D01*
X130402692Y-79502581D01*
X130374375Y-79681368D01*
X130374375Y-79862381D01*
X130402692Y-80041168D01*
X130458626Y-80213319D01*
X130458627Y-80213322D01*
X130540806Y-80374605D01*
X130552288Y-80390407D01*
X130552288Y-80390408D01*
X131041412Y-79901284D01*
X131058450Y-79964868D01*
X131124276Y-80078882D01*
X131217368Y-80171974D01*
X131331382Y-80237800D01*
X131394965Y-80254837D01*
X130905841Y-80743960D01*
X130905841Y-80743961D01*
X130921642Y-80755441D01*
X130921650Y-80755446D01*
X131082927Y-80837622D01*
X131082930Y-80837623D01*
X131255081Y-80893557D01*
X131416654Y-80919148D01*
X131479788Y-80949077D01*
X131516720Y-81008388D01*
X131515722Y-81078251D01*
X131477113Y-81136484D01*
X131416655Y-81164094D01*
X131254964Y-81189704D01*
X131082738Y-81245662D01*
X131082735Y-81245663D01*
X130921377Y-81327881D01*
X130774880Y-81434316D01*
X130774875Y-81434320D01*
X130646820Y-81562375D01*
X130646816Y-81562380D01*
X130540381Y-81708877D01*
X130458163Y-81870235D01*
X130458162Y-81870238D01*
X130402204Y-82042464D01*
X130373875Y-82221323D01*
X130373875Y-82402426D01*
X130402204Y-82581285D01*
X130458162Y-82753511D01*
X130458163Y-82753514D01*
X130496473Y-82828699D01*
X130530631Y-82895738D01*
X130540381Y-82914872D01*
X130646816Y-83061369D01*
X130646820Y-83061374D01*
X130774875Y-83189429D01*
X130774880Y-83189433D01*
X130902662Y-83282271D01*
X130921381Y-83295871D01*
X131026859Y-83349615D01*
X131082735Y-83378086D01*
X131082738Y-83378087D01*
X131157700Y-83402443D01*
X131254966Y-83434046D01*
X131328014Y-83445615D01*
X131415053Y-83459402D01*
X131478188Y-83489331D01*
X131515119Y-83548643D01*
X131514121Y-83618506D01*
X131475511Y-83676738D01*
X131415053Y-83704348D01*
X131254964Y-83729704D01*
X131082738Y-83785662D01*
X131082735Y-83785663D01*
X130921377Y-83867881D01*
X130774880Y-83974316D01*
X130774875Y-83974320D01*
X130646820Y-84102375D01*
X130646816Y-84102380D01*
X130540381Y-84248877D01*
X130458163Y-84410235D01*
X130458162Y-84410238D01*
X130402204Y-84582464D01*
X130373875Y-84761323D01*
X130373875Y-84942426D01*
X130402204Y-85121285D01*
X130458162Y-85293511D01*
X130458163Y-85293514D01*
X130514039Y-85403175D01*
X130520859Y-85416560D01*
X130540381Y-85454872D01*
X130646816Y-85601369D01*
X130646820Y-85601374D01*
X130774875Y-85729429D01*
X130774880Y-85729433D01*
X130833607Y-85772100D01*
X130921381Y-85835871D01*
X131023619Y-85887964D01*
X131082735Y-85918086D01*
X131082738Y-85918087D01*
X131168851Y-85946066D01*
X131254966Y-85974046D01*
X131328014Y-85985615D01*
X131415053Y-85999402D01*
X131478188Y-86029331D01*
X131515119Y-86088643D01*
X131514121Y-86158506D01*
X131475511Y-86216738D01*
X131415053Y-86244348D01*
X131254964Y-86269704D01*
X131082738Y-86325662D01*
X131082735Y-86325663D01*
X130921377Y-86407881D01*
X130774880Y-86514316D01*
X130774875Y-86514320D01*
X130646820Y-86642375D01*
X130646816Y-86642380D01*
X130540381Y-86788877D01*
X130458163Y-86950235D01*
X130458162Y-86950238D01*
X130402204Y-87122464D01*
X130373875Y-87301323D01*
X130373875Y-87482426D01*
X130402204Y-87661285D01*
X130458162Y-87833511D01*
X130458163Y-87833514D01*
X130503072Y-87921651D01*
X130538941Y-87992047D01*
X130540381Y-87994872D01*
X130646816Y-88141369D01*
X130646820Y-88141374D01*
X130774875Y-88269429D01*
X130774880Y-88269433D01*
X130902662Y-88362271D01*
X130921381Y-88375871D01*
X131026859Y-88429615D01*
X131082735Y-88458086D01*
X131082738Y-88458087D01*
X131168851Y-88486066D01*
X131254966Y-88514046D01*
X131328014Y-88525615D01*
X131415053Y-88539402D01*
X131478188Y-88569331D01*
X131515119Y-88628643D01*
X131514121Y-88698506D01*
X131475511Y-88756738D01*
X131415053Y-88784348D01*
X131254964Y-88809704D01*
X131082738Y-88865662D01*
X131082735Y-88865663D01*
X130921377Y-88947881D01*
X130774880Y-89054316D01*
X130774875Y-89054320D01*
X130646820Y-89182375D01*
X130646816Y-89182380D01*
X130540381Y-89328877D01*
X130458163Y-89490235D01*
X130458162Y-89490238D01*
X130402204Y-89662464D01*
X130373875Y-89841323D01*
X130373875Y-90022426D01*
X130402204Y-90201285D01*
X130458162Y-90373511D01*
X130458163Y-90373514D01*
X130514039Y-90483175D01*
X130534897Y-90524111D01*
X130540381Y-90534872D01*
X130646816Y-90681369D01*
X130646820Y-90681374D01*
X130774875Y-90809429D01*
X130774880Y-90809433D01*
X130809081Y-90834281D01*
X130921381Y-90915871D01*
X131026859Y-90969615D01*
X131082735Y-90998086D01*
X131082738Y-90998087D01*
X131162834Y-91024111D01*
X131254966Y-91054046D01*
X131374413Y-91072964D01*
X131416654Y-91079655D01*
X131479789Y-91109584D01*
X131516720Y-91168896D01*
X131515722Y-91238758D01*
X131477112Y-91296991D01*
X131416654Y-91324601D01*
X131255081Y-91350192D01*
X131082930Y-91406126D01*
X131082922Y-91406129D01*
X130921644Y-91488307D01*
X130905841Y-91499787D01*
X130905841Y-91499788D01*
X131394966Y-91988912D01*
X131331382Y-92005950D01*
X131217368Y-92071776D01*
X131124276Y-92164868D01*
X131058450Y-92278882D01*
X131041412Y-92342465D01*
X130552288Y-91853341D01*
X130552287Y-91853341D01*
X130540807Y-91869144D01*
X130458629Y-92030422D01*
X130458626Y-92030430D01*
X130402692Y-92202581D01*
X130374375Y-92381368D01*
X130374375Y-92562381D01*
X130402692Y-92741168D01*
X130458626Y-92913319D01*
X130458627Y-92913322D01*
X130540806Y-93074605D01*
X130552288Y-93090407D01*
X130552288Y-93090408D01*
X131041412Y-92601284D01*
X131058450Y-92664868D01*
X131124276Y-92778882D01*
X131217368Y-92871974D01*
X131331382Y-92937800D01*
X131394965Y-92954837D01*
X130905841Y-93443960D01*
X130905841Y-93443961D01*
X130921642Y-93455441D01*
X130921650Y-93455446D01*
X131082927Y-93537622D01*
X131082930Y-93537623D01*
X131255081Y-93593557D01*
X131416654Y-93619148D01*
X131479788Y-93649077D01*
X131516720Y-93708388D01*
X131515722Y-93778251D01*
X131477113Y-93836484D01*
X131416655Y-93864094D01*
X131254964Y-93889704D01*
X131082738Y-93945662D01*
X131082735Y-93945663D01*
X130921377Y-94027881D01*
X130774880Y-94134316D01*
X130774875Y-94134320D01*
X130646820Y-94262375D01*
X130646816Y-94262380D01*
X130540381Y-94408877D01*
X130458163Y-94570235D01*
X130458162Y-94570238D01*
X130402204Y-94742464D01*
X130373875Y-94921323D01*
X130373875Y-95102426D01*
X130402204Y-95281285D01*
X130458162Y-95453511D01*
X130458163Y-95453514D01*
X130494368Y-95524568D01*
X130536135Y-95606540D01*
X130540381Y-95614872D01*
X130646816Y-95761369D01*
X130646820Y-95761374D01*
X130774875Y-95889429D01*
X130774880Y-95889433D01*
X130844124Y-95939741D01*
X130921381Y-95995871D01*
X131026859Y-96049615D01*
X131082735Y-96078086D01*
X131082738Y-96078087D01*
X131168851Y-96106066D01*
X131254966Y-96134046D01*
X131328014Y-96145615D01*
X131415053Y-96159402D01*
X131478188Y-96189331D01*
X131515119Y-96248643D01*
X131514121Y-96318506D01*
X131475511Y-96376738D01*
X131415053Y-96404348D01*
X131254964Y-96429704D01*
X131082738Y-96485662D01*
X131082735Y-96485663D01*
X130921377Y-96567881D01*
X130774880Y-96674316D01*
X130774875Y-96674320D01*
X130646820Y-96802375D01*
X130646816Y-96802380D01*
X130540381Y-96948877D01*
X130458163Y-97110235D01*
X130458162Y-97110238D01*
X130402204Y-97282464D01*
X130373875Y-97461323D01*
X130373875Y-97642426D01*
X130402204Y-97821287D01*
X130457204Y-97990562D01*
X130459199Y-98060403D01*
X130426954Y-98116560D01*
X129828015Y-98715499D01*
X129828011Y-98715503D01*
X129822724Y-98720791D01*
X129822722Y-98720793D01*
X129752587Y-98790928D01*
X129711399Y-98862268D01*
X129707016Y-98869858D01*
X129707013Y-98869863D01*
X129702994Y-98876824D01*
X129702993Y-98876826D01*
X129702993Y-98876827D01*
X129677321Y-98972635D01*
X129677321Y-98972637D01*
X129677321Y-99081810D01*
X129677322Y-99081823D01*
X129677322Y-102142157D01*
X129657637Y-102209196D01*
X129641003Y-102229838D01*
X129261985Y-102608856D01*
X129200662Y-102642341D01*
X129174304Y-102645175D01*
X128676212Y-102645175D01*
X128667943Y-102642747D01*
X128659424Y-102644033D01*
X128634927Y-102633052D01*
X128609173Y-102625490D01*
X128603531Y-102618979D01*
X128595667Y-102615454D01*
X128580994Y-102592969D01*
X128563418Y-102572686D01*
X128561192Y-102562627D01*
X128557482Y-102556941D01*
X128552588Y-102523730D01*
X128552215Y-102522042D01*
X128552175Y-102516445D01*
X128552212Y-102516311D01*
X128552212Y-102358197D01*
X128551038Y-102353816D01*
X128550951Y-102341337D01*
X128558529Y-102314844D01*
X128562774Y-102287622D01*
X128568000Y-102281733D01*
X128570166Y-102274162D01*
X128590862Y-102255973D01*
X128609153Y-102235365D01*
X128620538Y-102229893D01*
X128622649Y-102228039D01*
X128625199Y-102227654D01*
X128633994Y-102223428D01*
X128736402Y-102187594D01*
X128843122Y-102108831D01*
X128921884Y-102002112D01*
X128956149Y-101904190D01*
X128262643Y-101904190D01*
X128200644Y-101887577D01*
X128183496Y-101877677D01*
X128030769Y-101836754D01*
X127872655Y-101836754D01*
X127719928Y-101877677D01*
X127692339Y-101893604D01*
X127676853Y-101897754D01*
X127665277Y-101905194D01*
X127630342Y-101910217D01*
X127457924Y-101910217D01*
X127390885Y-101890532D01*
X127345130Y-101837728D01*
X127333924Y-101786217D01*
X127333924Y-101534217D01*
X127353609Y-101467178D01*
X127406413Y-101421423D01*
X127457924Y-101410217D01*
X127643664Y-101410217D01*
X127649512Y-101407024D01*
X127675870Y-101404190D01*
X128956149Y-101404190D01*
X128921884Y-101306267D01*
X128879062Y-101248246D01*
X128855090Y-101182617D01*
X128870405Y-101114447D01*
X128879053Y-101100988D01*
X128922333Y-101042347D01*
X128954519Y-100950365D01*
X128966191Y-100917010D01*
X128966191Y-100917004D01*
X128968981Y-100887260D01*
X128968981Y-100501119D01*
X128966191Y-100471375D01*
X128966191Y-100471371D01*
X128966189Y-100471367D01*
X128966189Y-100471363D01*
X128927670Y-100361285D01*
X128922333Y-100346033D01*
X128843480Y-100239191D01*
X128736638Y-100160338D01*
X128736636Y-100160337D01*
X128611307Y-100116481D01*
X128611295Y-100116479D01*
X128581551Y-100113690D01*
X128581547Y-100113690D01*
X128135415Y-100113690D01*
X128135411Y-100113690D01*
X128105666Y-100116479D01*
X128105654Y-100116481D01*
X127980325Y-100160337D01*
X127915752Y-100207994D01*
X127891691Y-100216781D01*
X127869296Y-100229208D01*
X127859419Y-100228568D01*
X127850123Y-100231964D01*
X127825133Y-100226349D01*
X127799572Y-100224695D01*
X127786494Y-100217668D01*
X127781953Y-100216648D01*
X127768482Y-100207990D01*
X127760987Y-100202458D01*
X127718738Y-100146809D01*
X127710624Y-100102691D01*
X127710624Y-99009277D01*
X127730309Y-98942238D01*
X127734854Y-98935643D01*
X127746592Y-98919739D01*
X127814246Y-98828071D01*
X127848797Y-98729331D01*
X127858102Y-98702740D01*
X127858102Y-98702737D01*
X127858104Y-98702733D01*
X127860630Y-98675795D01*
X127860894Y-98672984D01*
X127860894Y-98286843D01*
X127858104Y-98257099D01*
X127858104Y-98257095D01*
X127858102Y-98257091D01*
X127858102Y-98257087D01*
X127814246Y-98131758D01*
X127814246Y-98131757D01*
X127770973Y-98073125D01*
X127747003Y-98007497D01*
X127762318Y-97939327D01*
X127770975Y-97925857D01*
X127813797Y-97867836D01*
X127848062Y-97769914D01*
X126563329Y-97769914D01*
X126562505Y-97769911D01*
X126325897Y-97768338D01*
X126292847Y-97758394D01*
X126259682Y-97748656D01*
X126259400Y-97748331D01*
X126258990Y-97748208D01*
X126236544Y-97721954D01*
X126213927Y-97695852D01*
X126213823Y-97695378D01*
X126213587Y-97695101D01*
X126213286Y-97692907D01*
X126202721Y-97644341D01*
X126202721Y-97518341D01*
X126076721Y-97518341D01*
X126009682Y-97498656D01*
X125963927Y-97445852D01*
X125952721Y-97394341D01*
X125952721Y-97268341D01*
X126452721Y-97268341D01*
X126889786Y-97268341D01*
X126895143Y-97269914D01*
X127000394Y-97269914D01*
X127500394Y-97269914D01*
X127848062Y-97269914D01*
X127813797Y-97171991D01*
X127735035Y-97065272D01*
X127628313Y-96986508D01*
X127503121Y-96942701D01*
X127503119Y-96942700D01*
X127500394Y-96942444D01*
X127500394Y-97269914D01*
X127000394Y-97269914D01*
X127000394Y-96942445D01*
X127000393Y-96942444D01*
X126997668Y-96942700D01*
X126997666Y-96942701D01*
X126872474Y-96986508D01*
X126801257Y-97039069D01*
X126735628Y-97063040D01*
X126667457Y-97047725D01*
X126653989Y-97039069D01*
X126580640Y-96984935D01*
X126455448Y-96941128D01*
X126455446Y-96941127D01*
X126452721Y-96940871D01*
X126452721Y-97268341D01*
X125952721Y-97268341D01*
X125952721Y-96940872D01*
X125952720Y-96940871D01*
X125949995Y-96941127D01*
X125949993Y-96941128D01*
X125824801Y-96984935D01*
X125718078Y-97063700D01*
X125717373Y-97064657D01*
X125716330Y-97065448D01*
X125711509Y-97070270D01*
X125710849Y-97069610D01*
X125661725Y-97106907D01*
X125592069Y-97112364D01*
X125530520Y-97079296D01*
X125496619Y-97018202D01*
X125493604Y-96991022D01*
X125493604Y-96472120D01*
X125502898Y-96440467D01*
X125511170Y-96408497D01*
X125512819Y-96406678D01*
X125513289Y-96405081D01*
X125533406Y-96381088D01*
X125538440Y-96376431D01*
X125601903Y-96329594D01*
X125629483Y-96292222D01*
X125638090Y-96284263D01*
X125659303Y-96273731D01*
X125678165Y-96259411D01*
X125694025Y-96256493D01*
X125700672Y-96253194D01*
X125707718Y-96253974D01*
X125722288Y-96251295D01*
X125731713Y-96251295D01*
X125760918Y-96259870D01*
X125770116Y-96260890D01*
X125773364Y-96263525D01*
X125798752Y-96270980D01*
X125819398Y-96287617D01*
X125825218Y-96293438D01*
X125932053Y-96372285D01*
X125932054Y-96372286D01*
X126057385Y-96416142D01*
X126057389Y-96416142D01*
X126057393Y-96416144D01*
X126072269Y-96417539D01*
X126087142Y-96418934D01*
X126087146Y-96418934D01*
X126533282Y-96418934D01*
X126546501Y-96417694D01*
X126563031Y-96416144D01*
X126563035Y-96416142D01*
X126563038Y-96416142D01*
X126632624Y-96391792D01*
X126688369Y-96372286D01*
X126795211Y-96293433D01*
X126874064Y-96186591D01*
X126905671Y-96096265D01*
X126917920Y-96061260D01*
X126917920Y-96061257D01*
X126917922Y-96061253D01*
X126920712Y-96031500D01*
X126920712Y-95645368D01*
X126917922Y-95615615D01*
X126917920Y-95615611D01*
X126917920Y-95615607D01*
X126885458Y-95522838D01*
X126874064Y-95490277D01*
X126830791Y-95431645D01*
X126806821Y-95366017D01*
X126822136Y-95297847D01*
X126830793Y-95284377D01*
X126873615Y-95226356D01*
X126907880Y-95128434D01*
X125856773Y-95128434D01*
X125795739Y-95161761D01*
X125769381Y-95164595D01*
X125240904Y-95164595D01*
X125173865Y-95144910D01*
X125128110Y-95092106D01*
X125116904Y-95040595D01*
X125116904Y-94914595D01*
X124990904Y-94914595D01*
X124923865Y-94894910D01*
X124878110Y-94842106D01*
X124866904Y-94790595D01*
X124866904Y-94337126D01*
X124866903Y-94337125D01*
X125366904Y-94337125D01*
X125366904Y-94664595D01*
X125570343Y-94664595D01*
X125631377Y-94631268D01*
X125657735Y-94628434D01*
X126060212Y-94628434D01*
X126560212Y-94628434D01*
X126907880Y-94628434D01*
X126873615Y-94530511D01*
X126794853Y-94423792D01*
X126688131Y-94345028D01*
X126562939Y-94301221D01*
X126562937Y-94301220D01*
X126560212Y-94300964D01*
X126560212Y-94628434D01*
X126060212Y-94628434D01*
X126060212Y-94300965D01*
X126060211Y-94300964D01*
X126057486Y-94301220D01*
X126057484Y-94301221D01*
X125932292Y-94345028D01*
X125825569Y-94423794D01*
X125799981Y-94458463D01*
X125744333Y-94500712D01*
X125674677Y-94506169D01*
X125613128Y-94473100D01*
X125602982Y-94461390D01*
X125601547Y-94459955D01*
X125494823Y-94381189D01*
X125369631Y-94337382D01*
X125369629Y-94337381D01*
X125366904Y-94337125D01*
X124866903Y-94337125D01*
X124864178Y-94337381D01*
X124864176Y-94337382D01*
X124738984Y-94381189D01*
X124632262Y-94459953D01*
X124549132Y-94572591D01*
X124534603Y-94583622D01*
X124523672Y-94598224D01*
X124507356Y-94604309D01*
X124493484Y-94614842D01*
X124475297Y-94616267D01*
X124458208Y-94622641D01*
X124441192Y-94618939D01*
X124423828Y-94620300D01*
X124407758Y-94611666D01*
X124389935Y-94607789D01*
X124362971Y-94587604D01*
X124362279Y-94587232D01*
X124361681Y-94586638D01*
X124283727Y-94508684D01*
X124250242Y-94447361D01*
X124251632Y-94388911D01*
X124279720Y-94284090D01*
X124279720Y-94165472D01*
X124249019Y-94050895D01*
X124189709Y-93948168D01*
X124105833Y-93864292D01*
X124046522Y-93830048D01*
X124003105Y-93804981D01*
X123919225Y-93782505D01*
X123859565Y-93746140D01*
X123829037Y-93683293D01*
X123827320Y-93662731D01*
X123827320Y-90736348D01*
X123831545Y-90704256D01*
X123831686Y-90703727D01*
X123833875Y-90695560D01*
X123833875Y-90590106D01*
X123833875Y-83516237D01*
X123853560Y-83449198D01*
X123906364Y-83403443D01*
X123957870Y-83392237D01*
X124301958Y-83392237D01*
X124331381Y-83389479D01*
X124455296Y-83346119D01*
X124551290Y-83275271D01*
X124616918Y-83251301D01*
X124685088Y-83266616D01*
X124698557Y-83275272D01*
X124793945Y-83345672D01*
X124793944Y-83345672D01*
X124884501Y-83377358D01*
X124884502Y-83377358D01*
X124884502Y-82895738D01*
X124904187Y-82828699D01*
X124956991Y-82782944D01*
X125008502Y-82771738D01*
X125260502Y-82771738D01*
X125269187Y-82774288D01*
X125278149Y-82773000D01*
X125302189Y-82783978D01*
X125327541Y-82791423D01*
X125333468Y-82798263D01*
X125341705Y-82802025D01*
X125355994Y-82824259D01*
X125373296Y-82844227D01*
X125375583Y-82854741D01*
X125379479Y-82860803D01*
X125384502Y-82895738D01*
X125384502Y-82921320D01*
X125364817Y-82988359D01*
X125348183Y-83009001D01*
X125334185Y-83022998D01*
X125334183Y-83023001D01*
X125290392Y-83098846D01*
X125290391Y-83098850D01*
X125284589Y-83108900D01*
X125258917Y-83204708D01*
X125258917Y-83204710D01*
X125258917Y-83313883D01*
X125258918Y-83313896D01*
X125258918Y-83808448D01*
X125239233Y-83875487D01*
X125222599Y-83896129D01*
X125155099Y-83963628D01*
X125155093Y-83963636D01*
X125076044Y-84100555D01*
X125076041Y-84100562D01*
X125035118Y-84253289D01*
X125035118Y-84411403D01*
X125075758Y-84563071D01*
X125076041Y-84564129D01*
X125076044Y-84564136D01*
X125155093Y-84701055D01*
X125155097Y-84701060D01*
X125155098Y-84701062D01*
X125266902Y-84812866D01*
X125266904Y-84812867D01*
X125266908Y-84812870D01*
X125403827Y-84891919D01*
X125403834Y-84891923D01*
X125556561Y-84932846D01*
X125556563Y-84932846D01*
X125714673Y-84932846D01*
X125714675Y-84932846D01*
X125867402Y-84891923D01*
X126004334Y-84812866D01*
X126116138Y-84701062D01*
X126195195Y-84564130D01*
X126236118Y-84411403D01*
X126236118Y-84253289D01*
X126195195Y-84100562D01*
X126195191Y-84100555D01*
X126116142Y-83963636D01*
X126116136Y-83963628D01*
X126048637Y-83896129D01*
X126015152Y-83834806D01*
X126012318Y-83808448D01*
X126012318Y-83461696D01*
X126032003Y-83394657D01*
X126048633Y-83374019D01*
X126995775Y-82426876D01*
X126995780Y-82426873D01*
X127005983Y-82416669D01*
X127005985Y-82416669D01*
X127076120Y-82346534D01*
X127125714Y-82260635D01*
X127138002Y-82214775D01*
X127151386Y-82164827D01*
X127151386Y-82065641D01*
X127151386Y-82058046D01*
X127151385Y-82058028D01*
X127151385Y-81488670D01*
X127171070Y-81421631D01*
X127187699Y-81400994D01*
X129192546Y-79396146D01*
X129192551Y-79396143D01*
X129202754Y-79385939D01*
X129202756Y-79385939D01*
X129272891Y-79315804D01*
X129322485Y-79229905D01*
X129348156Y-79134098D01*
X129348156Y-78030791D01*
X129367841Y-77963752D01*
X129384475Y-77943110D01*
X129682692Y-77644894D01*
X129744015Y-77611409D01*
X129770373Y-77608575D01*
X130349088Y-77608575D01*
X130416127Y-77628260D01*
G37*
%TD.AperFunction*%
%TA.AperFunction,Conductor*%
G36*
X130635925Y-100830758D02*
G01*
X130643210Y-100838097D01*
X130643377Y-100837931D01*
X130774875Y-100969429D01*
X130774880Y-100969433D01*
X130827035Y-101007325D01*
X130921381Y-101075871D01*
X131026859Y-101129615D01*
X131082735Y-101158086D01*
X131082738Y-101158087D01*
X131129462Y-101173268D01*
X131254966Y-101214046D01*
X131328014Y-101225615D01*
X131415053Y-101239402D01*
X131478188Y-101269331D01*
X131515119Y-101328643D01*
X131514121Y-101398506D01*
X131475511Y-101456738D01*
X131415053Y-101484348D01*
X131254964Y-101509704D01*
X131082738Y-101565662D01*
X131082735Y-101565663D01*
X130921377Y-101647881D01*
X130774880Y-101754316D01*
X130774875Y-101754320D01*
X130643377Y-101885819D01*
X130641970Y-101884412D01*
X130590484Y-101918009D01*
X130520616Y-101918496D01*
X130461577Y-101881131D01*
X130432110Y-101817779D01*
X130430722Y-101799278D01*
X130430722Y-100924471D01*
X130450407Y-100857432D01*
X130503211Y-100811677D01*
X130572369Y-100801733D01*
X130635925Y-100830758D01*
G37*
%TD.AperFunction*%
%TA.AperFunction,Conductor*%
G36*
X117741829Y-98997634D02*
G01*
X117775329Y-99021490D01*
X118434933Y-99681094D01*
X118468418Y-99742417D01*
X118463434Y-99812109D01*
X118421562Y-99868042D01*
X118356098Y-99892459D01*
X118347252Y-99892775D01*
X118252262Y-99892775D01*
X118099535Y-99933698D01*
X118099528Y-99933701D01*
X117962609Y-100012750D01*
X117962601Y-100012756D01*
X117850800Y-100124557D01*
X117850796Y-100124562D01*
X117824155Y-100170707D01*
X117773588Y-100218923D01*
X117704981Y-100232146D01*
X117640116Y-100206178D01*
X117599588Y-100149263D01*
X117592768Y-100108707D01*
X117592768Y-99931324D01*
X117592769Y-99234175D01*
X117567873Y-99141260D01*
X117569536Y-99071415D01*
X117608698Y-99013552D01*
X117672927Y-98986048D01*
X117741829Y-98997634D01*
G37*
%TD.AperFunction*%
%TA.AperFunction,Conductor*%
G36*
X120715829Y-95537813D02*
G01*
X120748056Y-95599806D01*
X120750378Y-95623688D01*
X120750378Y-95653878D01*
X120730693Y-95720917D01*
X120677889Y-95766672D01*
X120644253Y-95776583D01*
X120634571Y-95777993D01*
X120525728Y-95831203D01*
X120440066Y-95916865D01*
X120386858Y-96025702D01*
X120386013Y-96031504D01*
X120376578Y-96096265D01*
X120376578Y-96096269D01*
X120376578Y-96096270D01*
X120376578Y-96290164D01*
X120386857Y-96360721D01*
X120386857Y-96360722D01*
X120400562Y-96388757D01*
X120412319Y-96457630D01*
X120400562Y-96497671D01*
X120386859Y-96525702D01*
X120386858Y-96525705D01*
X120376578Y-96596265D01*
X120376578Y-96596269D01*
X120376578Y-96596270D01*
X120376578Y-96790164D01*
X120386857Y-96860721D01*
X120386857Y-96860722D01*
X120400562Y-96888757D01*
X120412319Y-96957630D01*
X120400562Y-96997671D01*
X120388084Y-97023197D01*
X120386858Y-97025705D01*
X120376578Y-97096265D01*
X120376578Y-97096269D01*
X120376578Y-97096270D01*
X120376578Y-97290164D01*
X120386857Y-97360721D01*
X120386857Y-97360722D01*
X120400562Y-97388757D01*
X120412319Y-97457630D01*
X120410202Y-97470135D01*
X120407011Y-97484479D01*
X120386858Y-97525705D01*
X120376578Y-97596265D01*
X120376578Y-97621316D01*
X120373620Y-97634617D01*
X120363052Y-97653758D01*
X120356893Y-97674735D01*
X120346499Y-97683740D01*
X120339851Y-97695784D01*
X120320610Y-97706174D01*
X120304089Y-97720490D01*
X120287361Y-97724128D01*
X120278373Y-97728983D01*
X120268504Y-97728231D01*
X120252578Y-97731696D01*
X120226578Y-97731696D01*
X120159539Y-97712011D01*
X120113784Y-97659207D01*
X120102578Y-97607696D01*
X120102577Y-96098357D01*
X120102577Y-96098350D01*
X120102335Y-96096265D01*
X120099664Y-96073226D01*
X120099663Y-96073224D01*
X120099663Y-96073223D01*
X120054284Y-95970449D01*
X120023576Y-95939741D01*
X119990091Y-95878418D01*
X119995075Y-95808726D01*
X120023574Y-95764381D01*
X120234011Y-95553945D01*
X120258294Y-95540685D01*
X120280785Y-95524568D01*
X120290978Y-95522838D01*
X120295334Y-95520460D01*
X120315421Y-95517785D01*
X120318561Y-95517626D01*
X120417846Y-95517626D01*
X120440980Y-95511426D01*
X120454108Y-95510762D01*
X120455904Y-95511192D01*
X120460379Y-95510603D01*
X120552573Y-95510603D01*
X120552575Y-95510603D01*
X120581998Y-95507845D01*
X120585422Y-95506647D01*
X120588110Y-95506509D01*
X120589368Y-95506235D01*
X120589413Y-95506443D01*
X120655201Y-95503084D01*
X120715829Y-95537813D01*
G37*
%TD.AperFunction*%
%TA.AperFunction,Conductor*%
G36*
X114309060Y-91029294D02*
G01*
X114876038Y-91596272D01*
X114909523Y-91657595D01*
X114912357Y-91683953D01*
X114912357Y-91741337D01*
X114892672Y-91808376D01*
X114839868Y-91854131D01*
X114770710Y-91864075D01*
X114753607Y-91856264D01*
X114716460Y-91853341D01*
X114227337Y-92342464D01*
X114210300Y-92278882D01*
X114144474Y-92164868D01*
X114051382Y-92071776D01*
X113937368Y-92005950D01*
X113873784Y-91988912D01*
X114362908Y-91499788D01*
X114347105Y-91488306D01*
X114185822Y-91406127D01*
X114185819Y-91406126D01*
X114013668Y-91350192D01*
X113852095Y-91324601D01*
X113788960Y-91294672D01*
X113752029Y-91235360D01*
X113753027Y-91165498D01*
X113791637Y-91107265D01*
X113852095Y-91079655D01*
X113885736Y-91074326D01*
X114013784Y-91054046D01*
X114183066Y-90999043D01*
X114252902Y-90997049D01*
X114309060Y-91029294D01*
G37*
%TD.AperFunction*%
%TA.AperFunction,Conductor*%
G36*
X114309060Y-88489294D02*
G01*
X115442558Y-89622792D01*
X115476043Y-89684115D01*
X115478877Y-89710473D01*
X115478877Y-90834281D01*
X115459192Y-90901320D01*
X115406388Y-90947075D01*
X115337230Y-90957019D01*
X115273674Y-90927994D01*
X115267196Y-90921962D01*
X114841794Y-90496560D01*
X114808309Y-90435237D01*
X114811543Y-90370566D01*
X114866546Y-90201284D01*
X114874640Y-90150180D01*
X114894875Y-90022426D01*
X114894875Y-89841323D01*
X114877562Y-89732017D01*
X114866546Y-89662466D01*
X114814398Y-89501968D01*
X114810587Y-89490238D01*
X114810586Y-89490235D01*
X114771888Y-89414288D01*
X114728371Y-89328881D01*
X114714771Y-89310162D01*
X114621933Y-89182380D01*
X114621929Y-89182375D01*
X114493874Y-89054320D01*
X114493869Y-89054316D01*
X114347372Y-88947881D01*
X114347371Y-88947880D01*
X114347369Y-88947879D01*
X114259590Y-88903153D01*
X114186014Y-88865663D01*
X114186011Y-88865662D01*
X114013785Y-88809704D01*
X113853696Y-88784348D01*
X113790561Y-88754419D01*
X113753630Y-88695107D01*
X113754628Y-88625245D01*
X113793238Y-88567012D01*
X113853696Y-88539402D01*
X113961634Y-88522305D01*
X114013784Y-88514046D01*
X114183066Y-88459043D01*
X114252902Y-88457049D01*
X114309060Y-88489294D01*
G37*
%TD.AperFunction*%
%TA.AperFunction,Conductor*%
G36*
X121216254Y-84687050D02*
G01*
X121236734Y-84686074D01*
X121261216Y-84695874D01*
X121264698Y-84696558D01*
X121269501Y-84699191D01*
X121274223Y-84701917D01*
X121370031Y-84727589D01*
X121370034Y-84727589D01*
X121439556Y-84727589D01*
X121506595Y-84747274D01*
X121552350Y-84800078D01*
X121562294Y-84869236D01*
X121539326Y-84925223D01*
X121511470Y-84962965D01*
X121477206Y-85060888D01*
X121950874Y-85060888D01*
X122017913Y-85080573D01*
X122063668Y-85133377D01*
X122074874Y-85184888D01*
X122074874Y-85436888D01*
X122055189Y-85503927D01*
X122002385Y-85549682D01*
X121950874Y-85560888D01*
X121477206Y-85560888D01*
X121511470Y-85658810D01*
X121590234Y-85765531D01*
X121596803Y-85772100D01*
X121596016Y-85772886D01*
X121601763Y-85776143D01*
X121613430Y-85798336D01*
X121628593Y-85818308D01*
X121629409Y-85828732D01*
X121634275Y-85837988D01*
X121632090Y-85862966D01*
X121634049Y-85887964D01*
X121628938Y-85899022D01*
X121628189Y-85907592D01*
X121617232Y-85924350D01*
X121610787Y-85938298D01*
X121603805Y-85947323D01*
X121601397Y-85949101D01*
X121579933Y-85978183D01*
X121579092Y-85979271D01*
X121551888Y-85998971D01*
X121525135Y-86019284D01*
X121523398Y-86019603D01*
X121522503Y-86020252D01*
X121518731Y-86020461D01*
X121481012Y-86027400D01*
X121333260Y-86027400D01*
X121266221Y-86007715D01*
X121245579Y-85991081D01*
X121161800Y-85907302D01*
X121128315Y-85845979D01*
X121125481Y-85819621D01*
X121125481Y-85505251D01*
X121125357Y-85503927D01*
X121122565Y-85474139D01*
X121076716Y-85343110D01*
X120994283Y-85231417D01*
X120951846Y-85200097D01*
X120909596Y-85144450D01*
X120904138Y-85074794D01*
X120937206Y-85013245D01*
X120951849Y-85000557D01*
X120962953Y-84992361D01*
X120970723Y-84986627D01*
X121051366Y-84877359D01*
X121090463Y-84765623D01*
X121102411Y-84748965D01*
X121110031Y-84729931D01*
X121122361Y-84721150D01*
X121131184Y-84708849D01*
X121150244Y-84701293D01*
X121166944Y-84689401D01*
X121182064Y-84688680D01*
X121196137Y-84683102D01*
X121216254Y-84687050D01*
G37*
%TD.AperFunction*%
%TA.AperFunction,Conductor*%
G36*
X114309060Y-83409294D02*
G01*
X115332569Y-84432803D01*
X115366054Y-84494126D01*
X115368888Y-84520484D01*
X115368888Y-85644292D01*
X115349203Y-85711331D01*
X115296399Y-85757086D01*
X115227241Y-85767030D01*
X115163685Y-85738005D01*
X115157207Y-85731973D01*
X114841794Y-85416560D01*
X114808309Y-85355237D01*
X114811543Y-85290566D01*
X114866546Y-85121284D01*
X114878411Y-85046371D01*
X114894875Y-84942426D01*
X114894875Y-84761323D01*
X114877610Y-84652324D01*
X114866546Y-84582466D01*
X114829719Y-84469122D01*
X114810587Y-84410238D01*
X114810586Y-84410235D01*
X114768163Y-84326977D01*
X114728371Y-84248881D01*
X114714771Y-84230162D01*
X114621933Y-84102380D01*
X114621929Y-84102375D01*
X114493874Y-83974320D01*
X114493869Y-83974316D01*
X114347372Y-83867881D01*
X114347371Y-83867880D01*
X114347369Y-83867879D01*
X114267095Y-83826977D01*
X114186014Y-83785663D01*
X114186011Y-83785662D01*
X114013785Y-83729704D01*
X113853696Y-83704348D01*
X113790561Y-83674419D01*
X113753630Y-83615107D01*
X113754628Y-83545245D01*
X113793238Y-83487012D01*
X113853696Y-83459402D01*
X113961634Y-83442305D01*
X114013784Y-83434046D01*
X114183066Y-83379043D01*
X114252902Y-83377049D01*
X114309060Y-83409294D01*
G37*
%TD.AperFunction*%
%TA.AperFunction,Conductor*%
G36*
X122568359Y-81313060D02*
G01*
X122614114Y-81365864D01*
X122624058Y-81435022D01*
X122595033Y-81498578D01*
X122583907Y-81505727D01*
X122625298Y-83700223D01*
X122606881Y-83767621D01*
X122554949Y-83814364D01*
X122485991Y-83825610D01*
X122460365Y-83819602D01*
X122327700Y-83773179D01*
X122327688Y-83773177D01*
X122297944Y-83770388D01*
X122297940Y-83770388D01*
X121851808Y-83770388D01*
X121851804Y-83770388D01*
X121822059Y-83773177D01*
X121822047Y-83773179D01*
X121696718Y-83817035D01*
X121622503Y-83871808D01*
X121556874Y-83895778D01*
X121488704Y-83880462D01*
X121461189Y-83859718D01*
X121377015Y-83775544D01*
X121377013Y-83775542D01*
X121291114Y-83725948D01*
X121195306Y-83700276D01*
X121195304Y-83700276D01*
X121190979Y-83699117D01*
X121131319Y-83662751D01*
X121100790Y-83599904D01*
X121099073Y-83579342D01*
X121099073Y-83435207D01*
X121096219Y-83404777D01*
X121096219Y-83404775D01*
X121058110Y-83295868D01*
X121051366Y-83276595D01*
X120970723Y-83167327D01*
X120861455Y-83086684D01*
X120861453Y-83086683D01*
X120733273Y-83041830D01*
X120702843Y-83038977D01*
X120702839Y-83038977D01*
X120294307Y-83038977D01*
X120278425Y-83040466D01*
X120274035Y-83040878D01*
X120205451Y-83027537D01*
X120154967Y-82979234D01*
X120138611Y-82911306D01*
X120145420Y-82876461D01*
X120146219Y-82874176D01*
X120149073Y-82843746D01*
X120149073Y-82323874D01*
X120168758Y-82256835D01*
X120221562Y-82211080D01*
X120290720Y-82201136D01*
X120346705Y-82224103D01*
X120406549Y-82268270D01*
X120447854Y-82282723D01*
X120530462Y-82311630D01*
X120538139Y-82312349D01*
X120559886Y-82314389D01*
X120934799Y-82314388D01*
X120964222Y-82311630D01*
X121088137Y-82268270D01*
X121184131Y-82197422D01*
X121249759Y-82173452D01*
X121317929Y-82188767D01*
X121331398Y-82197423D01*
X121426786Y-82267823D01*
X121426785Y-82267823D01*
X121517342Y-82299509D01*
X121517343Y-82299509D01*
X122017343Y-82299509D01*
X122107900Y-82267823D01*
X122213408Y-82189954D01*
X122291276Y-82084448D01*
X122291277Y-82084446D01*
X122334587Y-81960676D01*
X122334587Y-81960674D01*
X122336161Y-81943889D01*
X122017343Y-81943889D01*
X122017343Y-82299509D01*
X121517343Y-82299509D01*
X121517343Y-81817889D01*
X121537028Y-81750850D01*
X121589832Y-81705095D01*
X121641343Y-81693889D01*
X121767343Y-81693889D01*
X121767343Y-81567889D01*
X121787028Y-81500850D01*
X121839832Y-81455095D01*
X121891343Y-81443889D01*
X122336161Y-81443889D01*
X122336161Y-81443888D01*
X122334761Y-81428952D01*
X122348100Y-81360367D01*
X122396402Y-81309882D01*
X122458219Y-81293375D01*
X122501320Y-81293375D01*
X122568359Y-81313060D01*
G37*
%TD.AperFunction*%
%TA.AperFunction,Conductor*%
G36*
X114716460Y-80390408D02*
G01*
X114716460Y-80390407D01*
X114727941Y-80374607D01*
X114774227Y-80283768D01*
X114822202Y-80232972D01*
X114890023Y-80216177D01*
X114956158Y-80238715D01*
X114999609Y-80293430D01*
X115008712Y-80340063D01*
X115008712Y-81742582D01*
X114989027Y-81809621D01*
X114936223Y-81855376D01*
X114867065Y-81865320D01*
X114803509Y-81836295D01*
X114774228Y-81798878D01*
X114728370Y-81708879D01*
X114621933Y-81562380D01*
X114621929Y-81562375D01*
X114493874Y-81434320D01*
X114493869Y-81434316D01*
X114347372Y-81327881D01*
X114347371Y-81327880D01*
X114347369Y-81327879D01*
X114277595Y-81292327D01*
X114186014Y-81245663D01*
X114186011Y-81245662D01*
X114013785Y-81189703D01*
X113852095Y-81164094D01*
X113788960Y-81134164D01*
X113752029Y-81074853D01*
X113753027Y-81004990D01*
X113791637Y-80946758D01*
X113852096Y-80919148D01*
X114013667Y-80893558D01*
X114185819Y-80837623D01*
X114185827Y-80837620D01*
X114347105Y-80755443D01*
X114362907Y-80743960D01*
X114362908Y-80743960D01*
X113873785Y-80254837D01*
X113937368Y-80237800D01*
X114051382Y-80171974D01*
X114144474Y-80078882D01*
X114210300Y-79964868D01*
X114227337Y-79901285D01*
X114716460Y-80390408D01*
G37*
%TD.AperFunction*%
%TA.AperFunction,Conductor*%
G36*
X126188976Y-81382685D02*
G01*
X126234731Y-81435489D01*
X126245937Y-81487000D01*
X126245937Y-81577227D01*
X126226252Y-81644266D01*
X126173448Y-81690021D01*
X126121937Y-81701227D01*
X125869937Y-81701227D01*
X125802898Y-81681542D01*
X125757143Y-81628738D01*
X125745937Y-81577227D01*
X125745937Y-81487000D01*
X125765622Y-81419961D01*
X125818426Y-81374206D01*
X125869937Y-81363000D01*
X126121937Y-81363000D01*
X126188976Y-81382685D01*
G37*
%TD.AperFunction*%
%TA.AperFunction,Conductor*%
G36*
X125813188Y-79845914D02*
G01*
X125826521Y-79843998D01*
X125846664Y-79853197D01*
X125868301Y-79857904D01*
X125880285Y-79866875D01*
X126010375Y-79866875D01*
X126077414Y-79886560D01*
X126123169Y-79939364D01*
X126134375Y-79990875D01*
X126134375Y-80438000D01*
X126114690Y-80505039D01*
X126061886Y-80550794D01*
X126010375Y-80562000D01*
X125808875Y-80562000D01*
X125741836Y-80542315D01*
X125696081Y-80489511D01*
X125684875Y-80438000D01*
X125684875Y-80210819D01*
X125684874Y-79966733D01*
X125691112Y-79945489D01*
X125692692Y-79923402D01*
X125700763Y-79912619D01*
X125704558Y-79899697D01*
X125721294Y-79885195D01*
X125734564Y-79867469D01*
X125747182Y-79862762D01*
X125757362Y-79853942D01*
X125779280Y-79850790D01*
X125800028Y-79843052D01*
X125813188Y-79845914D01*
G37*
%TD.AperFunction*%
%TA.AperFunction,Conductor*%
G36*
X114377817Y-75862059D02*
G01*
X114398459Y-75878693D01*
X115278193Y-76758427D01*
X115311678Y-76819750D01*
X115314512Y-76846108D01*
X115314512Y-77969915D01*
X115294827Y-78036954D01*
X115242023Y-78082709D01*
X115172865Y-78092653D01*
X115109309Y-78063628D01*
X115102831Y-78057596D01*
X114841795Y-77796560D01*
X114808310Y-77735237D01*
X114811545Y-77670561D01*
X114825290Y-77628260D01*
X114866546Y-77501284D01*
X114885306Y-77382840D01*
X114894875Y-77322426D01*
X114894875Y-77141323D01*
X114878394Y-77037272D01*
X114866546Y-76962466D01*
X114820176Y-76819750D01*
X114810587Y-76790238D01*
X114810586Y-76790235D01*
X114739117Y-76649972D01*
X114728371Y-76628881D01*
X114699482Y-76589118D01*
X114621933Y-76482380D01*
X114621929Y-76482375D01*
X114493874Y-76354320D01*
X114493869Y-76354316D01*
X114347372Y-76247881D01*
X114347371Y-76247880D01*
X114347369Y-76247879D01*
X114295675Y-76221539D01*
X114186014Y-76165663D01*
X114186011Y-76165662D01*
X114013785Y-76109704D01*
X113882103Y-76088847D01*
X113818968Y-76058917D01*
X113782037Y-75999606D01*
X113783035Y-75929743D01*
X113821645Y-75871511D01*
X113885609Y-75843397D01*
X113901496Y-75842374D01*
X114310778Y-75842374D01*
X114377817Y-75862059D01*
G37*
%TD.AperFunction*%
%TA.AperFunction,Conductor*%
G36*
X133670350Y-73065559D02*
G01*
X133716526Y-73117995D01*
X133728148Y-73170732D01*
X133715190Y-78122476D01*
X133590997Y-125581750D01*
X133590996Y-125582074D01*
X133571136Y-125649062D01*
X133518212Y-125694679D01*
X133466996Y-125705750D01*
X112362445Y-125705750D01*
X112295406Y-125686065D01*
X112249651Y-125633261D01*
X112238445Y-125581750D01*
X112238445Y-73797006D01*
X112593875Y-73797006D01*
X112593875Y-75586731D01*
X112593877Y-75586757D01*
X112596788Y-75611862D01*
X112596790Y-75611866D01*
X112642168Y-75714639D01*
X112642169Y-75714640D01*
X112721610Y-75794081D01*
X112824384Y-75839460D01*
X112849510Y-75842375D01*
X113587248Y-75842374D01*
X113654286Y-75862058D01*
X113700041Y-75914862D01*
X113709985Y-75984021D01*
X113680960Y-76047577D01*
X113622182Y-76085351D01*
X113606646Y-76088847D01*
X113474964Y-76109704D01*
X113302738Y-76165662D01*
X113302735Y-76165663D01*
X113141377Y-76247881D01*
X112994880Y-76354316D01*
X112994875Y-76354320D01*
X112866820Y-76482375D01*
X112866816Y-76482380D01*
X112760381Y-76628877D01*
X112678163Y-76790235D01*
X112678162Y-76790238D01*
X112622204Y-76962464D01*
X112593875Y-77141323D01*
X112593875Y-77322426D01*
X112622204Y-77501285D01*
X112678162Y-77673511D01*
X112678163Y-77673514D01*
X112732663Y-77780473D01*
X112740859Y-77796560D01*
X112760381Y-77834872D01*
X112866816Y-77981369D01*
X112866820Y-77981374D01*
X112994875Y-78109429D01*
X112994880Y-78109433D01*
X113077328Y-78169334D01*
X113141381Y-78215871D01*
X113246196Y-78269277D01*
X113302735Y-78298086D01*
X113302738Y-78298087D01*
X113379652Y-78323077D01*
X113474966Y-78354046D01*
X113594413Y-78372964D01*
X113636654Y-78379655D01*
X113699789Y-78409584D01*
X113736720Y-78468896D01*
X113735722Y-78538758D01*
X113697112Y-78596991D01*
X113636654Y-78624601D01*
X113475081Y-78650192D01*
X113302930Y-78706126D01*
X113302922Y-78706129D01*
X113141644Y-78788307D01*
X113125841Y-78799787D01*
X113125841Y-78799788D01*
X113614966Y-79288912D01*
X113551382Y-79305950D01*
X113437368Y-79371776D01*
X113344276Y-79464868D01*
X113278450Y-79578882D01*
X113261412Y-79642465D01*
X112772288Y-79153341D01*
X112772287Y-79153341D01*
X112760807Y-79169144D01*
X112678629Y-79330422D01*
X112678626Y-79330430D01*
X112622692Y-79502581D01*
X112594375Y-79681368D01*
X112594375Y-79862381D01*
X112622692Y-80041168D01*
X112678626Y-80213319D01*
X112678627Y-80213322D01*
X112760806Y-80374605D01*
X112772288Y-80390407D01*
X112772288Y-80390408D01*
X113261412Y-79901284D01*
X113278450Y-79964868D01*
X113344276Y-80078882D01*
X113437368Y-80171974D01*
X113551382Y-80237800D01*
X113614965Y-80254837D01*
X113125841Y-80743960D01*
X113125841Y-80743961D01*
X113141642Y-80755441D01*
X113141650Y-80755446D01*
X113302927Y-80837622D01*
X113302930Y-80837623D01*
X113475081Y-80893557D01*
X113636654Y-80919148D01*
X113699788Y-80949077D01*
X113736720Y-81008388D01*
X113735722Y-81078251D01*
X113697113Y-81136484D01*
X113636655Y-81164094D01*
X113474964Y-81189704D01*
X113302738Y-81245662D01*
X113302735Y-81245663D01*
X113141377Y-81327881D01*
X112994880Y-81434316D01*
X112994875Y-81434320D01*
X112866820Y-81562375D01*
X112866816Y-81562380D01*
X112760381Y-81708877D01*
X112678163Y-81870235D01*
X112678162Y-81870238D01*
X112622204Y-82042464D01*
X112593875Y-82221323D01*
X112593875Y-82402426D01*
X112622204Y-82581285D01*
X112678162Y-82753511D01*
X112678163Y-82753514D01*
X112716473Y-82828699D01*
X112750631Y-82895738D01*
X112760381Y-82914872D01*
X112866816Y-83061369D01*
X112866820Y-83061374D01*
X112994875Y-83189429D01*
X112994880Y-83189433D01*
X113122662Y-83282271D01*
X113141381Y-83295871D01*
X113246859Y-83349615D01*
X113302735Y-83378086D01*
X113302738Y-83378087D01*
X113377700Y-83402443D01*
X113474966Y-83434046D01*
X113548014Y-83445615D01*
X113635053Y-83459402D01*
X113698188Y-83489331D01*
X113735119Y-83548643D01*
X113734121Y-83618506D01*
X113695511Y-83676738D01*
X113635053Y-83704348D01*
X113474964Y-83729704D01*
X113302738Y-83785662D01*
X113302735Y-83785663D01*
X113141377Y-83867881D01*
X112994880Y-83974316D01*
X112994875Y-83974320D01*
X112866820Y-84102375D01*
X112866816Y-84102380D01*
X112760381Y-84248877D01*
X112678163Y-84410235D01*
X112678162Y-84410238D01*
X112622204Y-84582464D01*
X112593875Y-84761323D01*
X112593875Y-84942426D01*
X112622204Y-85121285D01*
X112678162Y-85293511D01*
X112678163Y-85293514D01*
X112734039Y-85403175D01*
X112740859Y-85416560D01*
X112760381Y-85454872D01*
X112866816Y-85601369D01*
X112866820Y-85601374D01*
X112994875Y-85729429D01*
X112994880Y-85729433D01*
X113053607Y-85772100D01*
X113141381Y-85835871D01*
X113243619Y-85887964D01*
X113302735Y-85918086D01*
X113302738Y-85918087D01*
X113388851Y-85946066D01*
X113474966Y-85974046D01*
X113548014Y-85985615D01*
X113635053Y-85999402D01*
X113698188Y-86029331D01*
X113735119Y-86088643D01*
X113734121Y-86158506D01*
X113695511Y-86216738D01*
X113635053Y-86244348D01*
X113474964Y-86269704D01*
X113302738Y-86325662D01*
X113302735Y-86325663D01*
X113141377Y-86407881D01*
X112994880Y-86514316D01*
X112994875Y-86514320D01*
X112866820Y-86642375D01*
X112866816Y-86642380D01*
X112760381Y-86788877D01*
X112678163Y-86950235D01*
X112678162Y-86950238D01*
X112622204Y-87122464D01*
X112593875Y-87301323D01*
X112593875Y-87482426D01*
X112622204Y-87661285D01*
X112678162Y-87833511D01*
X112678163Y-87833514D01*
X112723072Y-87921651D01*
X112758941Y-87992047D01*
X112760381Y-87994872D01*
X112866816Y-88141369D01*
X112866820Y-88141374D01*
X112994875Y-88269429D01*
X112994880Y-88269433D01*
X113122662Y-88362271D01*
X113141381Y-88375871D01*
X113246859Y-88429615D01*
X113302735Y-88458086D01*
X113302738Y-88458087D01*
X113388851Y-88486066D01*
X113474966Y-88514046D01*
X113548014Y-88525615D01*
X113635053Y-88539402D01*
X113698188Y-88569331D01*
X113735119Y-88628643D01*
X113734121Y-88698506D01*
X113695511Y-88756738D01*
X113635053Y-88784348D01*
X113474964Y-88809704D01*
X113302738Y-88865662D01*
X113302735Y-88865663D01*
X113141377Y-88947881D01*
X112994880Y-89054316D01*
X112994875Y-89054320D01*
X112866820Y-89182375D01*
X112866816Y-89182380D01*
X112760381Y-89328877D01*
X112678163Y-89490235D01*
X112678162Y-89490238D01*
X112622204Y-89662464D01*
X112593875Y-89841323D01*
X112593875Y-90022426D01*
X112622204Y-90201285D01*
X112678162Y-90373511D01*
X112678163Y-90373514D01*
X112734039Y-90483175D01*
X112754897Y-90524111D01*
X112760381Y-90534872D01*
X112866816Y-90681369D01*
X112866820Y-90681374D01*
X112994875Y-90809429D01*
X112994880Y-90809433D01*
X113029081Y-90834281D01*
X113141381Y-90915871D01*
X113246859Y-90969615D01*
X113302735Y-90998086D01*
X113302738Y-90998087D01*
X113382834Y-91024111D01*
X113474966Y-91054046D01*
X113594413Y-91072964D01*
X113636654Y-91079655D01*
X113699789Y-91109584D01*
X113736720Y-91168896D01*
X113735722Y-91238758D01*
X113697112Y-91296991D01*
X113636654Y-91324601D01*
X113475081Y-91350192D01*
X113302930Y-91406126D01*
X113302922Y-91406129D01*
X113141644Y-91488307D01*
X113125841Y-91499787D01*
X113125841Y-91499788D01*
X113614966Y-91988912D01*
X113551382Y-92005950D01*
X113437368Y-92071776D01*
X113344276Y-92164868D01*
X113278450Y-92278882D01*
X113261412Y-92342465D01*
X112772288Y-91853341D01*
X112772287Y-91853341D01*
X112760807Y-91869144D01*
X112678629Y-92030422D01*
X112678626Y-92030430D01*
X112622692Y-92202581D01*
X112594375Y-92381368D01*
X112594375Y-92562381D01*
X112622692Y-92741168D01*
X112678626Y-92913319D01*
X112678627Y-92913322D01*
X112760806Y-93074605D01*
X112772288Y-93090407D01*
X112772288Y-93090408D01*
X113261412Y-92601284D01*
X113278450Y-92664868D01*
X113344276Y-92778882D01*
X113437368Y-92871974D01*
X113551382Y-92937800D01*
X113614965Y-92954837D01*
X113125841Y-93443960D01*
X113125841Y-93443961D01*
X113141642Y-93455441D01*
X113141650Y-93455446D01*
X113302927Y-93537622D01*
X113302930Y-93537623D01*
X113475081Y-93593557D01*
X113636654Y-93619148D01*
X113699788Y-93649077D01*
X113736720Y-93708388D01*
X113735722Y-93778251D01*
X113697113Y-93836484D01*
X113636655Y-93864094D01*
X113474964Y-93889704D01*
X113302738Y-93945662D01*
X113302735Y-93945663D01*
X113141377Y-94027881D01*
X112994880Y-94134316D01*
X112994875Y-94134320D01*
X112866820Y-94262375D01*
X112866816Y-94262380D01*
X112760381Y-94408877D01*
X112678163Y-94570235D01*
X112678162Y-94570238D01*
X112622204Y-94742464D01*
X112593875Y-94921323D01*
X112593875Y-95102426D01*
X112622204Y-95281285D01*
X112678162Y-95453511D01*
X112678163Y-95453514D01*
X112714368Y-95524568D01*
X112756135Y-95606540D01*
X112760381Y-95614872D01*
X112866816Y-95761369D01*
X112866820Y-95761374D01*
X112994875Y-95889429D01*
X112994880Y-95889433D01*
X113064124Y-95939741D01*
X113141381Y-95995871D01*
X113246859Y-96049615D01*
X113302735Y-96078086D01*
X113302738Y-96078087D01*
X113388851Y-96106066D01*
X113474966Y-96134046D01*
X113548014Y-96145615D01*
X113635053Y-96159402D01*
X113698188Y-96189331D01*
X113735119Y-96248643D01*
X113734121Y-96318506D01*
X113695511Y-96376738D01*
X113635053Y-96404348D01*
X113474964Y-96429704D01*
X113302738Y-96485662D01*
X113302735Y-96485663D01*
X113141377Y-96567881D01*
X112994880Y-96674316D01*
X112994875Y-96674320D01*
X112866820Y-96802375D01*
X112866816Y-96802380D01*
X112760381Y-96948877D01*
X112678163Y-97110235D01*
X112678162Y-97110238D01*
X112622204Y-97282464D01*
X112593875Y-97461323D01*
X112593875Y-97642426D01*
X112622204Y-97821285D01*
X112678162Y-97993511D01*
X112678163Y-97993514D01*
X112731497Y-98098185D01*
X112748603Y-98131758D01*
X112760381Y-98154872D01*
X112866816Y-98301369D01*
X112866820Y-98301374D01*
X112994875Y-98429429D01*
X112994880Y-98429433D01*
X113085345Y-98495159D01*
X113141381Y-98535871D01*
X113246859Y-98589615D01*
X113302735Y-98618086D01*
X113302741Y-98618088D01*
X113452349Y-98666698D01*
X113463749Y-98673683D01*
X113473456Y-98675795D01*
X113501699Y-98696938D01*
X113501708Y-98696943D01*
X113513075Y-98708310D01*
X113513077Y-98708311D01*
X113520145Y-98715379D01*
X113561435Y-98756669D01*
X113594920Y-98817992D01*
X113589936Y-98887684D01*
X113548064Y-98943617D01*
X113493154Y-98966823D01*
X113474963Y-98969704D01*
X113302738Y-99025662D01*
X113302735Y-99025663D01*
X113141377Y-99107881D01*
X112994880Y-99214316D01*
X112994875Y-99214320D01*
X112866820Y-99342375D01*
X112866816Y-99342380D01*
X112760381Y-99488877D01*
X112678163Y-99650235D01*
X112678162Y-99650238D01*
X112622204Y-99822464D01*
X112593875Y-100001323D01*
X112593875Y-100182426D01*
X112622204Y-100361285D01*
X112678162Y-100533511D01*
X112678163Y-100533514D01*
X112712632Y-100601161D01*
X112742169Y-100659131D01*
X112760381Y-100694872D01*
X112866816Y-100841369D01*
X112866820Y-100841374D01*
X112994875Y-100969429D01*
X112994880Y-100969433D01*
X113047035Y-101007325D01*
X113141381Y-101075871D01*
X113246859Y-101129615D01*
X113302735Y-101158086D01*
X113302738Y-101158087D01*
X113349462Y-101173268D01*
X113474966Y-101214046D01*
X113548014Y-101225615D01*
X113635053Y-101239402D01*
X113698188Y-101269331D01*
X113735119Y-101328643D01*
X113734121Y-101398506D01*
X113695511Y-101456738D01*
X113635053Y-101484348D01*
X113474964Y-101509704D01*
X113302738Y-101565662D01*
X113302735Y-101565663D01*
X113141377Y-101647881D01*
X112994880Y-101754316D01*
X112994875Y-101754320D01*
X112866820Y-101882375D01*
X112866816Y-101882380D01*
X112760381Y-102028877D01*
X112678163Y-102190235D01*
X112678162Y-102190238D01*
X112622204Y-102362464D01*
X112593875Y-102541323D01*
X112593875Y-102722426D01*
X112622204Y-102901285D01*
X112678162Y-103073511D01*
X112678163Y-103073514D01*
X112760381Y-103234872D01*
X112866816Y-103381369D01*
X112866820Y-103381374D01*
X112994875Y-103509429D01*
X112994880Y-103509433D01*
X113035385Y-103538861D01*
X113141381Y-103615871D01*
X113302736Y-103698086D01*
X113310833Y-103700716D01*
X113368508Y-103740153D01*
X113380915Y-103758435D01*
X113388336Y-103771795D01*
X113393346Y-103790491D01*
X113442940Y-103876390D01*
X113450804Y-103884254D01*
X113459239Y-103899439D01*
X113463251Y-103917261D01*
X113472006Y-103933294D01*
X113470765Y-103950638D01*
X113474585Y-103967603D01*
X113468325Y-103984764D01*
X113467022Y-104002986D01*
X113456600Y-104016907D01*
X113450642Y-104033242D01*
X113436097Y-104044294D01*
X113425150Y-104058919D01*
X113399030Y-104072463D01*
X113395013Y-104075517D01*
X113392807Y-104075690D01*
X113389159Y-104077583D01*
X113302735Y-104105664D01*
X113141377Y-104187881D01*
X112994880Y-104294316D01*
X112994875Y-104294320D01*
X112866820Y-104422375D01*
X112866816Y-104422380D01*
X112760381Y-104568877D01*
X112678163Y-104730235D01*
X112678162Y-104730238D01*
X112622204Y-104902464D01*
X112593875Y-105081323D01*
X112593875Y-105262426D01*
X112622204Y-105441285D01*
X112678162Y-105613511D01*
X112678163Y-105613514D01*
X112712412Y-105680730D01*
X112760359Y-105774830D01*
X112760381Y-105774872D01*
X112866816Y-105921369D01*
X112866820Y-105921374D01*
X112994875Y-106049429D01*
X112994880Y-106049433D01*
X113108096Y-106131688D01*
X113141381Y-106155871D01*
X113229633Y-106200838D01*
X113302735Y-106238086D01*
X113302738Y-106238087D01*
X113360588Y-106256883D01*
X113474966Y-106294046D01*
X113548014Y-106305615D01*
X113635053Y-106319402D01*
X113698188Y-106349331D01*
X113735119Y-106408643D01*
X113734121Y-106478506D01*
X113695511Y-106536738D01*
X113635053Y-106564348D01*
X113474964Y-106589704D01*
X113302738Y-106645662D01*
X113302735Y-106645663D01*
X113141377Y-106727881D01*
X112994880Y-106834316D01*
X112994875Y-106834320D01*
X112866820Y-106962375D01*
X112866816Y-106962380D01*
X112760381Y-107108877D01*
X112678163Y-107270235D01*
X112678162Y-107270238D01*
X112622204Y-107442464D01*
X112593875Y-107621323D01*
X112593875Y-107802426D01*
X112622204Y-107981285D01*
X112678162Y-108153511D01*
X112678163Y-108153514D01*
X112686177Y-108169241D01*
X112752933Y-108300256D01*
X112760381Y-108314872D01*
X112866816Y-108461369D01*
X112866820Y-108461374D01*
X112994875Y-108589429D01*
X112994880Y-108589433D01*
X113051014Y-108630216D01*
X113141381Y-108695871D01*
X113246859Y-108749615D01*
X113302735Y-108778086D01*
X113302738Y-108778087D01*
X113388851Y-108806066D01*
X113474966Y-108834046D01*
X113548014Y-108845615D01*
X113635053Y-108859402D01*
X113698188Y-108889331D01*
X113735119Y-108948643D01*
X113734121Y-109018506D01*
X113695511Y-109076738D01*
X113635053Y-109104348D01*
X113474964Y-109129704D01*
X113302738Y-109185662D01*
X113302735Y-109185663D01*
X113141377Y-109267881D01*
X112994880Y-109374316D01*
X112994875Y-109374320D01*
X112866820Y-109502375D01*
X112866816Y-109502380D01*
X112760381Y-109648877D01*
X112678163Y-109810235D01*
X112678162Y-109810238D01*
X112622204Y-109982464D01*
X112593875Y-110161323D01*
X112593875Y-110342426D01*
X112622204Y-110521285D01*
X112678162Y-110693511D01*
X112678163Y-110693514D01*
X112717249Y-110770222D01*
X112760001Y-110854128D01*
X112760381Y-110854872D01*
X112866816Y-111001369D01*
X112866820Y-111001374D01*
X112994875Y-111129429D01*
X112994880Y-111129433D01*
X113079994Y-111191271D01*
X113141381Y-111235871D01*
X113213124Y-111272426D01*
X113302735Y-111318086D01*
X113302738Y-111318087D01*
X113372016Y-111340596D01*
X113474966Y-111374046D01*
X113548014Y-111385615D01*
X113635053Y-111399402D01*
X113698188Y-111429331D01*
X113735119Y-111488643D01*
X113734121Y-111558506D01*
X113695511Y-111616738D01*
X113635053Y-111644348D01*
X113474964Y-111669704D01*
X113302738Y-111725662D01*
X113302735Y-111725663D01*
X113141377Y-111807881D01*
X112994880Y-111914316D01*
X112994875Y-111914320D01*
X112866820Y-112042375D01*
X112866816Y-112042380D01*
X112760381Y-112188877D01*
X112678163Y-112350235D01*
X112678162Y-112350238D01*
X112622204Y-112522464D01*
X112593875Y-112701323D01*
X112593875Y-112882426D01*
X112622204Y-113061285D01*
X112678162Y-113233511D01*
X112678163Y-113233514D01*
X112717249Y-113310222D01*
X112752933Y-113380256D01*
X112760381Y-113394872D01*
X112866816Y-113541369D01*
X112866820Y-113541374D01*
X112994875Y-113669429D01*
X112994880Y-113669433D01*
X113122662Y-113762271D01*
X113141381Y-113775871D01*
X113246859Y-113829615D01*
X113302735Y-113858086D01*
X113302738Y-113858087D01*
X113388851Y-113886066D01*
X113474966Y-113914046D01*
X113548014Y-113925615D01*
X113635053Y-113939402D01*
X113698188Y-113969331D01*
X113735119Y-114028643D01*
X113734121Y-114098506D01*
X113695511Y-114156738D01*
X113635053Y-114184348D01*
X113474964Y-114209704D01*
X113302738Y-114265662D01*
X113302735Y-114265663D01*
X113141377Y-114347881D01*
X112994880Y-114454316D01*
X112994875Y-114454320D01*
X112866820Y-114582375D01*
X112866816Y-114582380D01*
X112760381Y-114728877D01*
X112678163Y-114890235D01*
X112678162Y-114890238D01*
X112622204Y-115062464D01*
X112593875Y-115241323D01*
X112593875Y-115422426D01*
X112622204Y-115601285D01*
X112678162Y-115773511D01*
X112678163Y-115773514D01*
X112760381Y-115934872D01*
X112866816Y-116081369D01*
X112866820Y-116081374D01*
X112994875Y-116209429D01*
X112994880Y-116209433D01*
X113122662Y-116302271D01*
X113141381Y-116315871D01*
X113246859Y-116369615D01*
X113302735Y-116398086D01*
X113302738Y-116398087D01*
X113388851Y-116426066D01*
X113474966Y-116454046D01*
X113594413Y-116472964D01*
X113636654Y-116479655D01*
X113699789Y-116509584D01*
X113736720Y-116568896D01*
X113735722Y-116638758D01*
X113697112Y-116696991D01*
X113636654Y-116724601D01*
X113475081Y-116750192D01*
X113302930Y-116806126D01*
X113302922Y-116806129D01*
X113141644Y-116888307D01*
X113125841Y-116899787D01*
X113125841Y-116899788D01*
X113614966Y-117388912D01*
X113551382Y-117405950D01*
X113437368Y-117471776D01*
X113344276Y-117564868D01*
X113278450Y-117678882D01*
X113261412Y-117742465D01*
X112772288Y-117253341D01*
X112772287Y-117253341D01*
X112760807Y-117269144D01*
X112678629Y-117430422D01*
X112678626Y-117430430D01*
X112622692Y-117602581D01*
X112594375Y-117781368D01*
X112594375Y-117962381D01*
X112622692Y-118141168D01*
X112678626Y-118313319D01*
X112678627Y-118313322D01*
X112760806Y-118474605D01*
X112772288Y-118490407D01*
X112772288Y-118490408D01*
X113261412Y-118001284D01*
X113278450Y-118064868D01*
X113344276Y-118178882D01*
X113437368Y-118271974D01*
X113551382Y-118337800D01*
X113614965Y-118354837D01*
X113125841Y-118843960D01*
X113125841Y-118843961D01*
X113141642Y-118855441D01*
X113141650Y-118855446D01*
X113302927Y-118937622D01*
X113302930Y-118937623D01*
X113475081Y-118993557D01*
X113636654Y-119019148D01*
X113699788Y-119049077D01*
X113736720Y-119108388D01*
X113735722Y-119178251D01*
X113697113Y-119236484D01*
X113636655Y-119264094D01*
X113474964Y-119289704D01*
X113302738Y-119345662D01*
X113302735Y-119345663D01*
X113141377Y-119427881D01*
X112994880Y-119534316D01*
X112994875Y-119534320D01*
X112866820Y-119662375D01*
X112866816Y-119662380D01*
X112760381Y-119808877D01*
X112678163Y-119970235D01*
X112678162Y-119970238D01*
X112622204Y-120142464D01*
X112593875Y-120321323D01*
X112593875Y-120502426D01*
X112622204Y-120681285D01*
X112678162Y-120853511D01*
X112678163Y-120853514D01*
X112686177Y-120869241D01*
X112752933Y-121000256D01*
X112760381Y-121014872D01*
X112866816Y-121161369D01*
X112866820Y-121161374D01*
X112994875Y-121289429D01*
X112994880Y-121289433D01*
X113122662Y-121382271D01*
X113141381Y-121395871D01*
X113246859Y-121449615D01*
X113302735Y-121478086D01*
X113302738Y-121478087D01*
X113357590Y-121495909D01*
X113474966Y-121534046D01*
X113548014Y-121545615D01*
X113635053Y-121559402D01*
X113698188Y-121589331D01*
X113735119Y-121648643D01*
X113734121Y-121718506D01*
X113695511Y-121776738D01*
X113635053Y-121804348D01*
X113474964Y-121829704D01*
X113302738Y-121885662D01*
X113302735Y-121885663D01*
X113141377Y-121967881D01*
X112994880Y-122074316D01*
X112994875Y-122074320D01*
X112866820Y-122202375D01*
X112866816Y-122202380D01*
X112760381Y-122348877D01*
X112678163Y-122510235D01*
X112678162Y-122510238D01*
X112622204Y-122682464D01*
X112593875Y-122861323D01*
X112593875Y-123042426D01*
X112622204Y-123221285D01*
X112678162Y-123393511D01*
X112678163Y-123393514D01*
X112760381Y-123554872D01*
X112866816Y-123701369D01*
X112866820Y-123701374D01*
X112994875Y-123829429D01*
X112994880Y-123829433D01*
X113122662Y-123922271D01*
X113141381Y-123935871D01*
X113246859Y-123989615D01*
X113302735Y-124018086D01*
X113302738Y-124018087D01*
X113388851Y-124046066D01*
X113474966Y-124074046D01*
X113557804Y-124087166D01*
X113653824Y-124102375D01*
X113653829Y-124102375D01*
X113834926Y-124102375D01*
X113921634Y-124088640D01*
X114013784Y-124074046D01*
X114186014Y-124018086D01*
X114347369Y-123935871D01*
X114493876Y-123829428D01*
X114621928Y-123701376D01*
X114728371Y-123554869D01*
X114809177Y-123396280D01*
X114857152Y-123345484D01*
X114919662Y-123328575D01*
X116273912Y-123328575D01*
X116273928Y-123328576D01*
X116281524Y-123328576D01*
X116380707Y-123328576D01*
X116380710Y-123328576D01*
X116476518Y-123302904D01*
X116562417Y-123253310D01*
X116632552Y-123183175D01*
X116632552Y-123183173D01*
X116642756Y-123172970D01*
X116642760Y-123172965D01*
X117998719Y-121817006D01*
X118943875Y-121817006D01*
X118943875Y-123606731D01*
X118943877Y-123606757D01*
X118946788Y-123631862D01*
X118946790Y-123631866D01*
X118992168Y-123734639D01*
X118992169Y-123734640D01*
X119071610Y-123814081D01*
X119174384Y-123859460D01*
X119199510Y-123862375D01*
X120989239Y-123862374D01*
X120989254Y-123862372D01*
X120989257Y-123862372D01*
X121014362Y-123859461D01*
X121014363Y-123859460D01*
X121014366Y-123859460D01*
X121117140Y-123814081D01*
X121196581Y-123734640D01*
X121241960Y-123631866D01*
X121244875Y-123606740D01*
X121244874Y-122865800D01*
X121264558Y-122798763D01*
X121317362Y-122753008D01*
X121386521Y-122743064D01*
X121450077Y-122772089D01*
X121487851Y-122830867D01*
X121491347Y-122846404D01*
X121512692Y-122981168D01*
X121568626Y-123153319D01*
X121568627Y-123153322D01*
X121650806Y-123314605D01*
X121662288Y-123330407D01*
X121662288Y-123330408D01*
X122151412Y-122841284D01*
X122168450Y-122904868D01*
X122234276Y-123018882D01*
X122327368Y-123111974D01*
X122441382Y-123177800D01*
X122504965Y-123194837D01*
X122015841Y-123683960D01*
X122015841Y-123683961D01*
X122031642Y-123695441D01*
X122031650Y-123695446D01*
X122192927Y-123777622D01*
X122192930Y-123777623D01*
X122365081Y-123833557D01*
X122543869Y-123861875D01*
X122724881Y-123861875D01*
X122903668Y-123833557D01*
X123075819Y-123777623D01*
X123075827Y-123777620D01*
X123237105Y-123695443D01*
X123252907Y-123683960D01*
X123252908Y-123683960D01*
X122763785Y-123194837D01*
X122827368Y-123177800D01*
X122941382Y-123111974D01*
X123034474Y-123018882D01*
X123100300Y-122904868D01*
X123117337Y-122841285D01*
X123606460Y-123330408D01*
X123606460Y-123330407D01*
X123617943Y-123314605D01*
X123700120Y-123153327D01*
X123700123Y-123153319D01*
X123756058Y-122981167D01*
X123781648Y-122819596D01*
X123811577Y-122756461D01*
X123870888Y-122719529D01*
X123940751Y-122720527D01*
X123998984Y-122759136D01*
X124026594Y-122819595D01*
X124052203Y-122981285D01*
X124108162Y-123153511D01*
X124108163Y-123153514D01*
X124142695Y-123221285D01*
X124190244Y-123314605D01*
X124190381Y-123314872D01*
X124296816Y-123461369D01*
X124296820Y-123461374D01*
X124424875Y-123589429D01*
X124424880Y-123589433D01*
X124552662Y-123682271D01*
X124571381Y-123695871D01*
X124647469Y-123734640D01*
X124732735Y-123778086D01*
X124732738Y-123778087D01*
X124818851Y-123806066D01*
X124904966Y-123834046D01*
X124987804Y-123847166D01*
X125083824Y-123862375D01*
X125083829Y-123862375D01*
X125264926Y-123862375D01*
X125351634Y-123848640D01*
X125443784Y-123834046D01*
X125616014Y-123778086D01*
X125777369Y-123695871D01*
X125923876Y-123589428D01*
X126051928Y-123461376D01*
X126158371Y-123314869D01*
X126240586Y-123153514D01*
X126296546Y-122981284D01*
X126311140Y-122889134D01*
X126324875Y-122802426D01*
X126324875Y-122621323D01*
X126307280Y-122510236D01*
X126296546Y-122442466D01*
X126254083Y-122311776D01*
X126240587Y-122270238D01*
X126240586Y-122270235D01*
X126206008Y-122202374D01*
X126158371Y-122108881D01*
X126133258Y-122074316D01*
X126051933Y-121962380D01*
X126051929Y-121962375D01*
X125923874Y-121834320D01*
X125923869Y-121834316D01*
X125777372Y-121727881D01*
X125777371Y-121727880D01*
X125777369Y-121727879D01*
X125701281Y-121689110D01*
X125616014Y-121645663D01*
X125616011Y-121645662D01*
X125443785Y-121589704D01*
X125264926Y-121561375D01*
X125264921Y-121561375D01*
X125083829Y-121561375D01*
X125083824Y-121561375D01*
X124904962Y-121589704D01*
X124735686Y-121644704D01*
X124720474Y-121645138D01*
X124706215Y-121650457D01*
X124686259Y-121646115D01*
X124665845Y-121646699D01*
X124651758Y-121638610D01*
X124637942Y-121635605D01*
X124609692Y-121614457D01*
X124491141Y-121495907D01*
X124457659Y-121434586D01*
X124454825Y-121408228D01*
X124454825Y-119730747D01*
X124474510Y-119663708D01*
X124491144Y-119643066D01*
X124558645Y-119575565D01*
X124637702Y-119438633D01*
X124678625Y-119285906D01*
X124678625Y-119127792D01*
X124637702Y-118975065D01*
X124616085Y-118937623D01*
X124558649Y-118838139D01*
X124558643Y-118838131D01*
X124446842Y-118726330D01*
X124446834Y-118726324D01*
X124309915Y-118647275D01*
X124309911Y-118647273D01*
X124309909Y-118647272D01*
X124157182Y-118606349D01*
X123999068Y-118606349D01*
X123846341Y-118647272D01*
X123846334Y-118647275D01*
X123709415Y-118726324D01*
X123709407Y-118726330D01*
X123597606Y-118838131D01*
X123597600Y-118838139D01*
X123518551Y-118975058D01*
X123518548Y-118975065D01*
X123477625Y-119127792D01*
X123477625Y-119285906D01*
X123515667Y-119427879D01*
X123518548Y-119438632D01*
X123518551Y-119438639D01*
X123597600Y-119575558D01*
X123597606Y-119575566D01*
X123665106Y-119643066D01*
X123698591Y-119704389D01*
X123701425Y-119730747D01*
X123701425Y-121558419D01*
X123701424Y-121558437D01*
X123701424Y-121665218D01*
X123707825Y-121689109D01*
X123707826Y-121689109D01*
X123707826Y-121689110D01*
X123727096Y-121761026D01*
X123776690Y-121846925D01*
X123776692Y-121846927D01*
X123853890Y-121924125D01*
X123853896Y-121924130D01*
X124076954Y-122147188D01*
X124110439Y-122208511D01*
X124107204Y-122273186D01*
X124052204Y-122442461D01*
X124026594Y-122604155D01*
X123996664Y-122667289D01*
X123937353Y-122704220D01*
X123867490Y-122703222D01*
X123809258Y-122664612D01*
X123781648Y-122604154D01*
X123756057Y-122442581D01*
X123700123Y-122270430D01*
X123700122Y-122270427D01*
X123617946Y-122109150D01*
X123617941Y-122109142D01*
X123606460Y-122093341D01*
X123117337Y-122582464D01*
X123100300Y-122518882D01*
X123034474Y-122404868D01*
X122941382Y-122311776D01*
X122827368Y-122245950D01*
X122763784Y-122228912D01*
X123252908Y-121739788D01*
X123237105Y-121728306D01*
X123075822Y-121646127D01*
X123075819Y-121646126D01*
X122903668Y-121590192D01*
X122724881Y-121561875D01*
X122543869Y-121561875D01*
X122365081Y-121590192D01*
X122192930Y-121646126D01*
X122192922Y-121646129D01*
X122031644Y-121728307D01*
X122015841Y-121739787D01*
X122015841Y-121739788D01*
X122504966Y-122228912D01*
X122441382Y-122245950D01*
X122327368Y-122311776D01*
X122234276Y-122404868D01*
X122168450Y-122518882D01*
X122151412Y-122582465D01*
X121662287Y-122093341D01*
X121650807Y-122109144D01*
X121568629Y-122270422D01*
X121568626Y-122270430D01*
X121512692Y-122442581D01*
X121491347Y-122577346D01*
X121461418Y-122640481D01*
X121402106Y-122677412D01*
X121332243Y-122676414D01*
X121274011Y-122637804D01*
X121245897Y-122573840D01*
X121244874Y-122557948D01*
X121244874Y-121817018D01*
X121244874Y-121817011D01*
X121243667Y-121806610D01*
X121243056Y-121801333D01*
X121243055Y-121801330D01*
X121241960Y-121791884D01*
X121196581Y-121689110D01*
X121117140Y-121609669D01*
X121073029Y-121590192D01*
X121014367Y-121564290D01*
X120989240Y-121561375D01*
X119199518Y-121561375D01*
X119199492Y-121561377D01*
X119174387Y-121564288D01*
X119174383Y-121564290D01*
X119071610Y-121609668D01*
X118992169Y-121689109D01*
X118946790Y-121791881D01*
X118946790Y-121791883D01*
X118943875Y-121817006D01*
X117998719Y-121817006D01*
X119094292Y-120721433D01*
X119094297Y-120721429D01*
X119104500Y-120711225D01*
X119104502Y-120711225D01*
X119174637Y-120641090D01*
X119224231Y-120555191D01*
X119249902Y-120459384D01*
X119249902Y-112615344D01*
X119269587Y-112548305D01*
X119322391Y-112502550D01*
X119391549Y-112492606D01*
X119414854Y-112498302D01*
X119513383Y-112532779D01*
X119528259Y-112534174D01*
X119543132Y-112535569D01*
X119543136Y-112535569D01*
X119989272Y-112535569D01*
X120002491Y-112534329D01*
X120019021Y-112532779D01*
X120019025Y-112532777D01*
X120019028Y-112532777D01*
X120105410Y-112502550D01*
X120144359Y-112488921D01*
X120199563Y-112448177D01*
X120265190Y-112424207D01*
X120333360Y-112439522D01*
X120382429Y-112489261D01*
X120397196Y-112547948D01*
X120397196Y-112662278D01*
X120402708Y-112708180D01*
X120407818Y-112750737D01*
X120463335Y-112891519D01*
X120554773Y-113012098D01*
X120675352Y-113103536D01*
X120675353Y-113103536D01*
X120675354Y-113103537D01*
X120816132Y-113159053D01*
X120904594Y-113169676D01*
X120904599Y-113169676D01*
X121890793Y-113169676D01*
X121890798Y-113169676D01*
X121979260Y-113159053D01*
X122120038Y-113103537D01*
X122240618Y-113012098D01*
X122332057Y-112891518D01*
X122382612Y-112763320D01*
X122425514Y-112708180D01*
X122491422Y-112684986D01*
X122559407Y-112701106D01*
X122607884Y-112751422D01*
X122613318Y-112763323D01*
X122663773Y-112891267D01*
X122663774Y-112891269D01*
X122755131Y-113011740D01*
X122875600Y-113103096D01*
X123016252Y-113158562D01*
X123104642Y-113169176D01*
X123347696Y-113169176D01*
X123847696Y-113169176D01*
X124090750Y-113169176D01*
X124179139Y-113158562D01*
X124319791Y-113103096D01*
X124440260Y-113011740D01*
X124531616Y-112891271D01*
X124587082Y-112750619D01*
X124597696Y-112662229D01*
X124597696Y-112519176D01*
X123847696Y-112519176D01*
X123847696Y-113169176D01*
X123347696Y-113169176D01*
X123347696Y-112393176D01*
X123367381Y-112326137D01*
X123420185Y-112280382D01*
X123471696Y-112269176D01*
X123597696Y-112269176D01*
X123597696Y-112143176D01*
X123617381Y-112076137D01*
X123670185Y-112030382D01*
X123721696Y-112019176D01*
X124603696Y-112019176D01*
X124670735Y-112038861D01*
X124716490Y-112091665D01*
X124727696Y-112143176D01*
X124727696Y-112158501D01*
X124728252Y-112160090D01*
X124807016Y-112266810D01*
X124913738Y-112345574D01*
X125038929Y-112389381D01*
X125038927Y-112389381D01*
X125041658Y-112389636D01*
X125541658Y-112389636D01*
X125544387Y-112389381D01*
X125669577Y-112345574D01*
X125776299Y-112266810D01*
X125855061Y-112160091D01*
X125889326Y-112062169D01*
X125541658Y-112062169D01*
X125541658Y-112389636D01*
X125041658Y-112389636D01*
X125041658Y-111936169D01*
X125061343Y-111869130D01*
X125114147Y-111823375D01*
X125165658Y-111812169D01*
X125291658Y-111812169D01*
X125291658Y-111686169D01*
X125311343Y-111619130D01*
X125364147Y-111573375D01*
X125415658Y-111562169D01*
X125889326Y-111562169D01*
X125855061Y-111464246D01*
X125812239Y-111406225D01*
X125788267Y-111340596D01*
X125803582Y-111272426D01*
X125812230Y-111258967D01*
X125855510Y-111200326D01*
X125899368Y-111074988D01*
X125902158Y-111045235D01*
X125902158Y-110659103D01*
X125899368Y-110629350D01*
X125899366Y-110629346D01*
X125899366Y-110629342D01*
X125855510Y-110504013D01*
X125855510Y-110504012D01*
X125776657Y-110397170D01*
X125669815Y-110318317D01*
X125669813Y-110318316D01*
X125544484Y-110274460D01*
X125544472Y-110274458D01*
X125514728Y-110271669D01*
X125514724Y-110271669D01*
X125326609Y-110271669D01*
X125261702Y-110252610D01*
X125261616Y-110252760D01*
X125260998Y-110252403D01*
X125259570Y-110251984D01*
X125256347Y-110249717D01*
X125163254Y-110195969D01*
X125089002Y-110176074D01*
X125061392Y-110168676D01*
X125061391Y-110168676D01*
X124703935Y-110168676D01*
X124636896Y-110148991D01*
X124591141Y-110096187D01*
X124588581Y-110090166D01*
X124532058Y-109946836D01*
X124532057Y-109946834D01*
X124440618Y-109826253D01*
X124357951Y-109763565D01*
X124316427Y-109707372D01*
X124311876Y-109637651D01*
X124345741Y-109576537D01*
X124370499Y-109557592D01*
X124500605Y-109481865D01*
X124528247Y-109475056D01*
X124554976Y-109465293D01*
X124561726Y-109466809D01*
X124568447Y-109465154D01*
X124595379Y-109474370D01*
X124623146Y-109480608D01*
X124634008Y-109487588D01*
X124634554Y-109487775D01*
X124634818Y-109488108D01*
X124636616Y-109489264D01*
X124713370Y-109545911D01*
X124838561Y-109589718D01*
X124838559Y-109589718D01*
X124841290Y-109589973D01*
X125341290Y-109589973D01*
X125344019Y-109589718D01*
X125469210Y-109545911D01*
X125546769Y-109488669D01*
X125612398Y-109464697D01*
X125680568Y-109480012D01*
X125694038Y-109488668D01*
X125773058Y-109546987D01*
X125898249Y-109590794D01*
X125898247Y-109590794D01*
X125900978Y-109591049D01*
X125900978Y-109263582D01*
X125463416Y-109263582D01*
X125459752Y-109262506D01*
X125341290Y-109262506D01*
X125341290Y-109589973D01*
X124841290Y-109589973D01*
X124841290Y-109262506D01*
X124412968Y-109262506D01*
X124407650Y-109262392D01*
X124167335Y-109252076D01*
X124136678Y-109241626D01*
X124105614Y-109232505D01*
X124103810Y-109230423D01*
X124101201Y-109229534D01*
X124081051Y-109204158D01*
X124059859Y-109179701D01*
X124059190Y-109176627D01*
X124057753Y-109174817D01*
X124056861Y-109165922D01*
X124048653Y-109128190D01*
X124048653Y-108876190D01*
X124068338Y-108809151D01*
X124121142Y-108763396D01*
X124172653Y-108752190D01*
X124726975Y-108752190D01*
X124762107Y-108762506D01*
X125778852Y-108762506D01*
X125779390Y-108762507D01*
X126027516Y-108763583D01*
X126060854Y-108773529D01*
X126094017Y-108783267D01*
X126094199Y-108783477D01*
X126094469Y-108783558D01*
X126117182Y-108810001D01*
X126139772Y-108836071D01*
X126139838Y-108836378D01*
X126139995Y-108836560D01*
X126140202Y-108838051D01*
X126150978Y-108887582D01*
X126150978Y-109013582D01*
X126276978Y-109013582D01*
X126344017Y-109033267D01*
X126389772Y-109086071D01*
X126400978Y-109137582D01*
X126400978Y-109591050D01*
X126418436Y-109606951D01*
X126426186Y-109608460D01*
X126476663Y-109656770D01*
X126493160Y-109718569D01*
X126493160Y-118240154D01*
X126493159Y-118240172D01*
X126493159Y-118247767D01*
X126493159Y-118346953D01*
X126518831Y-118442761D01*
X126568425Y-118528660D01*
X126568427Y-118528662D01*
X126645625Y-118605860D01*
X126645631Y-118605865D01*
X130426954Y-122387188D01*
X130460439Y-122448511D01*
X130457204Y-122513186D01*
X130402204Y-122682462D01*
X130373875Y-122861323D01*
X130373875Y-123042426D01*
X130402204Y-123221285D01*
X130458162Y-123393511D01*
X130458163Y-123393514D01*
X130540381Y-123554872D01*
X130646816Y-123701369D01*
X130646820Y-123701374D01*
X130774875Y-123829429D01*
X130774880Y-123829433D01*
X130902662Y-123922271D01*
X130921381Y-123935871D01*
X131026859Y-123989615D01*
X131082735Y-124018086D01*
X131082738Y-124018087D01*
X131168851Y-124046066D01*
X131254966Y-124074046D01*
X131337804Y-124087166D01*
X131433824Y-124102375D01*
X131433829Y-124102375D01*
X131614926Y-124102375D01*
X131701634Y-124088640D01*
X131793784Y-124074046D01*
X131966014Y-124018086D01*
X132127369Y-123935871D01*
X132273876Y-123829428D01*
X132401928Y-123701376D01*
X132508371Y-123554869D01*
X132590586Y-123393514D01*
X132646546Y-123221284D01*
X132663859Y-123111974D01*
X132674875Y-123042426D01*
X132674875Y-122861323D01*
X132651204Y-122711876D01*
X132646546Y-122682466D01*
X132599885Y-122538856D01*
X132590587Y-122510238D01*
X132590586Y-122510235D01*
X132536898Y-122404868D01*
X132508371Y-122348881D01*
X132453376Y-122273186D01*
X132401933Y-122202380D01*
X132401929Y-122202375D01*
X132273874Y-122074320D01*
X132273869Y-122074316D01*
X132127372Y-121967881D01*
X132127371Y-121967880D01*
X132127369Y-121967879D01*
X132075675Y-121941539D01*
X131966014Y-121885663D01*
X131966011Y-121885662D01*
X131793785Y-121829704D01*
X131633696Y-121804348D01*
X131570561Y-121774419D01*
X131533630Y-121715107D01*
X131534628Y-121645245D01*
X131573238Y-121587012D01*
X131633696Y-121559402D01*
X131703800Y-121548297D01*
X131793784Y-121534046D01*
X131966014Y-121478086D01*
X132127369Y-121395871D01*
X132273876Y-121289428D01*
X132401928Y-121161376D01*
X132508371Y-121014869D01*
X132590586Y-120853514D01*
X132646546Y-120681284D01*
X132666517Y-120555191D01*
X132674875Y-120502426D01*
X132674875Y-120321323D01*
X132658394Y-120217272D01*
X132646546Y-120142466D01*
X132590586Y-119970236D01*
X132590586Y-119970235D01*
X132559032Y-119908309D01*
X132508371Y-119808881D01*
X132451604Y-119730747D01*
X132401933Y-119662380D01*
X132401929Y-119662375D01*
X132273874Y-119534320D01*
X132273869Y-119534316D01*
X132127372Y-119427881D01*
X132127371Y-119427880D01*
X132127369Y-119427879D01*
X132026851Y-119376662D01*
X131966014Y-119345663D01*
X131966011Y-119345662D01*
X131793785Y-119289703D01*
X131632095Y-119264094D01*
X131568960Y-119234164D01*
X131532029Y-119174853D01*
X131533027Y-119104990D01*
X131571637Y-119046758D01*
X131632096Y-119019148D01*
X131793667Y-118993558D01*
X131965819Y-118937623D01*
X131965827Y-118937620D01*
X132127105Y-118855443D01*
X132142907Y-118843960D01*
X132142908Y-118843960D01*
X131653785Y-118354837D01*
X131717368Y-118337800D01*
X131831382Y-118271974D01*
X131924474Y-118178882D01*
X131990300Y-118064868D01*
X132007337Y-118001285D01*
X132496460Y-118490408D01*
X132496460Y-118490407D01*
X132507943Y-118474605D01*
X132590120Y-118313327D01*
X132590123Y-118313319D01*
X132646057Y-118141168D01*
X132674375Y-117962381D01*
X132674375Y-117781368D01*
X132646057Y-117602581D01*
X132590123Y-117430430D01*
X132590122Y-117430427D01*
X132507946Y-117269150D01*
X132507941Y-117269142D01*
X132496460Y-117253341D01*
X132007337Y-117742464D01*
X131990300Y-117678882D01*
X131924474Y-117564868D01*
X131831382Y-117471776D01*
X131717368Y-117405950D01*
X131653784Y-117388912D01*
X132142908Y-116899788D01*
X132127105Y-116888306D01*
X131965822Y-116806127D01*
X131965819Y-116806126D01*
X131793668Y-116750192D01*
X131632095Y-116724601D01*
X131568960Y-116694672D01*
X131532029Y-116635360D01*
X131533027Y-116565498D01*
X131571637Y-116507265D01*
X131632095Y-116479655D01*
X131646645Y-116477350D01*
X131793784Y-116454046D01*
X131966014Y-116398086D01*
X132127369Y-116315871D01*
X132273876Y-116209428D01*
X132401928Y-116081376D01*
X132508371Y-115934869D01*
X132590586Y-115773514D01*
X132646546Y-115601284D01*
X132661140Y-115509134D01*
X132674875Y-115422426D01*
X132674875Y-115241323D01*
X132658394Y-115137272D01*
X132646546Y-115062466D01*
X132599885Y-114918856D01*
X132590587Y-114890238D01*
X132590586Y-114890235D01*
X132556503Y-114823344D01*
X132508371Y-114728881D01*
X132494771Y-114710162D01*
X132401933Y-114582380D01*
X132401929Y-114582375D01*
X132273874Y-114454320D01*
X132273869Y-114454316D01*
X132127372Y-114347881D01*
X132127371Y-114347880D01*
X132127369Y-114347879D01*
X132026853Y-114296663D01*
X131966014Y-114265663D01*
X131966011Y-114265662D01*
X131793785Y-114209704D01*
X131633696Y-114184348D01*
X131570561Y-114154419D01*
X131533630Y-114095107D01*
X131534628Y-114025245D01*
X131573238Y-113967012D01*
X131633696Y-113939402D01*
X131703800Y-113928297D01*
X131793784Y-113914046D01*
X131966014Y-113858086D01*
X132127369Y-113775871D01*
X132273876Y-113669428D01*
X132401928Y-113541376D01*
X132508371Y-113394869D01*
X132590586Y-113233514D01*
X132646546Y-113061284D01*
X132661140Y-112969134D01*
X132674875Y-112882426D01*
X132674875Y-112701323D01*
X132650638Y-112548305D01*
X132646546Y-112522466D01*
X132592319Y-112355569D01*
X132590587Y-112350238D01*
X132590586Y-112350235D01*
X132554993Y-112280382D01*
X132508371Y-112188881D01*
X132437740Y-112091665D01*
X132401933Y-112042380D01*
X132401929Y-112042375D01*
X132273874Y-111914320D01*
X132273869Y-111914316D01*
X132127372Y-111807881D01*
X132127371Y-111807880D01*
X132127369Y-111807879D01*
X132062894Y-111775027D01*
X131966014Y-111725663D01*
X131966011Y-111725662D01*
X131793785Y-111669704D01*
X131633696Y-111644348D01*
X131570561Y-111614419D01*
X131533630Y-111555107D01*
X131534628Y-111485245D01*
X131573238Y-111427012D01*
X131633696Y-111399402D01*
X131703800Y-111388297D01*
X131793784Y-111374046D01*
X131966014Y-111318086D01*
X132127369Y-111235871D01*
X132273876Y-111129428D01*
X132401928Y-111001376D01*
X132508371Y-110854869D01*
X132590586Y-110693514D01*
X132646546Y-110521284D01*
X132666204Y-110397170D01*
X132674875Y-110342426D01*
X132674875Y-110161323D01*
X132652939Y-110022833D01*
X132646546Y-109982466D01*
X132598638Y-109835018D01*
X132590587Y-109810238D01*
X132590586Y-109810235D01*
X132543879Y-109718569D01*
X132508371Y-109648881D01*
X132465387Y-109589718D01*
X132401933Y-109502380D01*
X132401929Y-109502375D01*
X132273874Y-109374320D01*
X132273869Y-109374316D01*
X132127372Y-109267881D01*
X132127371Y-109267880D01*
X132127369Y-109267879D01*
X132053858Y-109230423D01*
X131966014Y-109185663D01*
X131966011Y-109185662D01*
X131793785Y-109129704D01*
X131633696Y-109104348D01*
X131570561Y-109074419D01*
X131533630Y-109015107D01*
X131534628Y-108945245D01*
X131573238Y-108887012D01*
X131633696Y-108859402D01*
X131703800Y-108848297D01*
X131793784Y-108834046D01*
X131966014Y-108778086D01*
X132127369Y-108695871D01*
X132273876Y-108589428D01*
X132401928Y-108461376D01*
X132508371Y-108314869D01*
X132590586Y-108153514D01*
X132646546Y-107981284D01*
X132672190Y-107819375D01*
X132674875Y-107802426D01*
X132674875Y-107621323D01*
X132658394Y-107517272D01*
X132646546Y-107442466D01*
X132590586Y-107270236D01*
X132590586Y-107270235D01*
X132562115Y-107214359D01*
X132508371Y-107108881D01*
X132479326Y-107068904D01*
X132401933Y-106962380D01*
X132401929Y-106962375D01*
X132273874Y-106834320D01*
X132273869Y-106834316D01*
X132127372Y-106727881D01*
X132127371Y-106727880D01*
X132127369Y-106727879D01*
X132053805Y-106690396D01*
X131966014Y-106645663D01*
X131966011Y-106645662D01*
X131793785Y-106589703D01*
X131632095Y-106564094D01*
X131568960Y-106534164D01*
X131532029Y-106474853D01*
X131533027Y-106404990D01*
X131571637Y-106346758D01*
X131632096Y-106319148D01*
X131793667Y-106293558D01*
X131965819Y-106237623D01*
X131965827Y-106237620D01*
X132127105Y-106155443D01*
X132142907Y-106143960D01*
X132142908Y-106143960D01*
X131653785Y-105654837D01*
X131717368Y-105637800D01*
X131831382Y-105571974D01*
X131924474Y-105478882D01*
X131990300Y-105364868D01*
X132007337Y-105301285D01*
X132496460Y-105790408D01*
X132496460Y-105790407D01*
X132507943Y-105774605D01*
X132590120Y-105613327D01*
X132590123Y-105613319D01*
X132646057Y-105441168D01*
X132674375Y-105262381D01*
X132674375Y-105081368D01*
X132646057Y-104902581D01*
X132590123Y-104730430D01*
X132590122Y-104730427D01*
X132507946Y-104569150D01*
X132507941Y-104569142D01*
X132496460Y-104553341D01*
X132007337Y-105042464D01*
X131990300Y-104978882D01*
X131924474Y-104864868D01*
X131831382Y-104771776D01*
X131717368Y-104705950D01*
X131653784Y-104688912D01*
X132142908Y-104199788D01*
X132127105Y-104188306D01*
X131965822Y-104106127D01*
X131965819Y-104106126D01*
X131793668Y-104050192D01*
X131632095Y-104024601D01*
X131568960Y-103994672D01*
X131532029Y-103935360D01*
X131533027Y-103865498D01*
X131571637Y-103807265D01*
X131632095Y-103779655D01*
X131646645Y-103777350D01*
X131793784Y-103754046D01*
X131966014Y-103698086D01*
X132127369Y-103615871D01*
X132273876Y-103509428D01*
X132401928Y-103381376D01*
X132508371Y-103234869D01*
X132590586Y-103073514D01*
X132646546Y-102901284D01*
X132667433Y-102769411D01*
X132674875Y-102722426D01*
X132674875Y-102541323D01*
X132650871Y-102389774D01*
X132646546Y-102362466D01*
X132611003Y-102253074D01*
X132590587Y-102190238D01*
X132590586Y-102190235D01*
X132534310Y-102079789D01*
X132508371Y-102028881D01*
X132459540Y-101961670D01*
X132401933Y-101882380D01*
X132401929Y-101882375D01*
X132273874Y-101754320D01*
X132273869Y-101754316D01*
X132127372Y-101647881D01*
X132127371Y-101647880D01*
X132127369Y-101647879D01*
X132066089Y-101616655D01*
X131966014Y-101565663D01*
X131966011Y-101565662D01*
X131793785Y-101509704D01*
X131633696Y-101484348D01*
X131570561Y-101454419D01*
X131533630Y-101395107D01*
X131534628Y-101325245D01*
X131573238Y-101267012D01*
X131633696Y-101239402D01*
X131705416Y-101228042D01*
X131793784Y-101214046D01*
X131966014Y-101158086D01*
X132127369Y-101075871D01*
X132273876Y-100969428D01*
X132401928Y-100841376D01*
X132508371Y-100694869D01*
X132590586Y-100533514D01*
X132646546Y-100361284D01*
X132665884Y-100239191D01*
X132674875Y-100182426D01*
X132674875Y-100001323D01*
X132652351Y-99859120D01*
X132646546Y-99822466D01*
X132590586Y-99650236D01*
X132590586Y-99650235D01*
X132562115Y-99594359D01*
X132508371Y-99488881D01*
X132428172Y-99378496D01*
X132401933Y-99342380D01*
X132401929Y-99342375D01*
X132273874Y-99214320D01*
X132273869Y-99214316D01*
X132127372Y-99107881D01*
X132127371Y-99107880D01*
X132127369Y-99107879D01*
X132055805Y-99071415D01*
X131966014Y-99025663D01*
X131966011Y-99025662D01*
X131793785Y-98969704D01*
X131633696Y-98944348D01*
X131570561Y-98914419D01*
X131533630Y-98855107D01*
X131534628Y-98785245D01*
X131573238Y-98727012D01*
X131633696Y-98699402D01*
X131703800Y-98688297D01*
X131793784Y-98674046D01*
X131966014Y-98618086D01*
X132127369Y-98535871D01*
X132273876Y-98429428D01*
X132401928Y-98301376D01*
X132508371Y-98154869D01*
X132590586Y-97993514D01*
X132646546Y-97821284D01*
X132664778Y-97706174D01*
X132674875Y-97642426D01*
X132674875Y-97461323D01*
X132647765Y-97290164D01*
X132646546Y-97282466D01*
X132610651Y-97171991D01*
X132590587Y-97110238D01*
X132590586Y-97110235D01*
X132547515Y-97025705D01*
X132508371Y-96948881D01*
X132451095Y-96870047D01*
X132401933Y-96802380D01*
X132401929Y-96802375D01*
X132273874Y-96674320D01*
X132273869Y-96674316D01*
X132127372Y-96567881D01*
X132127371Y-96567880D01*
X132127369Y-96567879D01*
X132075675Y-96541539D01*
X131966014Y-96485663D01*
X131966011Y-96485662D01*
X131793785Y-96429704D01*
X131633696Y-96404348D01*
X131570561Y-96374419D01*
X131533630Y-96315107D01*
X131534628Y-96245245D01*
X131573238Y-96187012D01*
X131633696Y-96159402D01*
X131703800Y-96148297D01*
X131793784Y-96134046D01*
X131966014Y-96078086D01*
X132127369Y-95995871D01*
X132273876Y-95889428D01*
X132401928Y-95761376D01*
X132508371Y-95614869D01*
X132590586Y-95453514D01*
X132646546Y-95281284D01*
X132665477Y-95161761D01*
X132674875Y-95102426D01*
X132674875Y-94921323D01*
X132656452Y-94805013D01*
X132646546Y-94742466D01*
X132596229Y-94587604D01*
X132590587Y-94570238D01*
X132590586Y-94570235D01*
X132557942Y-94506169D01*
X132508371Y-94408881D01*
X132463791Y-94347521D01*
X132401933Y-94262380D01*
X132401929Y-94262375D01*
X132273874Y-94134320D01*
X132273869Y-94134316D01*
X132127372Y-94027881D01*
X132127371Y-94027880D01*
X132127369Y-94027879D01*
X132075675Y-94001539D01*
X131966014Y-93945663D01*
X131966011Y-93945662D01*
X131793785Y-93889703D01*
X131632095Y-93864094D01*
X131568960Y-93834164D01*
X131532029Y-93774853D01*
X131533027Y-93704990D01*
X131571637Y-93646758D01*
X131632096Y-93619148D01*
X131793667Y-93593558D01*
X131965819Y-93537623D01*
X131965827Y-93537620D01*
X132127105Y-93455443D01*
X132142907Y-93443960D01*
X132142908Y-93443960D01*
X131653785Y-92954837D01*
X131717368Y-92937800D01*
X131831382Y-92871974D01*
X131924474Y-92778882D01*
X131990300Y-92664868D01*
X132007337Y-92601285D01*
X132496460Y-93090408D01*
X132496460Y-93090407D01*
X132507943Y-93074605D01*
X132590120Y-92913327D01*
X132590123Y-92913319D01*
X132646057Y-92741168D01*
X132674375Y-92562381D01*
X132674375Y-92381368D01*
X132646057Y-92202581D01*
X132590123Y-92030430D01*
X132590122Y-92030427D01*
X132507946Y-91869150D01*
X132507941Y-91869142D01*
X132496460Y-91853341D01*
X132007337Y-92342464D01*
X131990300Y-92278882D01*
X131924474Y-92164868D01*
X131831382Y-92071776D01*
X131717368Y-92005950D01*
X131653784Y-91988912D01*
X132142908Y-91499788D01*
X132127105Y-91488306D01*
X131965822Y-91406127D01*
X131965819Y-91406126D01*
X131793668Y-91350192D01*
X131632095Y-91324601D01*
X131568960Y-91294672D01*
X131532029Y-91235360D01*
X131533027Y-91165498D01*
X131571637Y-91107265D01*
X131632095Y-91079655D01*
X131646645Y-91077350D01*
X131793784Y-91054046D01*
X131966014Y-90998086D01*
X132127369Y-90915871D01*
X132273876Y-90809428D01*
X132401928Y-90681376D01*
X132508371Y-90534869D01*
X132590586Y-90373514D01*
X132646546Y-90201284D01*
X132661140Y-90109134D01*
X132674875Y-90022426D01*
X132674875Y-89841323D01*
X132657562Y-89732017D01*
X132646546Y-89662466D01*
X132594398Y-89501968D01*
X132590587Y-89490238D01*
X132590586Y-89490235D01*
X132551888Y-89414288D01*
X132508371Y-89328881D01*
X132494771Y-89310162D01*
X132401933Y-89182380D01*
X132401929Y-89182375D01*
X132273874Y-89054320D01*
X132273869Y-89054316D01*
X132127372Y-88947881D01*
X132127371Y-88947880D01*
X132127369Y-88947879D01*
X132039590Y-88903153D01*
X131966014Y-88865663D01*
X131966011Y-88865662D01*
X131793785Y-88809704D01*
X131633696Y-88784348D01*
X131570561Y-88754419D01*
X131533630Y-88695107D01*
X131534628Y-88625245D01*
X131573238Y-88567012D01*
X131633696Y-88539402D01*
X131703800Y-88528297D01*
X131793784Y-88514046D01*
X131966014Y-88458086D01*
X132127369Y-88375871D01*
X132273876Y-88269428D01*
X132401928Y-88141376D01*
X132508371Y-87994869D01*
X132590586Y-87833514D01*
X132646546Y-87661284D01*
X132669538Y-87516120D01*
X132674875Y-87482426D01*
X132674875Y-87301323D01*
X132655376Y-87178218D01*
X132646546Y-87122466D01*
X132606985Y-87000707D01*
X132590587Y-86950238D01*
X132590586Y-86950235D01*
X132544149Y-86859099D01*
X132508371Y-86788881D01*
X132435323Y-86688338D01*
X132401933Y-86642380D01*
X132401929Y-86642375D01*
X132273874Y-86514320D01*
X132273869Y-86514316D01*
X132127372Y-86407881D01*
X132127371Y-86407880D01*
X132127369Y-86407879D01*
X132063116Y-86375140D01*
X131966014Y-86325663D01*
X131966011Y-86325662D01*
X131793785Y-86269704D01*
X131633696Y-86244348D01*
X131570561Y-86214419D01*
X131533630Y-86155107D01*
X131534628Y-86085245D01*
X131573238Y-86027012D01*
X131633696Y-85999402D01*
X131703800Y-85988297D01*
X131793784Y-85974046D01*
X131966014Y-85918086D01*
X132127369Y-85835871D01*
X132273876Y-85729428D01*
X132401928Y-85601376D01*
X132508371Y-85454869D01*
X132590586Y-85293514D01*
X132646546Y-85121284D01*
X132663658Y-85013245D01*
X132674875Y-84942426D01*
X132674875Y-84761323D01*
X132657610Y-84652324D01*
X132646546Y-84582466D01*
X132609719Y-84469122D01*
X132590587Y-84410238D01*
X132590586Y-84410235D01*
X132548163Y-84326977D01*
X132508371Y-84248881D01*
X132494771Y-84230162D01*
X132401933Y-84102380D01*
X132401929Y-84102375D01*
X132273874Y-83974320D01*
X132273869Y-83974316D01*
X132127372Y-83867881D01*
X132127371Y-83867880D01*
X132127369Y-83867879D01*
X132047095Y-83826977D01*
X131966014Y-83785663D01*
X131966011Y-83785662D01*
X131793785Y-83729704D01*
X131633696Y-83704348D01*
X131570561Y-83674419D01*
X131533630Y-83615107D01*
X131534628Y-83545245D01*
X131573238Y-83487012D01*
X131633696Y-83459402D01*
X131703800Y-83448297D01*
X131793784Y-83434046D01*
X131966014Y-83378086D01*
X132127369Y-83295871D01*
X132273876Y-83189428D01*
X132401928Y-83061376D01*
X132508371Y-82914869D01*
X132590586Y-82753514D01*
X132646546Y-82581284D01*
X132661140Y-82489134D01*
X132674875Y-82402426D01*
X132674875Y-82221323D01*
X132652393Y-82079384D01*
X132646546Y-82042466D01*
X132590586Y-81870236D01*
X132590586Y-81870235D01*
X132529755Y-81750850D01*
X132508371Y-81708881D01*
X132450144Y-81628738D01*
X132401933Y-81562380D01*
X132401929Y-81562375D01*
X132273874Y-81434320D01*
X132273869Y-81434316D01*
X132127372Y-81327881D01*
X132127371Y-81327880D01*
X132127369Y-81327879D01*
X132057595Y-81292327D01*
X131966014Y-81245663D01*
X131966011Y-81245662D01*
X131793785Y-81189703D01*
X131632095Y-81164094D01*
X131568960Y-81134164D01*
X131532029Y-81074853D01*
X131533027Y-81004990D01*
X131571637Y-80946758D01*
X131632096Y-80919148D01*
X131793667Y-80893558D01*
X131965819Y-80837623D01*
X131965827Y-80837620D01*
X132127105Y-80755443D01*
X132142907Y-80743960D01*
X132142908Y-80743960D01*
X131653785Y-80254837D01*
X131717368Y-80237800D01*
X131831382Y-80171974D01*
X131924474Y-80078882D01*
X131990300Y-79964868D01*
X132007337Y-79901285D01*
X132496460Y-80390408D01*
X132496460Y-80390407D01*
X132507943Y-80374605D01*
X132590120Y-80213327D01*
X132590123Y-80213319D01*
X132646057Y-80041168D01*
X132674375Y-79862381D01*
X132674375Y-79681368D01*
X132646057Y-79502581D01*
X132590123Y-79330430D01*
X132590122Y-79330427D01*
X132507946Y-79169150D01*
X132507941Y-79169142D01*
X132496460Y-79153341D01*
X132007337Y-79642464D01*
X131990300Y-79578882D01*
X131924474Y-79464868D01*
X131831382Y-79371776D01*
X131717368Y-79305950D01*
X131653784Y-79288912D01*
X132142908Y-78799788D01*
X132127105Y-78788306D01*
X131965822Y-78706127D01*
X131965819Y-78706126D01*
X131793668Y-78650192D01*
X131632095Y-78624601D01*
X131568960Y-78594672D01*
X131532029Y-78535360D01*
X131533027Y-78465498D01*
X131571637Y-78407265D01*
X131632095Y-78379655D01*
X131646645Y-78377350D01*
X131793784Y-78354046D01*
X131966014Y-78298086D01*
X132127369Y-78215871D01*
X132273876Y-78109428D01*
X132401928Y-77981376D01*
X132508371Y-77834869D01*
X132590586Y-77673514D01*
X132646546Y-77501284D01*
X132665307Y-77382834D01*
X132674875Y-77322426D01*
X132674875Y-77141323D01*
X132658394Y-77037272D01*
X132646546Y-76962466D01*
X132600176Y-76819750D01*
X132590587Y-76790238D01*
X132590586Y-76790235D01*
X132519117Y-76649972D01*
X132508371Y-76628881D01*
X132479482Y-76589118D01*
X132401933Y-76482380D01*
X132401929Y-76482375D01*
X132273874Y-76354320D01*
X132273869Y-76354316D01*
X132127372Y-76247881D01*
X132127371Y-76247880D01*
X132127369Y-76247879D01*
X132075675Y-76221539D01*
X131966014Y-76165663D01*
X131966011Y-76165662D01*
X131793785Y-76109704D01*
X131662102Y-76088847D01*
X131598967Y-76058918D01*
X131562036Y-75999606D01*
X131563034Y-75929743D01*
X131601644Y-75871511D01*
X131665608Y-75843397D01*
X131681500Y-75842374D01*
X132419231Y-75842374D01*
X132419239Y-75842374D01*
X132419254Y-75842372D01*
X132419257Y-75842372D01*
X132444362Y-75839461D01*
X132444363Y-75839460D01*
X132444366Y-75839460D01*
X132547140Y-75794081D01*
X132626581Y-75714640D01*
X132671960Y-75611866D01*
X132674875Y-75586740D01*
X132674874Y-73797011D01*
X132674872Y-73796992D01*
X132671961Y-73771887D01*
X132671960Y-73771885D01*
X132671960Y-73771884D01*
X132626581Y-73669110D01*
X132547140Y-73589669D01*
X132547138Y-73589668D01*
X132444367Y-73544290D01*
X132419240Y-73541375D01*
X130629518Y-73541375D01*
X130629492Y-73541377D01*
X130604387Y-73544288D01*
X130604383Y-73544290D01*
X130501610Y-73589668D01*
X130422169Y-73669109D01*
X130376790Y-73771881D01*
X130376790Y-73771883D01*
X130373875Y-73797006D01*
X130373875Y-75224619D01*
X130354190Y-75291658D01*
X130337556Y-75312300D01*
X128267022Y-77382834D01*
X128267018Y-77382840D01*
X128214292Y-77474162D01*
X128214293Y-77474163D01*
X128187000Y-77576023D01*
X128187000Y-78716963D01*
X128167315Y-78784002D01*
X128150681Y-78804644D01*
X127789769Y-79165556D01*
X127728446Y-79199041D01*
X127702088Y-79201875D01*
X127254375Y-79201875D01*
X127254375Y-78701875D01*
X127754375Y-78701875D01*
X127754375Y-78323081D01*
X127754374Y-78323077D01*
X127723633Y-78168531D01*
X127723631Y-78168523D01*
X127663327Y-78022935D01*
X127663322Y-78022926D01*
X127575776Y-77891905D01*
X127575773Y-77891901D01*
X127464348Y-77780476D01*
X127464344Y-77780473D01*
X127333323Y-77692927D01*
X127333313Y-77692922D01*
X127204375Y-77639514D01*
X127204375Y-78234886D01*
X127194435Y-78217670D01*
X127138580Y-78161815D01*
X127070171Y-78122319D01*
X126993871Y-78101875D01*
X126914879Y-78101875D01*
X126838579Y-78122319D01*
X126770170Y-78161815D01*
X126714315Y-78217670D01*
X126704375Y-78234886D01*
X126704375Y-77639514D01*
X126704374Y-77639514D01*
X126575436Y-77692922D01*
X126575426Y-77692927D01*
X126444405Y-77780473D01*
X126444401Y-77780476D01*
X126332976Y-77891901D01*
X126332973Y-77891905D01*
X126245427Y-78022926D01*
X126245424Y-78022932D01*
X126221821Y-78079915D01*
X126177979Y-78134318D01*
X126111685Y-78156382D01*
X126043986Y-78139102D01*
X125999873Y-78094462D01*
X125998829Y-78092653D01*
X125984890Y-78068510D01*
X125877740Y-77961360D01*
X125812125Y-77923477D01*
X125746511Y-77885594D01*
X125673325Y-77865984D01*
X125600141Y-77846375D01*
X125448609Y-77846375D01*
X125302238Y-77885594D01*
X125171010Y-77961360D01*
X125171007Y-77961362D01*
X125063862Y-78068507D01*
X125063860Y-78068510D01*
X124988093Y-78199740D01*
X124988093Y-78199741D01*
X124975494Y-78246760D01*
X124939128Y-78306420D01*
X124876281Y-78336948D01*
X124806906Y-78328653D01*
X124768039Y-78302346D01*
X124500652Y-78034959D01*
X124500650Y-78034957D01*
X124454987Y-78008593D01*
X124409326Y-77982230D01*
X124358394Y-77968583D01*
X124307464Y-77954937D01*
X124307463Y-77954937D01*
X120838920Y-77954937D01*
X120823544Y-77954937D01*
X120823540Y-77954936D01*
X120718086Y-77954936D01*
X120619413Y-77981376D01*
X120616226Y-77982230D01*
X120545739Y-78022926D01*
X120524897Y-78034959D01*
X120450332Y-78109524D01*
X120450331Y-78109526D01*
X120429928Y-78129929D01*
X120424007Y-78135850D01*
X120362683Y-78169334D01*
X120292991Y-78164348D01*
X120237058Y-78122476D01*
X120228948Y-78110180D01*
X120204890Y-78068510D01*
X120097740Y-77961360D01*
X120032125Y-77923477D01*
X119966511Y-77885594D01*
X119893325Y-77865984D01*
X119820141Y-77846375D01*
X119668609Y-77846375D01*
X119522238Y-77885594D01*
X119391010Y-77961360D01*
X119391007Y-77961362D01*
X119283862Y-78068507D01*
X119283856Y-78068516D01*
X119268874Y-78094464D01*
X119218306Y-78142678D01*
X119149699Y-78155899D01*
X119084835Y-78129929D01*
X119046928Y-78079913D01*
X119023329Y-78022939D01*
X119023322Y-78022926D01*
X118935776Y-77891905D01*
X118935773Y-77891901D01*
X118824348Y-77780476D01*
X118824344Y-77780473D01*
X118693323Y-77692927D01*
X118693313Y-77692922D01*
X118564375Y-77639514D01*
X118564375Y-78234886D01*
X118554435Y-78217670D01*
X118498580Y-78161815D01*
X118430171Y-78122319D01*
X118353871Y-78101875D01*
X118274879Y-78101875D01*
X118198579Y-78122319D01*
X118130170Y-78161815D01*
X118074315Y-78217670D01*
X118064375Y-78234886D01*
X118064375Y-77639514D01*
X118064374Y-77639514D01*
X117935436Y-77692922D01*
X117935426Y-77692927D01*
X117804405Y-77780473D01*
X117804401Y-77780476D01*
X117692976Y-77891901D01*
X117692973Y-77891905D01*
X117605427Y-78022926D01*
X117605422Y-78022935D01*
X117545118Y-78168523D01*
X117545116Y-78168531D01*
X117514375Y-78323077D01*
X117514375Y-78701875D01*
X118014375Y-78701875D01*
X118014375Y-79201875D01*
X117514375Y-79201875D01*
X117514375Y-79580672D01*
X117545116Y-79735218D01*
X117545118Y-79735226D01*
X117605422Y-79880814D01*
X117605427Y-79880823D01*
X117692973Y-80011844D01*
X117692976Y-80011848D01*
X117804401Y-80123273D01*
X117804409Y-80123279D01*
X117935422Y-80210819D01*
X117935440Y-80210829D01*
X118064374Y-80264235D01*
X118064375Y-80264235D01*
X118064375Y-79668863D01*
X118074315Y-79686080D01*
X118130170Y-79741935D01*
X118198579Y-79781431D01*
X118274879Y-79801875D01*
X118353871Y-79801875D01*
X118430171Y-79781431D01*
X118498580Y-79741935D01*
X118554435Y-79686080D01*
X118564375Y-79668863D01*
X118564375Y-80264234D01*
X118612922Y-80244126D01*
X118682392Y-80236657D01*
X118744871Y-80267932D01*
X118780523Y-80328021D01*
X118784375Y-80358687D01*
X118784375Y-80636660D01*
X118784377Y-80636683D01*
X118787283Y-80661744D01*
X118787284Y-80661748D01*
X118832586Y-80764349D01*
X118832589Y-80764354D01*
X118911895Y-80843660D01*
X118911900Y-80843663D01*
X119014498Y-80888964D01*
X119039581Y-80891874D01*
X119134375Y-80891873D01*
X119134375Y-80116875D01*
X118778375Y-80116875D01*
X118711336Y-80097190D01*
X118665581Y-80044386D01*
X118654375Y-79992875D01*
X118654375Y-79740875D01*
X118674060Y-79673836D01*
X118726864Y-79628081D01*
X118778375Y-79616875D01*
X119260375Y-79616875D01*
X119327414Y-79636560D01*
X119373169Y-79689364D01*
X119384375Y-79740875D01*
X119384375Y-79866875D01*
X119459876Y-79866875D01*
X119526915Y-79886560D01*
X119572670Y-79939364D01*
X119583876Y-79990875D01*
X119583876Y-80636731D01*
X119583877Y-80636757D01*
X119586788Y-80661861D01*
X119613128Y-80721515D01*
X119622199Y-80790794D01*
X119592375Y-80853978D01*
X119587374Y-80859282D01*
X119281512Y-81165144D01*
X119234787Y-81194504D01*
X119185691Y-81211683D01*
X119076423Y-81292327D01*
X118995780Y-81401594D01*
X118995779Y-81401596D01*
X118950926Y-81529775D01*
X118950926Y-81529777D01*
X118948073Y-81560207D01*
X118948073Y-82843746D01*
X118950926Y-82874176D01*
X118952537Y-82881550D01*
X118949996Y-82882104D01*
X118952916Y-82939500D01*
X118918177Y-83000121D01*
X118900038Y-83009546D01*
X118900818Y-83010645D01*
X118848573Y-83047714D01*
X118848573Y-83826977D01*
X119198572Y-83826977D01*
X119198572Y-83435280D01*
X119195721Y-83404872D01*
X119194871Y-83402443D01*
X119194773Y-83400529D01*
X119194111Y-83397497D01*
X119194612Y-83397387D01*
X119191306Y-83332665D01*
X119226032Y-83272036D01*
X119288024Y-83239805D01*
X119323489Y-83238025D01*
X119344304Y-83239977D01*
X119344307Y-83239977D01*
X119752838Y-83239977D01*
X119752839Y-83239977D01*
X119773105Y-83238076D01*
X119841689Y-83251413D01*
X119892176Y-83299714D01*
X119908535Y-83367641D01*
X119901731Y-83402477D01*
X119900927Y-83404775D01*
X119900926Y-83404777D01*
X119898073Y-83435207D01*
X119898073Y-84718746D01*
X119900926Y-84749176D01*
X119900926Y-84749178D01*
X119945697Y-84877122D01*
X119945780Y-84877359D01*
X120026423Y-84986627D01*
X120051706Y-85005286D01*
X120068180Y-85026983D01*
X120087306Y-85046371D01*
X120088994Y-85054396D01*
X120093957Y-85060932D01*
X120096085Y-85088091D01*
X120101694Y-85114743D01*
X120098775Y-85122409D01*
X120099416Y-85130588D01*
X120086525Y-85154582D01*
X120076833Y-85180040D01*
X120068357Y-85188401D01*
X120066350Y-85192138D01*
X120051707Y-85204827D01*
X120041629Y-85212265D01*
X119976001Y-85236236D01*
X119907830Y-85220921D01*
X119894362Y-85212266D01*
X119867089Y-85192138D01*
X119824885Y-85160990D01*
X119824883Y-85160989D01*
X119693857Y-85115140D01*
X119662754Y-85112224D01*
X119231798Y-85112224D01*
X119228914Y-85112360D01*
X119228907Y-85112224D01*
X119228907Y-85112210D01*
X119228847Y-85110934D01*
X119165692Y-85098583D01*
X119115258Y-85050229D01*
X119098972Y-84982283D01*
X119122006Y-84916320D01*
X119123045Y-84914890D01*
X119150919Y-84877121D01*
X119195722Y-84749081D01*
X119195722Y-84749077D01*
X119198573Y-84718683D01*
X119198573Y-84326977D01*
X117998574Y-84326977D01*
X117998574Y-84718673D01*
X118001424Y-84749083D01*
X118046226Y-84877122D01*
X118119172Y-84975960D01*
X118143143Y-85041589D01*
X118127827Y-85109760D01*
X118082340Y-85156434D01*
X118071845Y-85162616D01*
X117996145Y-85189105D01*
X117884452Y-85271538D01*
X117882533Y-85274137D01*
X117869052Y-85282079D01*
X117841148Y-85289107D01*
X117814118Y-85298980D01*
X117807540Y-85297572D01*
X117801299Y-85299145D01*
X117777539Y-85291153D01*
X117748177Y-85284872D01*
X117742824Y-85282043D01*
X117611798Y-85236194D01*
X117580695Y-85233278D01*
X117149751Y-85233278D01*
X117135454Y-85234618D01*
X117118639Y-85236195D01*
X117118636Y-85236195D01*
X117118635Y-85236196D01*
X117118633Y-85236196D01*
X116987611Y-85282043D01*
X116983778Y-85284872D01*
X116964663Y-85298980D01*
X116950475Y-85309451D01*
X116884846Y-85333421D01*
X116816676Y-85318105D01*
X116767608Y-85268365D01*
X116752842Y-85209680D01*
X116752842Y-83827303D01*
X116752842Y-83827301D01*
X116727171Y-83731494D01*
X116677577Y-83645595D01*
X116607442Y-83575460D01*
X116607441Y-83575459D01*
X116603111Y-83571129D01*
X116603100Y-83571119D01*
X116467251Y-83435270D01*
X117998573Y-83435270D01*
X117998573Y-83826977D01*
X118348573Y-83826977D01*
X118348573Y-83047714D01*
X118348572Y-83047714D01*
X118235928Y-83087130D01*
X118126780Y-83167684D01*
X118046226Y-83276831D01*
X118001423Y-83404872D01*
X118001423Y-83404876D01*
X117998573Y-83435270D01*
X116467251Y-83435270D01*
X116104231Y-83072250D01*
X116070746Y-83010927D01*
X116067912Y-82984569D01*
X116067912Y-76589120D01*
X116067912Y-76589118D01*
X116042241Y-76493311D01*
X116035926Y-76482374D01*
X116029775Y-76471720D01*
X115992647Y-76407412D01*
X115922512Y-76337277D01*
X115922511Y-76337276D01*
X115918181Y-76332946D01*
X115918170Y-76332936D01*
X114931193Y-75345959D01*
X114897708Y-75284636D01*
X114894874Y-75258278D01*
X114894874Y-74393077D01*
X117514375Y-74393077D01*
X117514375Y-74521875D01*
X118014375Y-74521875D01*
X118014375Y-75021875D01*
X117514375Y-75021875D01*
X117514375Y-75150672D01*
X117545116Y-75305218D01*
X117545118Y-75305226D01*
X117605422Y-75450814D01*
X117605427Y-75450823D01*
X117692973Y-75581844D01*
X117692976Y-75581848D01*
X117804401Y-75693273D01*
X117804409Y-75693279D01*
X117935422Y-75780819D01*
X117935440Y-75780829D01*
X118064374Y-75834235D01*
X118064375Y-75834235D01*
X118064375Y-75238863D01*
X118074315Y-75256080D01*
X118130170Y-75311935D01*
X118198579Y-75351431D01*
X118274879Y-75371875D01*
X118353871Y-75371875D01*
X118430171Y-75351431D01*
X118498580Y-75311935D01*
X118554435Y-75256080D01*
X118564375Y-75238863D01*
X118564375Y-75834235D01*
X118693309Y-75780829D01*
X118693327Y-75780819D01*
X118824340Y-75693279D01*
X118824348Y-75693273D01*
X118935773Y-75581848D01*
X118935776Y-75581844D01*
X119023322Y-75450823D01*
X119023327Y-75450814D01*
X119083631Y-75305226D01*
X119083633Y-75305218D01*
X119114374Y-75150672D01*
X119114375Y-75150669D01*
X119114375Y-75021875D01*
X118614375Y-75021875D01*
X118614375Y-74521875D01*
X119114375Y-74521875D01*
X119114375Y-74393081D01*
X119114374Y-74393077D01*
X126154375Y-74393077D01*
X126154375Y-74521875D01*
X126654375Y-74521875D01*
X126654375Y-75021875D01*
X126154375Y-75021875D01*
X126154375Y-75150672D01*
X126185116Y-75305218D01*
X126185118Y-75305226D01*
X126245422Y-75450814D01*
X126245427Y-75450823D01*
X126332973Y-75581844D01*
X126332976Y-75581848D01*
X126444401Y-75693273D01*
X126444409Y-75693279D01*
X126575422Y-75780819D01*
X126575440Y-75780829D01*
X126704374Y-75834235D01*
X126704375Y-75834235D01*
X126704375Y-75238863D01*
X126714315Y-75256080D01*
X126770170Y-75311935D01*
X126838579Y-75351431D01*
X126914879Y-75371875D01*
X126993871Y-75371875D01*
X127070171Y-75351431D01*
X127138580Y-75311935D01*
X127194435Y-75256080D01*
X127204375Y-75238863D01*
X127204375Y-75834235D01*
X127333309Y-75780829D01*
X127333327Y-75780819D01*
X127464340Y-75693279D01*
X127464348Y-75693273D01*
X127575773Y-75581848D01*
X127575776Y-75581844D01*
X127663322Y-75450823D01*
X127663327Y-75450814D01*
X127723631Y-75305226D01*
X127723633Y-75305218D01*
X127754374Y-75150672D01*
X127754375Y-75150669D01*
X127754375Y-75021875D01*
X127254375Y-75021875D01*
X127254375Y-74521875D01*
X127754375Y-74521875D01*
X127754375Y-74393081D01*
X127754374Y-74393077D01*
X127723633Y-74238531D01*
X127723631Y-74238523D01*
X127663327Y-74092935D01*
X127663322Y-74092926D01*
X127575776Y-73961905D01*
X127575773Y-73961901D01*
X127464348Y-73850476D01*
X127464344Y-73850473D01*
X127333323Y-73762927D01*
X127333313Y-73762922D01*
X127204375Y-73709514D01*
X127204375Y-74304886D01*
X127194435Y-74287670D01*
X127138580Y-74231815D01*
X127070171Y-74192319D01*
X126993871Y-74171875D01*
X126914879Y-74171875D01*
X126838579Y-74192319D01*
X126770170Y-74231815D01*
X126714315Y-74287670D01*
X126704375Y-74304886D01*
X126704375Y-73709514D01*
X126704374Y-73709514D01*
X126575436Y-73762922D01*
X126575426Y-73762927D01*
X126444405Y-73850473D01*
X126444401Y-73850476D01*
X126332976Y-73961901D01*
X126332973Y-73961905D01*
X126245427Y-74092926D01*
X126245422Y-74092935D01*
X126185118Y-74238523D01*
X126185116Y-74238531D01*
X126154375Y-74393077D01*
X119114374Y-74393077D01*
X119083633Y-74238531D01*
X119083631Y-74238523D01*
X119023327Y-74092935D01*
X119023322Y-74092926D01*
X118935776Y-73961905D01*
X118935773Y-73961901D01*
X118824348Y-73850476D01*
X118824344Y-73850473D01*
X118693323Y-73762927D01*
X118693313Y-73762922D01*
X118564375Y-73709514D01*
X118564375Y-74304886D01*
X118554435Y-74287670D01*
X118498580Y-74231815D01*
X118430171Y-74192319D01*
X118353871Y-74171875D01*
X118274879Y-74171875D01*
X118198579Y-74192319D01*
X118130170Y-74231815D01*
X118074315Y-74287670D01*
X118064375Y-74304886D01*
X118064375Y-73709514D01*
X118064374Y-73709514D01*
X117935436Y-73762922D01*
X117935426Y-73762927D01*
X117804405Y-73850473D01*
X117804401Y-73850476D01*
X117692976Y-73961901D01*
X117692973Y-73961905D01*
X117605427Y-74092926D01*
X117605422Y-74092935D01*
X117545118Y-74238523D01*
X117545116Y-74238531D01*
X117514375Y-74393077D01*
X114894874Y-74393077D01*
X114894874Y-73797018D01*
X114894874Y-73797011D01*
X114894872Y-73796992D01*
X114891961Y-73771887D01*
X114891960Y-73771885D01*
X114891960Y-73771884D01*
X114846581Y-73669110D01*
X114767140Y-73589669D01*
X114767138Y-73589668D01*
X114664367Y-73544290D01*
X114639240Y-73541375D01*
X112849518Y-73541375D01*
X112849492Y-73541377D01*
X112824387Y-73544288D01*
X112824383Y-73544290D01*
X112721610Y-73589668D01*
X112642169Y-73669109D01*
X112596790Y-73771881D01*
X112596790Y-73771883D01*
X112593875Y-73797006D01*
X112238445Y-73797006D01*
X112238445Y-73344290D01*
X112258130Y-73277251D01*
X112310934Y-73231496D01*
X112361425Y-73220294D01*
X133229303Y-73049408D01*
X133603155Y-73046412D01*
X133670350Y-73065559D01*
G37*
%TD.AperFunction*%
%TD*%
%TA.AperFunction,NonConductor*%
G36*
X114309060Y-78329295D02*
G01*
X114972393Y-78992627D01*
X115005878Y-79053950D01*
X115008712Y-79080308D01*
X115008712Y-79203685D01*
X114989027Y-79270724D01*
X114936223Y-79316479D01*
X114867065Y-79326423D01*
X114803509Y-79297398D01*
X114774227Y-79259980D01*
X114727946Y-79169150D01*
X114727941Y-79169142D01*
X114716460Y-79153341D01*
X114227337Y-79642464D01*
X114210300Y-79578882D01*
X114144474Y-79464868D01*
X114051382Y-79371776D01*
X113937368Y-79305950D01*
X113873784Y-79288912D01*
X114362908Y-78799788D01*
X114347105Y-78788306D01*
X114185822Y-78706127D01*
X114185819Y-78706126D01*
X114013668Y-78650192D01*
X113852095Y-78624601D01*
X113788960Y-78594672D01*
X113752029Y-78535360D01*
X113753027Y-78465498D01*
X113791637Y-78407265D01*
X113852095Y-78379655D01*
X113866645Y-78377350D01*
X114013784Y-78354046D01*
X114183062Y-78299044D01*
X114252902Y-78297050D01*
X114309060Y-78329295D01*
G37*
%TD.AperFunction*%
%TA.AperFunction,NonConductor*%
G36*
X122279435Y-87383785D02*
G01*
X122325190Y-87436589D01*
X122336396Y-87488100D01*
X122336396Y-87941567D01*
X122339125Y-87941312D01*
X122460365Y-87898888D01*
X122530144Y-87895326D01*
X122590771Y-87930054D01*
X122622999Y-87992047D01*
X122625320Y-88015929D01*
X122625320Y-89352212D01*
X122605635Y-89419251D01*
X122552831Y-89465006D01*
X122488068Y-89475501D01*
X122470481Y-89473611D01*
X122470475Y-89473611D01*
X121974737Y-89473611D01*
X121974731Y-89473612D01*
X121915123Y-89480020D01*
X121779857Y-89530470D01*
X121710166Y-89535454D01*
X121648843Y-89501968D01*
X121615358Y-89440645D01*
X121612525Y-89414288D01*
X121612525Y-88038692D01*
X121632210Y-87971653D01*
X121685014Y-87925898D01*
X121754172Y-87915954D01*
X121777481Y-87921651D01*
X121833668Y-87941312D01*
X121836396Y-87941567D01*
X121836396Y-87488100D01*
X121856081Y-87421061D01*
X121908885Y-87375306D01*
X121960396Y-87364100D01*
X122212396Y-87364100D01*
X122279435Y-87383785D01*
G37*
%TD.AperFunction*%
%TA.AperFunction,NonConductor*%
G36*
X114716460Y-93090408D02*
G01*
X114741296Y-93088453D01*
X114743367Y-93086857D01*
X114812980Y-93080877D01*
X114874776Y-93113482D01*
X114909134Y-93174321D01*
X114912357Y-93202408D01*
X114912357Y-94280482D01*
X114892672Y-94347521D01*
X114839868Y-94393276D01*
X114770710Y-94403220D01*
X114707154Y-94374195D01*
X114688039Y-94353367D01*
X114621933Y-94262380D01*
X114621929Y-94262375D01*
X114493874Y-94134320D01*
X114493869Y-94134316D01*
X114347372Y-94027881D01*
X114347371Y-94027880D01*
X114347369Y-94027879D01*
X114295675Y-94001539D01*
X114186014Y-93945663D01*
X114186011Y-93945662D01*
X114013785Y-93889703D01*
X113852095Y-93864094D01*
X113788960Y-93834164D01*
X113752029Y-93774853D01*
X113753027Y-93704990D01*
X113791637Y-93646758D01*
X113852096Y-93619148D01*
X114013667Y-93593558D01*
X114185819Y-93537623D01*
X114185827Y-93537620D01*
X114347105Y-93455443D01*
X114362907Y-93443960D01*
X114362908Y-93443960D01*
X113873785Y-92954837D01*
X113937368Y-92937800D01*
X114051382Y-92871974D01*
X114144474Y-92778882D01*
X114210300Y-92664868D01*
X114227337Y-92601285D01*
X114716460Y-93090408D01*
G37*
%TD.AperFunction*%
%TA.AperFunction,NonConductor*%
G36*
X120448021Y-86697903D02*
G01*
X120493776Y-86750707D01*
X120504982Y-86802218D01*
X120504982Y-86928218D01*
X120630982Y-86928218D01*
X120698021Y-86947903D01*
X120743776Y-87000707D01*
X120754982Y-87052218D01*
X120754982Y-87606573D01*
X120806879Y-87643396D01*
X120850164Y-87698243D01*
X120859125Y-87744526D01*
X120859125Y-92364635D01*
X120839440Y-92431674D01*
X120786636Y-92477429D01*
X120717478Y-92487373D01*
X120703037Y-92484411D01*
X120685265Y-92479649D01*
X120527151Y-92479649D01*
X120374424Y-92520572D01*
X120374417Y-92520575D01*
X120237498Y-92599624D01*
X120237490Y-92599630D01*
X120125689Y-92711431D01*
X120125683Y-92711439D01*
X120046634Y-92848358D01*
X120046631Y-92848365D01*
X120005708Y-93001092D01*
X120005708Y-93159263D01*
X119986023Y-93226302D01*
X119955342Y-93259033D01*
X119855215Y-93332929D01*
X119777257Y-93438560D01*
X119733897Y-93562471D01*
X119733897Y-93562473D01*
X119731139Y-93591891D01*
X119731139Y-94066806D01*
X119733897Y-94096227D01*
X119733899Y-94096237D01*
X119777257Y-94220145D01*
X119777258Y-94220147D01*
X119821787Y-94280482D01*
X119857669Y-94329100D01*
X119881640Y-94394729D01*
X119866324Y-94462900D01*
X119857671Y-94476365D01*
X119840737Y-94499309D01*
X119797377Y-94623222D01*
X119797377Y-94623224D01*
X119794619Y-94652642D01*
X119794619Y-94876507D01*
X119774934Y-94943546D01*
X119758300Y-94964188D01*
X118949667Y-95772821D01*
X118888344Y-95806306D01*
X118818652Y-95801322D01*
X118807527Y-95796541D01*
X118769589Y-95777994D01*
X118751947Y-95775424D01*
X118699027Y-95767714D01*
X118699021Y-95767714D01*
X117940530Y-95767714D01*
X117873491Y-95748029D01*
X117827736Y-95695225D01*
X117817792Y-95626067D01*
X117833143Y-95581714D01*
X117912172Y-95444831D01*
X117953095Y-95292104D01*
X117953095Y-95133990D01*
X117912172Y-94981263D01*
X117881345Y-94927869D01*
X117833119Y-94844337D01*
X117833113Y-94844329D01*
X117721312Y-94732528D01*
X117721307Y-94732524D01*
X117587780Y-94655433D01*
X117539565Y-94604866D01*
X117525780Y-94548046D01*
X117525780Y-92175641D01*
X117545465Y-92108602D01*
X117598269Y-92062847D01*
X117667427Y-92052903D01*
X117693114Y-92059460D01*
X117715230Y-92067709D01*
X117772608Y-92073876D01*
X118272608Y-92073876D01*
X118329983Y-92067709D01*
X118464694Y-92017465D01*
X118464701Y-92017461D01*
X118579795Y-91931301D01*
X118579798Y-91931298D01*
X118665958Y-91816204D01*
X118665962Y-91816197D01*
X118716204Y-91681490D01*
X118716206Y-91681483D01*
X118722607Y-91621955D01*
X118722608Y-91621938D01*
X118722608Y-91024111D01*
X118272608Y-91024111D01*
X118272608Y-92073876D01*
X117772608Y-92073876D01*
X117772608Y-90524111D01*
X118272608Y-90524111D01*
X118722608Y-90524111D01*
X118722608Y-89926283D01*
X118722607Y-89926266D01*
X118716206Y-89866738D01*
X118716204Y-89866731D01*
X118665962Y-89732024D01*
X118665958Y-89732017D01*
X118579798Y-89616923D01*
X118579795Y-89616920D01*
X118464701Y-89530760D01*
X118464694Y-89530756D01*
X118329988Y-89480514D01*
X118329981Y-89480512D01*
X118272608Y-89474343D01*
X118272608Y-90524111D01*
X117772608Y-90524111D01*
X117772608Y-89474344D01*
X117772607Y-89474343D01*
X117715234Y-89480512D01*
X117715223Y-89480514D01*
X117693112Y-89488762D01*
X117623420Y-89493746D01*
X117562098Y-89460260D01*
X117528613Y-89398937D01*
X117525780Y-89372580D01*
X117525780Y-89012341D01*
X117525781Y-89012328D01*
X117525781Y-88903155D01*
X117525781Y-88903153D01*
X117500109Y-88807345D01*
X117478996Y-88770777D01*
X117450515Y-88721446D01*
X117380380Y-88651311D01*
X117380377Y-88651309D01*
X117156154Y-88427086D01*
X116843061Y-88113992D01*
X116843038Y-88113971D01*
X116789161Y-88060094D01*
X116755676Y-87998771D01*
X116752842Y-87972413D01*
X116752842Y-87767253D01*
X116772527Y-87700214D01*
X116825331Y-87654459D01*
X116894489Y-87644515D01*
X116950477Y-87667484D01*
X116987845Y-87695063D01*
X117115218Y-87739633D01*
X117115218Y-87311278D01*
X117615218Y-87311278D01*
X117615218Y-87739632D01*
X117742590Y-87695063D01*
X117859183Y-87609014D01*
X117924812Y-87585043D01*
X117990758Y-87599153D01*
X117996380Y-87602124D01*
X118123753Y-87646694D01*
X118123753Y-87218339D01*
X118623753Y-87218339D01*
X118623753Y-87646693D01*
X118751125Y-87602124D01*
X118855928Y-87524776D01*
X118921557Y-87500805D01*
X118989727Y-87516120D01*
X119003196Y-87524776D01*
X119069904Y-87574009D01*
X119197277Y-87618579D01*
X119197277Y-87190224D01*
X119697277Y-87190224D01*
X119697277Y-87618578D01*
X119824649Y-87574009D01*
X119910629Y-87510553D01*
X119976257Y-87486582D01*
X120044428Y-87501897D01*
X120057897Y-87510553D01*
X120127609Y-87562003D01*
X120254982Y-87606573D01*
X120254982Y-87178218D01*
X120177064Y-87178218D01*
X120160267Y-87187390D01*
X120133909Y-87190224D01*
X119697277Y-87190224D01*
X119197277Y-87190224D01*
X119116933Y-87190224D01*
X119070634Y-87215505D01*
X119044276Y-87218339D01*
X118623753Y-87218339D01*
X118123753Y-87218339D01*
X118115218Y-87218339D01*
X118102305Y-87231251D01*
X118095533Y-87254317D01*
X118042729Y-87300072D01*
X117991218Y-87311278D01*
X117615218Y-87311278D01*
X117115218Y-87311278D01*
X117115218Y-87185278D01*
X117134903Y-87118239D01*
X117187707Y-87072484D01*
X117239218Y-87061278D01*
X117365218Y-87061278D01*
X117365218Y-86935278D01*
X117384903Y-86868239D01*
X117437707Y-86822484D01*
X117489218Y-86811278D01*
X117623753Y-86811278D01*
X117636665Y-86798365D01*
X117643438Y-86775300D01*
X117696242Y-86729545D01*
X117747753Y-86718339D01*
X118704097Y-86718339D01*
X118750396Y-86693058D01*
X118776754Y-86690224D01*
X119775195Y-86690224D01*
X119791992Y-86681052D01*
X119818350Y-86678218D01*
X120380982Y-86678218D01*
X120448021Y-86697903D01*
G37*
%TD.AperFunction*%
%TA.AperFunction,NonConductor*%
G36*
X126739711Y-98940829D02*
G01*
X126762487Y-98941225D01*
X126781132Y-98950134D01*
X126785656Y-98951151D01*
X126792602Y-98955615D01*
X126794332Y-98956442D01*
X126796777Y-98958074D01*
X126872237Y-99013766D01*
X126889000Y-99019631D01*
X126902065Y-99028352D01*
X126946896Y-99081942D01*
X126957224Y-99131487D01*
X126957224Y-99721174D01*
X126937539Y-99788213D01*
X126884735Y-99833968D01*
X126833224Y-99845174D01*
X126798393Y-99845174D01*
X126798377Y-99845175D01*
X126617834Y-99845175D01*
X126569982Y-99834104D01*
X126569970Y-99834145D01*
X126569412Y-99833972D01*
X126563375Y-99832576D01*
X126560768Y-99831301D01*
X126492636Y-99821375D01*
X126492635Y-99821375D01*
X126255471Y-99821375D01*
X126188432Y-99801690D01*
X126167790Y-99785056D01*
X125671194Y-99288460D01*
X125656490Y-99261532D01*
X125639898Y-99235714D01*
X125639006Y-99229513D01*
X125637709Y-99227137D01*
X125634875Y-99200779D01*
X125634875Y-99117728D01*
X125654560Y-99050689D01*
X125707364Y-99004934D01*
X125776522Y-98994990D01*
X125816818Y-99008099D01*
X125824564Y-99012193D01*
X125949894Y-99056049D01*
X125949898Y-99056049D01*
X125949902Y-99056051D01*
X125964778Y-99057446D01*
X125979651Y-99058841D01*
X125979655Y-99058841D01*
X126425791Y-99058841D01*
X126439010Y-99057601D01*
X126455540Y-99056051D01*
X126455544Y-99056049D01*
X126455547Y-99056049D01*
X126504557Y-99038898D01*
X126580878Y-99012193D01*
X126651859Y-98959805D01*
X126673254Y-98951991D01*
X126692628Y-98940011D01*
X126705444Y-98940233D01*
X126717485Y-98935836D01*
X126739711Y-98940829D01*
G37*
%TD.AperFunction*%
%TA.AperFunction,NonConductor*%
G36*
X131059454Y-103695993D02*
G01*
X131085638Y-103699029D01*
X131254966Y-103754046D01*
X131369839Y-103772240D01*
X131416654Y-103779655D01*
X131479789Y-103809584D01*
X131516720Y-103868896D01*
X131515722Y-103938758D01*
X131477112Y-103996991D01*
X131416654Y-104024601D01*
X131255081Y-104050192D01*
X131082930Y-104106126D01*
X131082922Y-104106129D01*
X130921644Y-104188307D01*
X130905841Y-104199787D01*
X130905841Y-104199788D01*
X131394966Y-104688912D01*
X131331382Y-104705950D01*
X131217368Y-104771776D01*
X131124276Y-104864868D01*
X131058450Y-104978882D01*
X131041412Y-105042465D01*
X130552287Y-104553341D01*
X130540807Y-104569144D01*
X130458629Y-104730422D01*
X130458626Y-104730430D01*
X130402692Y-104902581D01*
X130374375Y-105081368D01*
X130374375Y-105262381D01*
X130402692Y-105441168D01*
X130458626Y-105613319D01*
X130458627Y-105613322D01*
X130540806Y-105774605D01*
X130552288Y-105790407D01*
X130552288Y-105790408D01*
X131041412Y-105301284D01*
X131058450Y-105364868D01*
X131124276Y-105478882D01*
X131217368Y-105571974D01*
X131331382Y-105637800D01*
X131394965Y-105654837D01*
X130905841Y-106143960D01*
X130905841Y-106143961D01*
X130921642Y-106155441D01*
X130921650Y-106155446D01*
X131082927Y-106237622D01*
X131082930Y-106237623D01*
X131255081Y-106293557D01*
X131416654Y-106319148D01*
X131479788Y-106349077D01*
X131516720Y-106408388D01*
X131515722Y-106478251D01*
X131477113Y-106536484D01*
X131416655Y-106564094D01*
X131254964Y-106589704D01*
X131082738Y-106645662D01*
X131082735Y-106645663D01*
X130921377Y-106727881D01*
X130774880Y-106834316D01*
X130774875Y-106834320D01*
X130646820Y-106962375D01*
X130646816Y-106962380D01*
X130540381Y-107108877D01*
X130459573Y-107267470D01*
X130411598Y-107318266D01*
X130349088Y-107335175D01*
X129977671Y-107335175D01*
X129910632Y-107315490D01*
X129889990Y-107298856D01*
X129342853Y-106751719D01*
X129309368Y-106690396D01*
X129306534Y-106664038D01*
X129306534Y-106460553D01*
X129306534Y-106460551D01*
X129280863Y-106364744D01*
X129231269Y-106278845D01*
X129161134Y-106208710D01*
X129161133Y-106208709D01*
X129156803Y-106204379D01*
X129156792Y-106204369D01*
X126962679Y-104010256D01*
X126929194Y-103948933D01*
X126934178Y-103879241D01*
X126976050Y-103823308D01*
X127041514Y-103798891D01*
X127050360Y-103798575D01*
X130677170Y-103798575D01*
X130677186Y-103798576D01*
X130684782Y-103798576D01*
X130783965Y-103798576D01*
X130783968Y-103798576D01*
X130879776Y-103772904D01*
X130879778Y-103772902D01*
X130879780Y-103772902D01*
X130879781Y-103772901D01*
X130916343Y-103751792D01*
X130916344Y-103751791D01*
X130917758Y-103750975D01*
X130965675Y-103723310D01*
X130970190Y-103718794D01*
X130982530Y-103711233D01*
X131010231Y-103703739D01*
X131037002Y-103693390D01*
X131045043Y-103694322D01*
X131049976Y-103692988D01*
X131059454Y-103695993D01*
G37*
%TD.AperFunction*%
%TA.AperFunction,NonConductor*%
G36*
X123040078Y-107468225D02*
G01*
X123046556Y-107474257D01*
X123106009Y-107533710D01*
X123191908Y-107583304D01*
X123287715Y-107608975D01*
X123287716Y-107608975D01*
X123339802Y-107608975D01*
X123406841Y-107628660D01*
X123452596Y-107681464D01*
X123462540Y-107750622D01*
X123456843Y-107773930D01*
X123440944Y-107819363D01*
X123440942Y-107819375D01*
X123438153Y-107849119D01*
X123438153Y-108235251D01*
X123441159Y-108267315D01*
X123427818Y-108335900D01*
X123379515Y-108386384D01*
X123311587Y-108402739D01*
X123298715Y-108401028D01*
X123264173Y-108397789D01*
X122958875Y-108397789D01*
X122891836Y-108378104D01*
X122846081Y-108325300D01*
X122834875Y-108273789D01*
X122834875Y-107561938D01*
X122854560Y-107494899D01*
X122907364Y-107449144D01*
X122976522Y-107439200D01*
X123040078Y-107468225D01*
G37*
%TD.AperFunction*%
%TA.AperFunction,NonConductor*%
G36*
X130416127Y-108108260D02*
G01*
X130459573Y-108156280D01*
X130532933Y-108300256D01*
X130540381Y-108314872D01*
X130646816Y-108461369D01*
X130646820Y-108461374D01*
X130774875Y-108589429D01*
X130774880Y-108589433D01*
X130831014Y-108630216D01*
X130921381Y-108695871D01*
X131026859Y-108749615D01*
X131082735Y-108778086D01*
X131082738Y-108778087D01*
X131168851Y-108806066D01*
X131254966Y-108834046D01*
X131328014Y-108845615D01*
X131415053Y-108859402D01*
X131478188Y-108889331D01*
X131515119Y-108948643D01*
X131514121Y-109018506D01*
X131475511Y-109076738D01*
X131415053Y-109104348D01*
X131254962Y-109129704D01*
X131085686Y-109184704D01*
X131015845Y-109186699D01*
X130959688Y-109154454D01*
X130105490Y-108300256D01*
X130072005Y-108238933D01*
X130076989Y-108169241D01*
X130118861Y-108113308D01*
X130184325Y-108088891D01*
X130193171Y-108088575D01*
X130349088Y-108088575D01*
X130416127Y-108108260D01*
G37*
%TD.AperFunction*%
%TA.AperFunction,NonConductor*%
G36*
X128382904Y-107643584D02*
G01*
X128389382Y-107649616D01*
X130426954Y-109687188D01*
X130460439Y-109748511D01*
X130457204Y-109813186D01*
X130402204Y-109982462D01*
X130373875Y-110161323D01*
X130373875Y-110342426D01*
X130402204Y-110521285D01*
X130458162Y-110693511D01*
X130458163Y-110693514D01*
X130497249Y-110770222D01*
X130540001Y-110854128D01*
X130540381Y-110854872D01*
X130646816Y-111001369D01*
X130646820Y-111001374D01*
X130774875Y-111129429D01*
X130774880Y-111129433D01*
X130859994Y-111191271D01*
X130921381Y-111235871D01*
X130993124Y-111272426D01*
X131082735Y-111318086D01*
X131082738Y-111318087D01*
X131152016Y-111340596D01*
X131254966Y-111374046D01*
X131328014Y-111385615D01*
X131415053Y-111399402D01*
X131478188Y-111429331D01*
X131515119Y-111488643D01*
X131514121Y-111558506D01*
X131475511Y-111616738D01*
X131415053Y-111644348D01*
X131254962Y-111669704D01*
X131085686Y-111724704D01*
X131015845Y-111726699D01*
X130959688Y-111694454D01*
X128214020Y-108948786D01*
X128180535Y-108887463D01*
X128177701Y-108861105D01*
X128177701Y-107737297D01*
X128197386Y-107670258D01*
X128250190Y-107624503D01*
X128319348Y-107614559D01*
X128382904Y-107643584D01*
G37*
%TD.AperFunction*%
%TA.AperFunction,NonConductor*%
G36*
X116579836Y-110648260D02*
G01*
X116625591Y-110701064D01*
X116635535Y-110770222D01*
X116606510Y-110833778D01*
X116600481Y-110840252D01*
X116249462Y-111191271D01*
X115988901Y-111451832D01*
X115918765Y-111521967D01*
X115918763Y-111521969D01*
X115900025Y-111554424D01*
X115884185Y-111581862D01*
X115873192Y-111600901D01*
X115869169Y-111607869D01*
X115854347Y-111663183D01*
X115843498Y-111703676D01*
X115843498Y-111703678D01*
X115843498Y-111812851D01*
X115843499Y-111812864D01*
X115843499Y-112047826D01*
X115823814Y-112114865D01*
X115807180Y-112135507D01*
X115563831Y-112378856D01*
X115502508Y-112412341D01*
X115476150Y-112415175D01*
X114919662Y-112415175D01*
X114852623Y-112395490D01*
X114809177Y-112347470D01*
X114774993Y-112280382D01*
X114728371Y-112188881D01*
X114657740Y-112091665D01*
X114621933Y-112042380D01*
X114621929Y-112042375D01*
X114493874Y-111914320D01*
X114493869Y-111914316D01*
X114347372Y-111807881D01*
X114347371Y-111807880D01*
X114347369Y-111807879D01*
X114282894Y-111775027D01*
X114186014Y-111725663D01*
X114186011Y-111725662D01*
X114013785Y-111669704D01*
X113853696Y-111644348D01*
X113790561Y-111614419D01*
X113753630Y-111555107D01*
X113754628Y-111485245D01*
X113793238Y-111427012D01*
X113853696Y-111399402D01*
X113923800Y-111388297D01*
X114013784Y-111374046D01*
X114186014Y-111318086D01*
X114347369Y-111235871D01*
X114493876Y-111129428D01*
X114621928Y-111001376D01*
X114728371Y-110854869D01*
X114806739Y-110701064D01*
X114809177Y-110696280D01*
X114857152Y-110645484D01*
X114919662Y-110628575D01*
X116512797Y-110628575D01*
X116579836Y-110648260D01*
G37*
%TD.AperFunction*%
%TA.AperFunction,NonConductor*%
G36*
X115142618Y-113188260D02*
G01*
X115188373Y-113241064D01*
X115198317Y-113310222D01*
X115169292Y-113373778D01*
X115163260Y-113380256D01*
X114309060Y-114234454D01*
X114247737Y-114267939D01*
X114183062Y-114264704D01*
X114013786Y-114209704D01*
X114013787Y-114209704D01*
X113853696Y-114184348D01*
X113790561Y-114154419D01*
X113753630Y-114095107D01*
X113754628Y-114025245D01*
X113793238Y-113967012D01*
X113853696Y-113939402D01*
X113923800Y-113928297D01*
X114013784Y-113914046D01*
X114186014Y-113858086D01*
X114347369Y-113775871D01*
X114493876Y-113669428D01*
X114621928Y-113541376D01*
X114728371Y-113394869D01*
X114809177Y-113236280D01*
X114857152Y-113185484D01*
X114919662Y-113168575D01*
X115075579Y-113168575D01*
X115142618Y-113188260D01*
G37*
%TD.AperFunction*%
%TA.AperFunction,NonConductor*%
G36*
X128063363Y-109864043D02*
G01*
X128069841Y-109870075D01*
X130426954Y-112227188D01*
X130460439Y-112288511D01*
X130457204Y-112353186D01*
X130402204Y-112522462D01*
X130373875Y-112701323D01*
X130373875Y-112882426D01*
X130402204Y-113061285D01*
X130458162Y-113233511D01*
X130458163Y-113233514D01*
X130497249Y-113310222D01*
X130532933Y-113380256D01*
X130540381Y-113394872D01*
X130646816Y-113541369D01*
X130646820Y-113541374D01*
X130774875Y-113669429D01*
X130774880Y-113669433D01*
X130902662Y-113762271D01*
X130921381Y-113775871D01*
X131026859Y-113829615D01*
X131082735Y-113858086D01*
X131082738Y-113858087D01*
X131168851Y-113886066D01*
X131254966Y-113914046D01*
X131328014Y-113925615D01*
X131415053Y-113939402D01*
X131478188Y-113969331D01*
X131515119Y-114028643D01*
X131514121Y-114098506D01*
X131475511Y-114156738D01*
X131415053Y-114184348D01*
X131254964Y-114209704D01*
X131082738Y-114265662D01*
X131082735Y-114265663D01*
X130921377Y-114347881D01*
X130774880Y-114454316D01*
X130774875Y-114454320D01*
X130646820Y-114582375D01*
X130646816Y-114582380D01*
X130540381Y-114728877D01*
X130459573Y-114887470D01*
X130411598Y-114938266D01*
X130349088Y-114955175D01*
X128433429Y-114955175D01*
X128366390Y-114935490D01*
X128345748Y-114918856D01*
X127894479Y-114467587D01*
X127860994Y-114406264D01*
X127858160Y-114379906D01*
X127858160Y-109957756D01*
X127877845Y-109890717D01*
X127930649Y-109844962D01*
X127999807Y-109835018D01*
X128063363Y-109864043D01*
G37*
%TD.AperFunction*%
%TA.AperFunction,NonConductor*%
G36*
X130363690Y-120792862D02*
G01*
X130378895Y-120792211D01*
X130396533Y-120802506D01*
X130416127Y-120808260D01*
X130427023Y-120820304D01*
X130439237Y-120827433D01*
X130459573Y-120856280D01*
X130532933Y-121000256D01*
X130540381Y-121014872D01*
X130646816Y-121161369D01*
X130646820Y-121161374D01*
X130774875Y-121289429D01*
X130774880Y-121289433D01*
X130902662Y-121382271D01*
X130921381Y-121395871D01*
X131026859Y-121449615D01*
X131082735Y-121478086D01*
X131082738Y-121478087D01*
X131137590Y-121495909D01*
X131254966Y-121534046D01*
X131328014Y-121545615D01*
X131415053Y-121559402D01*
X131478188Y-121589331D01*
X131515119Y-121648643D01*
X131514121Y-121718506D01*
X131475511Y-121776738D01*
X131415053Y-121804348D01*
X131254962Y-121829704D01*
X131085686Y-121884704D01*
X131015845Y-121886699D01*
X130959688Y-121854454D01*
X130105490Y-121000256D01*
X130072005Y-120938933D01*
X130076989Y-120869241D01*
X130118861Y-120813308D01*
X130184325Y-120788891D01*
X130193171Y-120788575D01*
X130349088Y-120788575D01*
X130363690Y-120792862D01*
G37*
%TD.AperFunction*%
%TA.AperFunction,NonConductor*%
G36*
X118415836Y-118971989D02*
G01*
X118471769Y-119013861D01*
X118496186Y-119079325D01*
X118496502Y-119088171D01*
X118496502Y-120202394D01*
X118476817Y-120269433D01*
X118460183Y-120290075D01*
X116211402Y-122538856D01*
X116150079Y-122572341D01*
X116123721Y-122575175D01*
X114919662Y-122575175D01*
X114852623Y-122555490D01*
X114809177Y-122507470D01*
X114776053Y-122442461D01*
X114728371Y-122348881D01*
X114673376Y-122273186D01*
X114621933Y-122202380D01*
X114621929Y-122202375D01*
X114493874Y-122074320D01*
X114493869Y-122074316D01*
X114347372Y-121967881D01*
X114347371Y-121967880D01*
X114347369Y-121967879D01*
X114295675Y-121941539D01*
X114186014Y-121885663D01*
X114186011Y-121885662D01*
X114013785Y-121829704D01*
X113853696Y-121804348D01*
X113790561Y-121774419D01*
X113753630Y-121715107D01*
X113754628Y-121645245D01*
X113793238Y-121587012D01*
X113853696Y-121559402D01*
X113923800Y-121548297D01*
X114013784Y-121534046D01*
X114186014Y-121478086D01*
X114347369Y-121395871D01*
X114493876Y-121289428D01*
X114621928Y-121161376D01*
X114728371Y-121014869D01*
X114810586Y-120853514D01*
X114866546Y-120681284D01*
X114886517Y-120555191D01*
X114894875Y-120502426D01*
X114894875Y-120321323D01*
X114878394Y-120217272D01*
X114866546Y-120142466D01*
X114832598Y-120037983D01*
X114830603Y-119968142D01*
X114866684Y-119908309D01*
X114929385Y-119877481D01*
X114950529Y-119875665D01*
X117196408Y-119875665D01*
X117196424Y-119875666D01*
X117204020Y-119875666D01*
X117303203Y-119875666D01*
X117303206Y-119875666D01*
X117399014Y-119849994D01*
X117484913Y-119800400D01*
X117555048Y-119730265D01*
X117555048Y-119730263D01*
X117565252Y-119720060D01*
X117565255Y-119720055D01*
X118284822Y-119000489D01*
X118346144Y-118967005D01*
X118415836Y-118971989D01*
G37*
%TD.AperFunction*%
M02*
