M48
; DRILL file {KiCad 9.0.5} date 2025-11-27T10:52:58-0600
; FORMAT={-:-/ absolute / metric / decimal}
; #@! TF.CreationDate,2025-11-27T10:52:58-06:00
; #@! TF.GenerationSoftware,Kicad,Pcbnew,9.0.5
; #@! TF.FileFunction,Plated,1,2,PTH
FMAT,2
METRIC
; #@! TA.AperFunction,Plated,PTH,ViaDrill
T1C0.100
; #@! TA.AperFunction,Plated,PTH,ViaDrill
T2C0.300
; #@! TA.AperFunction,Plated,PTH,ComponentDrill
T3C0.600
; #@! TA.AperFunction,Plated,PTH,ComponentDrill
T4C1.000
%
G90
G05
T1
X120.257Y-104.167
X120.648Y-104.628
X122.16Y-100.195
X123.829Y-94.225
X124.555Y-102.759
X127.101Y-102.243
T2
X116.166Y-104.397
X116.265Y-106.336
X116.782Y-105.76
X117.353Y-95.213
X118.331Y-100.493
X118.464Y-97.89
X119.422Y-84.36
X120.466Y-87.84
X120.606Y-93.08
X121.444Y-85.725
X121.668Y-105.149
X121.764Y-88.106
X122.276Y-92.275
X122.369Y-104.874
X122.37Y-94.992
X122.434Y-94.043
X122.835Y-105.509
X123.025Y-107.923
X123.825Y-104.874
X124.064Y-100.58
X124.078Y-119.207
X124.194Y-97.917
X124.354Y-107.455
X124.564Y-105.018
X124.692Y-101.008
X124.96Y-101.711
X125.189Y-104.49
X125.192Y-103.17
X125.636Y-84.332
X127.284Y-100.65
X127.728Y-104.049
X127.952Y-102.437
X128.662Y-104.85
T4
X113.744Y-74.692
X113.744Y-77.232
X113.744Y-79.772
X113.744Y-82.312
X113.744Y-84.852
X113.744Y-87.392
X113.744Y-89.932
X113.744Y-92.472
X113.744Y-95.012
X113.744Y-97.552
X113.744Y-100.092
X113.744Y-102.632
X113.744Y-105.172
X113.744Y-107.712
X113.744Y-110.252
X113.744Y-112.792
X113.744Y-115.332
X113.744Y-117.872
X113.744Y-120.412
X113.744Y-122.952
X120.094Y-122.712
X122.634Y-122.712
X125.174Y-122.712
X131.524Y-74.692
X131.524Y-77.232
X131.524Y-79.772
X131.524Y-82.312
X131.524Y-84.852
X131.524Y-87.392
X131.524Y-89.932
X131.524Y-92.472
X131.524Y-95.012
X131.524Y-97.552
X131.524Y-100.092
X131.524Y-102.632
X131.524Y-105.172
X131.524Y-107.712
X131.524Y-110.252
X131.524Y-112.792
X131.524Y-115.332
X131.524Y-117.872
X131.524Y-120.412
X131.524Y-122.952
T3
G00X118.314Y-75.072
M15
G01X118.314Y-74.472
M16
G05
G00X118.314Y-79.502
M15
G01X118.314Y-78.402
M16
G05
G00X126.954Y-75.072
M15
G01X126.954Y-74.472
M16
G05
G00X126.954Y-79.502
M15
G01X126.954Y-78.402
M16
G05
M30
