%TF.GenerationSoftware,KiCad,Pcbnew,9.0.5*%
%TF.CreationDate,2025-11-27T10:56:10-06:00*%
%TF.ProjectId,devboard,64657662-6f61-4726-942e-6b696361645f,rev?*%
%TF.SameCoordinates,Original*%
%TF.FileFunction,Soldermask,Bot*%
%TF.FilePolarity,Negative*%
%FSLAX46Y46*%
G04 Gerber Fmt 4.6, Leading zero omitted, Abs format (unit mm)*
G04 Created by KiCad (PCBNEW 9.0.5) date 2025-11-27 10:56:10*
%MOMM*%
%LPD*%
G01*
G04 APERTURE LIST*
%ADD10R,1.700000X1.700000*%
%ADD11C,1.700000*%
%ADD12C,0.650000*%
%ADD13O,1.000000X2.100000*%
%ADD14O,1.000000X1.600000*%
G04 APERTURE END LIST*
D10*
%TO.C,J2*%
X113744375Y-74691875D03*
D11*
X113744375Y-77231875D03*
X113744375Y-79771875D03*
X113744375Y-82311875D03*
X113744375Y-84851875D03*
X113744375Y-87391875D03*
X113744375Y-89931875D03*
X113744375Y-92471875D03*
X113744375Y-95011875D03*
X113744375Y-97551875D03*
X113744375Y-100091875D03*
X113744375Y-102631875D03*
X113744375Y-105171875D03*
X113744375Y-107711875D03*
X113744375Y-110251875D03*
X113744375Y-112791875D03*
X113744375Y-115331875D03*
X113744375Y-117871875D03*
X113744375Y-120411875D03*
X113744375Y-122951875D03*
%TD*%
D10*
%TO.C,J4*%
X120094375Y-122711875D03*
D11*
X122634375Y-122711875D03*
X125174375Y-122711875D03*
%TD*%
D10*
%TO.C,J3*%
X131524375Y-74691875D03*
D11*
X131524375Y-77231875D03*
X131524375Y-79771875D03*
X131524375Y-82311875D03*
X131524375Y-84851875D03*
X131524375Y-87391875D03*
X131524375Y-89931875D03*
X131524375Y-92471875D03*
X131524375Y-95011875D03*
X131524375Y-97551875D03*
X131524375Y-100091875D03*
X131524375Y-102631875D03*
X131524375Y-105171875D03*
X131524375Y-107711875D03*
X131524375Y-110251875D03*
X131524375Y-112791875D03*
X131524375Y-115331875D03*
X131524375Y-117871875D03*
X131524375Y-120411875D03*
X131524375Y-122951875D03*
%TD*%
D12*
%TO.C,J1*%
X125524375Y-78421875D03*
X119744375Y-78421875D03*
D13*
X126954375Y-78951875D03*
D14*
X126954375Y-74771875D03*
D13*
X118314375Y-78951875D03*
D14*
X118314375Y-74771875D03*
%TD*%
M02*
